<svg width="12" height="24" viewBox="0 0 12 24" fill="none" xmlns="http://www.w3.org/2000/svg">
<path d="M6.9316 1.76L7.4863 2.59205L7.56869 2.53713L7.63871 2.46711L6.9316 1.76ZM10.0516 1.13L10.3338 0.170633H10.3338L10.0516 1.13ZM10.8316 1.49L10.2177 2.27935L10.2465 2.30178L10.2769 2.32205L10.8316 1.49ZM11.2516 2.12L12.211 1.83783L12.2059 1.82071L12.2003 1.80377L11.2516 2.12ZM11.3416 21.47L10.3552 21.3056L10.3491 21.3424L10.3457 21.3795L11.3416 21.47ZM11.0716 22.25L10.1892 21.7794L10.1838 21.7897L11.0716 22.25ZM6.4216 22.28L5.53925 22.7506L5.54709 22.7653L5.55542 22.7797L6.4216 22.28ZM6.1216 21.47L5.12455 21.5467L5.12794 21.5908L5.13521 21.6344L6.1216 21.47ZM6.0916 9.65H7.0916V7.36602L5.41332 8.9152L6.0916 9.65ZM5.7016 10.01L6.30471 10.8077L6.34384 10.7781L6.37988 10.7448L5.7016 10.01ZM1.7716 9.89L1.02301 10.553L1.02825 10.5589L1.03357 10.5648L1.7716 9.89ZM1.9216 6.26L2.58598 7.00743L2.59157 7.00239L1.9216 6.26ZM6.8416 1.82L6.28691 0.987945L6.22599 1.02856L6.17164 1.07761L6.8416 1.82ZM7.63871 2.46711C8.01616 2.08965 8.3343 1.98 8.6116 1.98V-0.0200005C7.6889 -0.0200005 6.88704 0.390345 6.22449 1.05289L7.63871 2.46711ZM8.6116 1.98C9.19612 1.98 9.56485 2.02919 9.76944 2.08937L10.3338 0.170633C9.85835 0.0308056 9.26708 -0.0200005 8.6116 -0.0200005V1.98ZM9.76944 2.08937C10.0485 2.17145 10.1759 2.24687 10.2177 2.27935L11.4455 0.700648C11.1273 0.45313 10.7347 0.28855 10.3338 0.170633L9.76944 2.08937ZM10.2769 2.32205C10.2403 2.29766 10.2307 2.27898 10.2396 2.2922C10.2497 2.30736 10.2743 2.35029 10.3029 2.43623L12.2003 1.80377C12.0613 1.38674 11.8196 0.946815 11.3863 0.657948L10.2769 2.32205ZM10.2922 2.40216C10.3498 2.59803 10.4016 3.00837 10.4016 3.71H12.4016C12.4016 2.97163 12.3534 2.32196 12.211 1.83783L10.2922 2.40216ZM10.4016 3.71V20.42H12.4016V3.71H10.4016ZM10.4016 20.42C10.4016 20.8643 10.3814 21.1484 10.3552 21.3056L12.328 21.6344C12.3818 21.3116 12.4016 20.8957 12.4016 20.42H10.4016ZM10.3457 21.3795C10.3425 21.4145 10.3168 21.5403 10.1892 21.7794L11.954 22.7206C12.1464 22.3597 12.3007 21.9655 12.3375 21.5605L10.3457 21.3795ZM10.1838 21.7897C10.1986 21.7612 10.1854 21.8308 9.94949 21.9125C9.70607 21.9968 9.31462 22.06 8.7316 22.06V24.06C9.42858 24.06 10.0671 23.9882 10.6037 23.8025C11.1478 23.6142 11.6646 23.2788 11.9594 22.7103L10.1838 21.7897ZM8.7316 22.06C8.16941 22.06 7.78675 21.9995 7.54402 21.9176C7.42676 21.878 7.35923 21.839 7.3238 21.8132C7.3066 21.8006 7.29729 21.7915 7.29295 21.7867C7.29072 21.7843 7.28943 21.7826 7.28878 21.7817C7.28814 21.7809 7.28787 21.7804 7.28779 21.7803L5.55542 22.7797C5.8643 23.3151 6.37092 23.6324 6.90419 23.8124C7.43145 23.9905 8.0538 24.06 8.7316 24.06V22.06ZM7.30395 21.8094C7.17632 21.5701 7.12463 21.4054 7.108 21.3056L5.13521 21.6344C5.19858 22.0146 5.34688 22.3899 5.53925 22.7506L7.30395 21.8094ZM7.11866 21.3933C7.10161 21.1717 7.0916 20.8318 7.0916 20.36H5.0916C5.0916 20.8482 5.10159 21.2483 5.12455 21.5467L7.11866 21.3933ZM7.0916 20.36V9.65H5.0916V20.36H7.0916ZM5.41332 8.9152L5.02332 9.2752L6.37988 10.7448L6.76988 10.3848L5.41332 8.9152ZM5.09849 9.21234C4.33323 9.79095 3.85121 9.94 3.6016 9.94V11.94C4.512 11.94 5.42997 11.469 6.30471 10.8077L5.09849 9.21234ZM3.6016 9.94C3.43778 9.94 3.07653 9.83528 2.50963 9.21523L1.03357 10.5648C1.74667 11.3447 2.60542 11.94 3.6016 11.94V9.94ZM2.52019 9.22696C1.95388 8.58758 1.8416 8.20086 1.8416 8.03H-0.158398C-0.158398 8.93914 0.349325 9.79242 1.02301 10.553L2.52019 9.22696ZM1.8416 8.03C1.8416 7.93329 1.92319 7.59655 2.58597 7.00741L1.25724 5.51259C0.480018 6.20345 -0.158398 7.04671 -0.158398 8.03H1.8416ZM2.59157 7.00239L7.51157 2.56239L6.17164 1.07761L1.25164 5.51761L2.59157 7.00239ZM7.3963 2.65205L7.4863 2.59205L6.37691 0.927946L6.28691 0.987945L7.3963 2.65205Z" fill="#7DACFF"/>
</svg>
