<svg width="18" height="24" viewBox="0 0 18 24" fill="none" xmlns="http://www.w3.org/2000/svg">
<path d="M16.2794 18.02L15.7724 18.8819L15.8017 18.8992L15.8322 18.9144L16.2794 18.02ZM16.9994 18.89L16.0415 19.1773L16.0436 19.1843L16.0458 19.1911L16.9994 18.89ZM16.9694 21.92L16.031 21.5743L16.0229 21.5964L16.0158 21.6189L16.9694 21.92ZM16.3394 22.7L15.9165 21.7938L15.8881 21.8071L15.8605 21.8221L16.3394 22.7ZM0.889375 22.25L0.169055 22.9436L0.889375 22.25ZM1.21938 17.39L0.448411 16.7531L0.44695 16.7549L1.21938 17.39ZM3.94938 15.05L4.46629 15.9061L4.47793 15.8989L3.94938 15.05ZM7.12938 13.13L7.63431 13.9933L7.64624 13.9861L7.12938 13.13ZM9.82938 10.97L9.10431 10.2812L9.09528 10.291L9.82938 10.97ZM10.7594 7.67L9.8347 8.05075L9.83885 8.06083L9.84322 8.07082L10.7594 7.67ZM10.2794 6.86L9.47064 7.44817L9.50126 7.49027L9.53608 7.52896L10.2794 6.86ZM9.49938 6.26L9.94659 5.36557H9.94659L9.49938 6.26ZM6.31938 6.71L5.61227 6.00289L6.31938 6.71ZM5.53938 8.09L6.52459 8.26134L6.52823 8.24041L6.53098 8.21934L5.53938 8.09ZM5.41938 8.78L4.43416 8.60866L4.41938 8.69369V8.78H5.41938ZM5.35938 9.95L4.37551 9.77111L4.36752 9.81502L4.36348 9.85946L5.35938 9.95ZM5.08938 10.7L5.93737 11.23L5.94783 11.2133L5.95762 11.1961L5.08938 10.7ZM0.259375 10.28L-0.695105 10.5783L-0.691117 10.591L-0.686789 10.6037L0.259375 10.28ZM2.32938 3.17L1.58742 2.49955L1.58698 2.50004L2.32938 3.17ZM14.0594 3.2L13.3134 3.86603L13.3174 3.87044L14.0594 3.2ZM13.7594 14.6L13.0963 13.8514L13.0938 13.8537L13.7594 14.6ZM9.79938 17.27L9.43075 16.3404L9.42799 16.3415L9.79938 17.27ZM9.04938 17.57L8.67798 16.6415L8.04938 16.893V17.57H9.04938ZM9.04938 17.72H8.04938V18.72H9.04938V17.72ZM14.5394 18.72C15.3353 18.72 15.6794 18.8272 15.7724 18.8819L16.7864 17.1581C16.1994 16.8127 15.3835 16.72 14.5394 16.72V18.72ZM15.8322 18.9144C15.9353 18.966 15.9974 19.0303 16.0415 19.1773L17.9572 18.6027C17.7613 17.9497 17.3435 17.434 16.7266 17.1256L15.8322 18.9144ZM16.0458 19.1911C16.1222 19.433 16.1794 19.8282 16.1794 20.42H18.1794C18.1794 19.7318 18.1166 19.107 17.953 18.5889L16.0458 19.1911ZM16.1794 20.42C16.1794 20.978 16.1146 21.3475 16.031 21.5743L17.9077 22.2657C18.1042 21.7325 18.1794 21.102 18.1794 20.42H16.1794ZM16.0158 21.6189C15.9863 21.7122 15.957 21.7555 15.9439 21.7717C15.9336 21.7844 15.9272 21.7888 15.9165 21.7938L16.7623 23.6062C17.3672 23.3239 17.7372 22.8092 17.923 22.2211L16.0158 21.6189ZM15.8605 21.8221C15.6299 21.9479 15.2017 22.06 14.4794 22.06V24.06C15.357 24.06 16.1688 23.9321 16.8182 23.5779L15.8605 21.8221ZM14.4794 22.06H2.74938V24.06H14.4794V22.06ZM2.74938 22.06C2.31345 22.06 1.94991 21.9097 1.6097 21.5564L0.169055 22.9436C0.868844 23.6703 1.7453 24.06 2.74938 24.06V22.06ZM1.6097 21.5564C1.26093 21.1942 1.10938 20.8097 1.10938 20.36H-0.890625C-0.890625 21.3503 -0.522182 22.2258 0.169055 22.9436L1.6097 21.5564ZM1.10938 20.36C1.10938 19.5306 1.38648 18.7613 1.9918 18.0251L0.44695 16.7549C-0.42773 17.8187 -0.890625 19.0294 -0.890625 20.36H1.10938ZM1.99034 18.0269C2.67591 17.197 3.49901 16.4901 4.46624 15.9061L3.43251 14.1939C2.27974 14.8899 1.28284 15.743 0.448413 16.7531L1.99034 18.0269ZM4.47793 15.8989C5.53024 15.2437 6.58235 14.6085 7.63426 13.9932L6.62449 12.2668C5.5564 12.8915 4.48851 13.5363 3.42082 14.2011L4.47793 15.8989ZM7.64624 13.9861C8.77587 13.304 9.75174 12.5266 10.5635 11.649L9.09528 10.291C8.42701 11.0134 7.60288 11.676 6.61251 12.2739L7.64624 13.9861ZM10.5544 11.6587C11.4488 10.7172 11.9694 9.63156 11.9694 8.42H9.96938C9.96938 9.00844 9.72991 9.62279 9.10438 10.2812L10.5544 11.6587ZM11.9694 8.42C11.9694 8.02563 11.8286 7.61896 11.6755 7.26918L9.84322 8.07082C9.9005 8.20174 9.93488 8.29915 9.95391 8.36713C9.97418 8.43951 9.96938 8.45158 9.96938 8.42H11.9694ZM11.6841 7.28925C11.5154 6.87958 11.3015 6.50085 11.0227 6.19104L9.53608 7.52896C9.61725 7.61915 9.72339 7.78042 9.8347 8.05075L11.6841 7.28925ZM11.0881 6.27183C10.7995 5.87502 10.3865 5.58551 9.94659 5.36557L9.05216 7.15443C9.33228 7.29449 9.43923 7.40498 9.47064 7.44817L11.0881 6.27183ZM9.94659 5.36557C9.38942 5.08699 8.71267 4.99 7.99938 4.99V6.99C8.56608 6.99 8.88933 7.07301 9.05216 7.15443L9.94659 5.36557ZM7.99938 4.99C7.07682 4.99 6.26718 5.34798 5.61227 6.00289L7.02648 7.41711C7.33157 7.11202 7.64193 6.99 7.99938 6.99V4.99ZM5.61227 6.00289C5.05769 6.55747 4.64579 7.20919 4.54777 7.96066L6.53098 8.21934C6.55296 8.0508 6.66106 7.78253 7.02648 7.4171L5.61227 6.00289ZM4.55416 7.91866L4.43416 8.60866L6.40459 8.95134L6.52459 8.26134L4.55416 7.91866ZM4.41938 8.78V8.96H6.41938V8.78H4.41938ZM4.41938 8.96C4.41938 9.38577 4.39888 9.64254 4.37551 9.77111L6.34325 10.1289C6.39987 9.81746 6.41938 9.41423 6.41938 8.96H4.41938ZM4.36348 9.85946C4.36101 9.88661 4.34008 9.9957 4.22113 10.2039L5.95762 11.1961C6.15867 10.8443 6.31774 10.4534 6.35527 10.0405L4.36348 9.85946ZM4.24138 10.17C4.26498 10.1322 4.24526 10.2042 3.98529 10.2842C3.72755 10.3635 3.32765 10.42 2.74938 10.42V12.42C3.4311 12.42 4.0512 12.3565 4.57346 12.1958C5.09349 12.0358 5.61377 11.7478 5.93737 11.23L4.24138 10.17ZM2.74938 10.42C1.42359 10.42 1.23985 10.0566 1.20554 9.95631L-0.686789 10.6037C-0.201097 12.0234 1.27516 12.42 2.74938 12.42V10.42ZM1.21386 9.98172C1.16182 9.81523 1.10938 9.43401 1.10938 8.75H-0.890625C-0.890625 9.46599 -0.843074 10.1048 -0.695105 10.5783L1.21386 9.98172ZM1.10938 8.75C1.10938 6.93378 1.74635 5.30867 3.07177 3.83996L1.58698 2.50004C-0.0475982 4.31133 -0.890625 6.40621 -0.890625 8.75H1.10938ZM3.07133 3.84044C4.36677 2.40683 6.03904 1.68 8.17937 1.68V-0.320001C5.51971 -0.320001 3.29198 0.613165 1.58742 2.49955L3.07133 3.84044ZM8.17937 1.68C10.3384 1.68 12.0185 2.41571 13.3134 3.86602L14.8053 2.53398C13.1002 0.624285 10.8603 -0.320001 8.17937 -0.320001V1.68ZM13.3174 3.87044C14.6596 5.35581 15.3094 7.01982 15.3094 8.9H17.3094C17.3094 6.50018 16.4591 4.36419 14.8013 2.52955L13.3174 3.87044ZM15.3094 8.9C15.3094 9.88798 15.094 10.8174 14.6615 11.6998L16.4573 12.5802C17.0247 11.4226 17.3094 10.192 17.3094 8.9H15.3094ZM14.6615 11.6998C14.2069 12.6272 13.6801 13.3343 13.0963 13.8514L14.4224 15.3486C15.2386 14.6257 15.9119 13.6928 16.4573 12.5802L14.6615 11.6998ZM13.0938 13.8537C11.6559 15.1361 10.4368 15.9415 9.43075 16.3404L10.168 18.1996C11.4819 17.6785 12.9029 16.7039 14.425 15.3463L13.0938 13.8537ZM9.42799 16.3415L8.67798 16.6415L9.42077 18.4985L10.1708 18.1985L9.42799 16.3415ZM8.04938 17.57V17.72H10.0494V17.57H8.04938ZM9.04938 18.72H14.5394V16.72H9.04938V18.72Z" fill="#7DACFF"/>
</svg>
