<svg width="17" height="24" viewBox="0 0 17 24" fill="none" xmlns="http://www.w3.org/2000/svg">
<path d="M14.044 11.3L13.5968 10.4056L13.044 10.682V11.3H14.044ZM14.044 11.51H13.044V12.128L13.5968 12.4044L14.044 11.51ZM14.914 12.17L14.2472 12.9152L14.2678 12.9336L14.2893 12.9509L14.914 12.17ZM15.874 13.13L15.074 13.73L15.0808 13.739L15.0877 13.7478L15.874 13.13ZM14.464 21.32L15.1172 22.0773L15.1225 22.0726L14.464 21.32ZM2.43402 21.29L1.76499 22.0334L1.77552 22.0426L2.43402 21.29ZM0.844023 19.16L-0.0504037 19.6072L-0.046375 19.6153L-0.0422019 19.6233L0.844023 19.16ZM0.514024 18.38L-0.466557 18.5761L-0.457327 18.6223L-0.443803 18.6673L0.514024 18.38ZM0.454023 18.08L1.4346 17.8839L1.42239 17.8228L1.40271 17.7638L0.454023 18.08ZM4.65402 15.02L4.04431 15.8126L4.04657 15.8144L4.65402 15.02ZM5.55402 16.58L6.5085 16.2817L6.50569 16.2727L6.50271 16.2638L5.55402 16.58ZM7.20402 18.02L6.86901 18.9622L6.88585 18.9682L6.90289 18.9736L7.20402 18.02ZM10.804 17.57L11.4472 18.3357L11.456 18.3283L11.4647 18.3207L10.804 17.57ZM10.804 14.69L10.1455 15.4426L10.1621 15.4571L10.1793 15.4709L10.804 14.69ZM7.71402 14L7.87842 13.0136L7.71402 14ZM6.93402 13.7L7.43016 12.8318L7.39958 12.8143L7.36784 12.799L6.93402 13.7ZM7.23402 8.9L6.95186 7.94063L6.92699 7.94795L6.90254 7.95654L7.23402 8.9ZM10.474 6.38L9.78527 7.105H9.78527L10.474 6.38ZM7.11402 6.17L6.61789 5.30175L6.61788 5.30176L7.11402 6.17ZM6.33402 6.89L7.22845 7.33721L7.24385 7.30641L7.2571 7.27462L6.33402 6.89ZM6.15402 7.25L5.2596 6.80278L5.25233 6.81732L5.24553 6.83209L6.15402 7.25ZM2.52402 8.21L3.03852 7.35251L3.03216 7.34869L3.02574 7.34497L2.52402 8.21ZM1.71402 4.16L0.80021 3.75386L0.799488 3.75549L1.71402 4.16ZM2.37402 3.23L3.14798 3.86324L3.15485 3.85485L3.16153 3.84631L2.37402 3.23ZM3.60402 2.03L3.02601 1.21397L3.01776 1.21982L3.00963 1.22582L3.60402 2.03ZM5.58402 1.1L5.27443 0.149105L5.2678 0.151316L5.58402 1.1ZM8.43402 1.68C10.6962 1.68 12.3607 2.31767 13.552 3.4921L14.9561 2.06789C13.3073 0.442327 11.0918 -0.320001 8.43402 -0.320001V1.68ZM13.552 3.4921C14.809 4.73146 15.384 6.06419 15.384 7.52H17.384C17.384 5.45581 16.539 3.62853 14.9561 2.06789L13.552 3.4921ZM15.384 7.52C15.384 8.23689 15.2249 8.79754 14.9488 9.24364C14.6725 9.68989 14.2407 10.0836 13.5968 10.4056L14.4912 12.1944C15.4074 11.7364 16.1455 11.1101 16.6493 10.2964C17.1531 9.48246 17.384 8.54311 17.384 7.52H15.384ZM13.044 11.3V11.51H15.044V11.3H13.044ZM13.5968 12.4044C13.6668 12.4394 13.8709 12.5786 14.2472 12.9152L15.5808 11.4248C15.1971 11.0814 14.8213 10.7806 14.4912 10.6156L13.5968 12.4044ZM14.2893 12.9509C14.6409 13.2321 14.8964 13.4932 15.074 13.73L16.674 12.53C16.3716 12.1268 15.9871 11.7479 15.5387 11.3891L14.2893 12.9509ZM15.0877 13.7478C15.6076 14.4095 15.864 15.1514 15.864 16.01H17.864C17.864 14.7086 17.4604 13.5305 16.6603 12.5122L15.0877 13.7478ZM15.864 16.01C15.864 17.8638 15.1869 19.3587 13.8055 20.5674L15.1225 22.0726C16.9412 20.4813 17.864 18.4362 17.864 16.01H15.864ZM13.8109 20.5628C12.4187 21.7636 10.6513 22.39 8.43402 22.39V24.39C11.0568 24.39 13.3094 23.6364 15.1172 22.0772L13.8109 20.5628ZM8.43402 22.39C6.24288 22.39 4.4866 21.7572 3.09253 20.5374L1.77552 22.0426C3.58145 23.6228 5.82517 24.39 8.43402 24.39V22.39ZM3.10299 20.5467C2.60925 20.1023 2.14734 19.4947 1.73025 18.6967L-0.0422019 19.6233C0.460705 20.5853 1.0588 21.3977 1.76506 22.0333L3.10299 20.5467ZM1.73845 18.7128C1.58877 18.4134 1.50777 18.2124 1.47185 18.0927L-0.443803 18.6673C-0.359722 18.9476 -0.220726 19.2666 -0.0504037 19.6072L1.73845 18.7128ZM1.4946 18.1839L1.4346 17.8839L-0.526557 18.2761L-0.466557 18.5761L1.4946 18.1839ZM1.40271 17.7638C1.19747 17.1481 1.12402 16.7251 1.12402 16.46H-0.875977C-0.875977 17.0349 -0.72942 17.6919 -0.49466 18.3962L1.40271 17.7638ZM1.12402 16.46C1.12402 16.2253 1.1894 16.1215 1.36834 16.0156C1.62944 15.861 2.14996 15.72 3.06402 15.72V13.72C2.01809 13.72 1.06861 13.8689 0.349702 14.2944C-0.451358 14.7685 -0.875977 15.5347 -0.875977 16.46H1.12402ZM3.06402 15.72C3.42855 15.72 3.69386 15.7433 3.87612 15.7777C4.07456 15.8151 4.09433 15.8511 4.04431 15.8126L5.26373 14.2274C4.95372 13.9889 4.57849 13.8749 4.24693 13.8123C3.89919 13.7467 3.49949 13.72 3.06402 13.72V15.72ZM4.04657 15.8144C4.1375 15.8839 4.35944 16.1585 4.60534 16.8962L6.50271 16.2638C6.22861 15.4415 5.85055 14.6761 5.26147 14.2256L4.04657 15.8144ZM4.59954 16.8783C4.92866 17.9315 5.80579 18.5842 6.86901 18.9622L7.53903 17.0778C6.80226 16.8158 6.57938 16.5085 6.5085 16.2817L4.59954 16.8783ZM6.90289 18.9736C7.39401 19.1287 7.9173 19.2 8.46402 19.2V17.2C8.09075 17.2 7.77404 17.1513 7.50515 17.0664L6.90289 18.9736ZM8.46402 19.2C9.62244 19.2 10.6845 18.9764 11.4472 18.3357L10.1608 16.8043C9.92357 17.0036 9.42561 17.2 8.46402 17.2V19.2ZM11.4647 18.3207C12.1258 17.7389 12.554 16.9928 12.554 16.1H10.554C10.554 16.2872 10.4822 16.5211 10.1434 16.8193L11.4647 18.3207ZM12.554 16.1C12.554 15.1984 12.1168 14.4596 11.4287 13.9091L10.1793 15.4709C10.4913 15.7204 10.554 15.9216 10.554 16.1H12.554ZM11.4625 13.9374C10.7875 13.3468 9.96884 13.06 9.06402 13.06V15.06C9.51921 15.06 9.8605 15.1932 10.1455 15.4426L11.4625 13.9374ZM9.06402 13.06C8.3963 13.06 8.02535 13.0381 7.87842 13.0136L7.54962 14.9864C7.88269 15.0419 8.41175 15.06 9.06402 15.06V13.06ZM7.87842 13.0136C7.78621 12.9982 7.63893 12.9511 7.43016 12.8318L6.43789 14.5682C6.78912 14.7689 7.16183 14.9218 7.54963 14.9864L7.87842 13.0136ZM7.36784 12.799C7.41253 12.8205 7.34999 12.8242 7.27019 12.5966C7.18747 12.3607 7.12402 11.9739 7.12402 11.39H5.12402C5.12402 12.0861 5.19558 12.7243 5.38286 13.2584C5.57305 13.8008 5.91551 14.3195 6.50021 14.601L7.36784 12.799ZM7.12402 11.39C7.12402 10.7621 7.20944 10.3612 7.31488 10.1247C7.4073 9.91734 7.4967 9.86764 7.56551 9.84346L6.90254 7.95654C5.50223 8.44854 5.12402 9.93019 5.12402 11.39H7.12402ZM7.51619 9.85937C7.7136 9.8013 8.11562 9.75 8.79402 9.75V7.75C8.07243 7.75 7.43444 7.7987 6.95186 7.94063L7.51619 9.85937ZM8.79402 9.75C9.6071 9.75 10.3684 9.65109 10.9606 9.34719C11.2712 9.1878 11.5609 8.95874 11.7701 8.63661C11.9826 8.30947 12.074 7.94475 12.074 7.58H10.074C10.074 7.60526 10.0704 7.58178 10.0929 7.54714C10.1122 7.51751 10.1169 7.5322 10.0475 7.5678C9.87968 7.65391 9.50094 7.75 8.79402 7.75V9.75ZM12.074 7.58C12.074 6.8073 11.6962 6.1618 11.1628 5.655L9.78527 7.105C10.0518 7.3582 10.074 7.5127 10.074 7.58H12.074ZM11.1628 5.655C10.5256 5.04972 9.68962 4.81 8.79402 4.81V6.81C9.33843 6.81 9.62241 6.95028 9.78527 7.105L11.1628 5.655ZM8.79402 4.81C7.99295 4.81 7.24173 4.94527 6.61789 5.30175L7.61016 7.03824C7.82632 6.91472 8.19509 6.81 8.79402 6.81V4.81ZM6.61788 5.30176C6.14949 5.56941 5.64289 5.94873 5.41095 6.50538L7.2571 7.27462C7.23549 7.32649 7.22211 7.32037 7.2823 7.2648C7.3408 7.21081 7.4436 7.13342 7.61016 7.03824L6.61788 5.30176ZM5.4396 6.44279L5.2596 6.80278L7.04845 7.69721L7.22845 7.33721L5.4396 6.44279ZM5.24553 6.83209C5.06253 7.22993 4.87289 7.45464 4.71017 7.57791C4.56102 7.6909 4.39504 7.75 4.17402 7.75V9.75C4.813 9.75 5.40702 9.5591 5.91788 9.17209C6.41516 8.79536 6.78552 8.27007 7.06251 7.6679L5.24553 6.83209ZM4.17402 7.75C3.91369 7.75 3.54229 7.65477 3.03852 7.35251L2.00953 9.06749C2.70575 9.48523 3.43436 9.75 4.17402 9.75V7.75ZM3.02574 7.34497C2.16061 6.84319 2.02402 6.44026 2.02402 6.2H0.0240235C0.0240235 7.47974 0.887442 8.41681 2.02231 9.07503L3.02574 7.34497ZM2.02402 6.2C2.02402 6.21773 2.03124 6.10319 2.1438 5.7704C2.24529 5.47037 2.4046 5.07085 2.62856 4.56451L0.799488 3.75549C0.563449 4.28915 0.37776 4.74963 0.249242 5.12959C0.131803 5.47681 0.0240235 5.86227 0.0240235 6.2H2.02402ZM2.62784 4.56614C2.62638 4.56941 2.6545 4.5122 2.75453 4.37125C2.84657 4.24155 2.97613 4.07328 3.14798 3.86324L1.60007 2.59676C1.25249 3.02157 0.943457 3.43156 0.800212 3.75386L2.62784 4.56614ZM3.16153 3.84631C3.46711 3.45584 3.8125 3.11942 4.19842 2.83417L3.00963 1.22582C2.47555 1.62058 2.00093 2.08416 1.58652 2.61369L3.16153 3.84631ZM4.18204 2.84602C4.5522 2.58383 5.11146 2.31161 5.90025 2.04868L5.2678 0.151316C4.37658 0.448387 3.61585 0.796168 3.02601 1.21397L4.18204 2.84602ZM5.89361 2.05087C6.63993 1.80788 7.4837 1.68 8.43402 1.68V-0.320001C7.30434 -0.320001 6.24812 -0.167884 5.27444 0.149128L5.89361 2.05087Z" fill="#7DACFF"/>
</svg>
