<svg width="17" height="23" viewBox="0 0 17 23" fill="none" xmlns="http://www.w3.org/2000/svg">
<path d="M11.673 1.73L12.5413 2.22614L12.5413 2.22614L11.673 1.73ZM12.483 1.16L12.7375 2.12707L12.754 2.12273L12.7704 2.11783L12.483 1.16ZM15.543 1.19L15.1973 2.12834L15.2194 2.13649L15.2419 2.14358L15.543 1.19ZM16.353 1.82L15.4707 2.29059L15.4776 2.30346L15.4848 2.31614L16.353 1.82ZM16.623 2.6L15.6265 2.68304L15.6299 2.72393L15.6367 2.7644L16.623 2.6ZM16.383 22.07L15.4981 21.6043L15.4933 21.6135L15.4886 21.6228L16.383 22.07ZM15.513 22.79L15.2257 21.8322L15.2188 21.8342L15.2119 21.8364L15.513 22.79ZM12.693 22.82L12.9752 21.8606L12.693 22.82ZM11.913 22.46L12.527 21.6706H12.527L11.913 22.46ZM11.523 21.86L12.4788 21.5659L12.4728 21.5464L12.466 21.5272L11.523 21.86ZM11.343 16.64H12.343V15.64H11.343V16.64ZM0.723047 15.5L-0.231433 15.7983L-0.227445 15.811L-0.223117 15.8237L0.723047 15.5ZM0.663047 13.01L-0.307605 12.7695L-0.309537 12.7773L-0.311344 12.7851L0.663047 13.01ZM3.15305 2.96L2.18536 2.70756L2.1824 2.71951L3.15305 2.96ZM3.45305 1.91L2.52997 1.52538L2.51592 1.55911L2.50436 1.59377L3.45305 1.91ZM3.99305 1.22L3.37522 0.433682L3.36096 0.444893L3.34711 0.456613L3.99305 1.22ZM6.42305 1.1L6.15341 2.06299L6.1611 2.06508L6.42305 1.1ZM8.31305 4.28L9.20747 4.72721L9.25249 4.63718L9.27866 4.53997L8.31305 4.28ZM8.28305 4.37L9.25319 4.61253L9.28305 4.4931V4.37H8.28305ZM6.45305 11.69L5.4829 11.4475L5.17227 12.69H6.45305V11.69ZM11.343 11.69V12.69H12.343V11.69H11.343ZM11.373 2.48L10.3892 2.30112L10.3812 2.34502L10.3772 2.38946L11.373 2.48ZM12.5413 2.22614C12.5467 2.21662 12.5531 2.20793 12.571 2.1953C12.5922 2.1804 12.6412 2.15242 12.7375 2.12707L12.2286 0.192924C11.6496 0.345275 11.1261 0.671642 10.8048 1.23386L12.5413 2.22614ZM12.7704 2.11783C13.0438 2.03579 13.448 1.98 14.013 1.98V-0.0200005C13.338 -0.0200005 12.7223 0.0442057 12.1957 0.202172L12.7704 2.11783ZM14.013 1.98C14.5955 1.98 14.9733 2.04578 15.1973 2.12834L15.8888 0.251655C15.3528 0.0542154 14.7106 -0.0200005 14.013 -0.0200005V1.98ZM15.2419 2.14358C15.4186 2.19937 15.4548 2.26084 15.4707 2.29059L17.2354 1.34941C16.9313 0.779157 16.4275 0.420627 15.8442 0.236416L15.2419 2.14358ZM15.4848 2.31614C15.5957 2.51026 15.622 2.62897 15.6265 2.68304L17.6196 2.51696C17.5841 2.09103 17.4304 1.68973 17.2213 1.32386L15.4848 2.31614ZM15.6367 2.7644C15.6629 2.92161 15.683 3.20572 15.683 3.65H17.683C17.683 3.17427 17.6632 2.75839 17.6094 2.4356L15.6367 2.7644ZM15.683 3.65V20.33H17.683V3.65H15.683ZM15.683 20.33C15.683 21.06 15.5835 21.4421 15.4981 21.6043L17.268 22.5357C17.5826 21.9379 17.683 21.16 17.683 20.33H15.683ZM15.4886 21.6228C15.4371 21.7259 15.3728 21.788 15.2257 21.8322L15.8004 23.7478C16.4533 23.552 16.969 23.1341 17.2775 22.5172L15.4886 21.6228ZM15.2119 21.8364C14.9627 21.9151 14.593 21.97 14.073 21.97V23.97C14.7131 23.97 15.3034 23.9049 15.8142 23.7436L15.2119 21.8364ZM14.073 21.97C13.5361 21.97 13.1841 21.9221 12.9752 21.8606L12.4109 23.7794C12.882 23.9179 13.45 23.97 14.073 23.97V21.97ZM12.9752 21.8606C12.6961 21.7785 12.5688 21.7031 12.527 21.6706L11.2991 23.2494C11.6173 23.4969 12.01 23.6614 12.4109 23.7794L12.9752 21.8606ZM12.527 21.6706C12.5289 21.6721 12.5261 21.671 12.519 21.66C12.5111 21.6478 12.4953 21.6194 12.4788 21.5659L10.5673 22.1541C10.6957 22.5716 10.9277 22.9605 11.2991 23.2494L12.527 21.6706ZM12.466 21.5272C12.4045 21.3527 12.343 20.9725 12.343 20.3H10.343C10.343 21.0275 10.4016 21.6872 10.5801 22.1928L12.466 21.5272ZM12.343 20.3V16.64H10.343V20.3H12.343ZM11.343 15.64H3.21305V17.64H11.343V15.64ZM3.21305 15.64C1.88726 15.64 1.70352 15.2766 1.66921 15.1763L-0.223117 15.8237C0.262576 17.2434 1.73883 17.64 3.21305 17.64V15.64ZM1.67753 15.2017C1.62037 15.0188 1.57305 14.7026 1.57305 14.21H-0.426953C-0.426953 14.7974 -0.374279 15.3412 -0.231433 15.7983L1.67753 15.2017ZM1.57305 14.21C1.57305 13.6852 1.60411 13.3793 1.63744 13.2349L-0.311344 12.7851C-0.398021 13.1607 -0.426953 13.6548 -0.426953 14.21H1.57305ZM1.6337 13.2505L4.1237 3.20049L2.1824 2.71951L-0.307605 12.7695L1.6337 13.2505ZM4.12066 3.21242C4.23901 2.75877 4.33238 2.43427 4.40173 2.22623L2.50436 1.59377C2.41371 1.86573 2.30709 2.24123 2.18543 2.70758L4.12066 3.21242ZM4.37612 2.29461C4.39917 2.23931 4.46393 2.13151 4.63899 1.98339L3.34711 0.456613C3.00216 0.748488 2.70693 1.10069 2.52997 1.52538L4.37612 2.29461ZM4.61087 2.00632C4.6844 1.94854 4.80529 1.89 5.04305 1.89V-0.110002C4.4408 -0.110002 3.86169 0.0514555 3.37522 0.433682L4.61087 2.00632ZM5.04305 1.89C5.3534 1.89 5.72139 1.94199 6.15342 2.06296L6.69268 0.137035C6.12471 -0.0219965 5.57269 -0.110002 5.04305 -0.110002V1.89ZM6.1611 2.06508C6.78148 2.23347 7.13678 2.43251 7.32328 2.60303C7.47866 2.74509 7.52305 2.86737 7.52305 3.02H9.52305C9.52305 2.27263 9.21743 1.62491 8.67282 1.12697C8.15932 0.657485 7.46461 0.346528 6.685 0.134918L6.1611 2.06508ZM7.52305 3.02C7.52305 3.21271 7.47787 3.53554 7.34743 4.02003L9.27866 4.53997C9.42823 3.98445 9.52305 3.46728 9.52305 3.02H7.52305ZM7.41862 3.83279C7.3947 3.88062 7.28305 4.09517 7.28305 4.37H9.28305C9.28305 4.44591 9.27384 4.50758 9.2655 4.54924C9.25696 4.59193 9.24687 4.62581 9.23923 4.64873C9.22456 4.69275 9.21072 4.72072 9.20747 4.72721L7.41862 3.83279ZM7.3129 4.12746L5.4829 11.4475L7.42319 11.9325L9.25319 4.61253L7.3129 4.12746ZM6.45305 12.69H11.343V10.69H6.45305V12.69ZM12.343 11.69V3.5H10.343V11.69H12.343ZM12.343 3.5C12.343 3.04524 12.3533 2.74298 12.3689 2.57054L10.3772 2.38946C10.3528 2.65702 10.343 3.03476 10.343 3.5H12.343ZM12.3569 2.65888C12.3698 2.58795 12.4148 2.44741 12.5413 2.22614L10.8048 1.23386C10.6112 1.57258 10.4563 1.93205 10.3892 2.30112L12.3569 2.65888Z" fill="#7DACFF"/>
</svg>
