<svg width="16" height="24" viewBox="0 0 16 24" fill="none" xmlns="http://www.w3.org/2000/svg">
<path d="M4.7259 0.95L4.73248 -0.0500002H4.7259V0.95ZM9.2859 0.98L9.27932 1.98H9.2859V0.98ZM13.1559 1.04L12.977 2.02387L13.0209 2.03185L13.0654 2.03589L13.1559 1.04ZM13.9359 1.31L13.4653 2.19241L13.4756 2.19775L13.9359 1.31ZM13.9959 5.9L13.5345 5.01278L13.517 5.02192L13.4998 5.03176L13.9959 5.9ZM13.2459 6.2L13.3454 7.19504L13.3853 7.19105L13.4248 7.18387L13.2459 6.2ZM7.0359 6.23V5.23H6.18877L6.0495 6.0656L7.0359 6.23ZM6.7359 8.51L5.74362 8.38597L5.57468 9.73753L6.91478 9.49387L6.7359 8.51ZM12.9159 10.61L12.2281 11.336L12.2332 11.3407L12.9159 10.61ZM13.0359 21.2L13.7526 21.8974L13.7573 21.8925L13.0359 21.2ZM2.6259 22.01L2.08265 22.8496L2.08874 22.8535L2.09488 22.8574L2.6259 22.01ZM1.8759 21.44L2.58301 20.7329L2.55946 20.7093L2.5344 20.6874L1.8759 21.44ZM1.6359 21.23L2.29441 20.4774L2.29159 20.475L1.6359 21.23ZM1.6059 17.48L2.32237 18.1776L2.33432 18.1653L2.34584 18.1527L1.6059 17.48ZM5.3559 17.45L6.11515 16.7992L6.05805 16.7326L5.99022 16.6769L5.3559 17.45ZM9.1959 17.51L8.54228 16.7532L8.53354 16.7607L8.52499 16.7685L9.1959 17.51ZM9.1359 14.36L8.47972 15.1146L8.49712 15.1297L8.5152 15.144L9.1359 14.36ZM6.1059 14.3L6.75436 15.0612L6.78477 15.0353L6.81301 15.0071L6.1059 14.3ZM2.5659 14.42L2.08877 15.2989L2.09914 15.3044L2.5659 14.42ZM1.1859 13.52L0.448745 14.1957L0.463427 14.2117L0.478792 14.2271L1.1859 13.52ZM1.4559 7.94L0.464906 7.80608L1.4559 7.94ZM2.0859 3.32L3.07229 3.4844L3.07229 3.4844L2.0859 3.32ZM2.7159 1.88L1.9159 1.28L1.89924 1.3022L1.88385 1.3253L2.7159 1.88ZM3.4959 1.25L3.96379 2.13379L3.97271 2.12906L3.98154 2.12416L3.4959 1.25ZM4.71932 1.94998L9.27932 1.97998L9.29248 -0.0199795L4.73248 -0.0499792L4.71932 1.94998ZM9.2859 1.98H12.1059V-0.0200005H9.2859V1.98ZM12.1059 1.98C12.5779 1.98 12.8514 2.00103 12.977 2.02387L13.3348 0.0561285C13.0204 -0.00103474 12.5939 -0.0200005 12.1059 -0.0200005V1.98ZM13.0654 2.03589C13.1004 2.03908 13.2262 2.0648 13.4653 2.19235L14.4065 0.427645C14.0456 0.235195 13.6514 0.0809231 13.2464 0.0441055L13.0654 2.03589ZM13.4756 2.19775C13.4391 2.17883 13.5112 2.18866 13.5959 2.43978C13.6823 2.69565 13.7459 3.10466 13.7459 3.71H15.7459C15.7459 2.99534 15.6745 2.34435 15.4909 1.80022C15.3056 1.25134 14.9727 0.721171 14.3962 0.422244L13.4756 2.19775ZM13.7459 3.71C13.7459 4.25394 13.6875 4.614 13.6123 4.83351C13.5394 5.04662 13.4835 5.03932 13.5345 5.01278L14.4573 6.78722C15.0083 6.50067 15.3274 5.99838 15.5045 5.48149C15.6793 4.971 15.7459 4.36606 15.7459 3.71H13.7459ZM13.4998 5.03176C13.2785 5.1582 13.1379 5.20323 13.067 5.21613L13.4248 7.18387C13.7939 7.11677 14.1533 6.9618 14.492 6.76824L13.4998 5.03176ZM13.1464 5.20496C12.9996 5.21965 12.7221 5.23 12.2859 5.23V7.23C12.7297 7.23 13.0922 7.22035 13.3454 7.19504L13.1464 5.20496ZM12.2859 5.23H7.0359V7.23H12.2859V5.23ZM6.0495 6.0656C6.00526 6.33108 5.90222 7.11719 5.74362 8.38597L7.72818 8.63404C7.88958 7.34281 7.98654 6.60892 8.02229 6.3944L6.0495 6.0656ZM6.91478 9.49387C7.04038 9.47103 7.31392 9.45 7.7859 9.45V7.45C7.29788 7.45 6.87141 7.46897 6.55701 7.52613L6.91478 9.49387ZM7.7859 9.45C9.40296 9.45 10.8733 10.0524 12.2282 11.336L13.6036 9.88405C11.9185 8.28762 9.96884 7.45 7.7859 7.45V9.45ZM12.2332 11.3407C13.5508 12.5716 14.1959 14.057 14.1959 15.86H16.1959C16.1959 13.503 15.321 11.4884 13.5986 9.87926L12.2332 11.3407ZM14.1959 15.86C14.1959 17.6592 13.5776 19.1917 12.3145 20.5075L13.7573 21.8925C15.3742 20.2083 16.1959 18.1808 16.1959 15.86H14.1959ZM12.3192 20.5026C11.075 21.7814 9.54694 22.42 7.6659 22.42V24.42C10.0649 24.42 12.1168 23.5786 13.7526 21.8974L12.3192 20.5026ZM7.6659 22.42C5.98374 22.42 4.4895 21.9977 3.15691 21.1626L2.09488 22.8574C3.7623 23.9023 5.62806 24.42 7.6659 24.42V22.42ZM3.16915 21.1704C2.84976 20.9638 2.66881 20.8187 2.58301 20.7329L1.16879 22.1471C1.40299 22.3813 1.72204 22.6162 2.08265 22.8496L3.16915 21.1704ZM2.5344 20.6874L2.2944 20.4774L0.977394 21.9826L1.21739 22.1926L2.5344 20.6874ZM2.29159 20.475C1.57685 19.8543 1.4959 19.5106 1.4959 19.43H-0.504102C-0.504102 20.4294 0.174943 21.2857 0.980212 21.985L2.29159 20.475ZM1.4959 19.43C1.4959 19.3087 1.61125 18.908 2.32237 18.1776L0.889427 16.7824C0.120549 17.572 -0.504102 18.4713 -0.504102 19.43H1.4959ZM2.34584 18.1527C2.86626 17.5802 3.19762 17.49 3.3459 17.49V15.49C2.37417 15.49 1.54554 16.0598 0.865959 16.8073L2.34584 18.1527ZM3.3459 17.49C3.55094 17.49 3.99301 17.6253 4.72158 18.2231L5.99022 16.6769C5.15878 15.9947 4.26085 15.49 3.3459 15.49V17.49ZM4.59664 18.1008C5.23493 18.8455 6.21447 19.08 7.2159 19.08V17.08C6.45732 17.08 6.19687 16.8945 6.11515 16.7992L4.59664 18.1008ZM7.2159 19.08C8.22493 19.08 9.18095 18.8721 9.86681 18.2515L8.52499 16.7685C8.37085 16.9079 8.00687 17.08 7.2159 17.08V19.08ZM9.84952 18.2668C10.5406 17.67 10.8559 16.8568 10.8559 15.95H8.8559C8.8559 16.3632 8.73119 16.59 8.54228 16.7532L9.84952 18.2668ZM10.8559 15.95C10.8559 15.003 10.5049 14.1683 9.7566 13.576L8.5152 15.144C8.72692 15.3117 8.8559 15.537 8.8559 15.95H10.8559ZM9.79208 13.6054C9.15329 13.0499 8.39126 12.76 7.5459 12.76V14.76C7.90053 14.76 8.1985 14.8701 8.47972 15.1146L9.79208 13.6054ZM7.5459 12.76C6.73164 12.76 5.97953 13.0122 5.39879 13.5929L6.81301 15.0071C6.95227 14.8678 7.16015 14.76 7.5459 14.76V12.76ZM5.45743 13.5388C5.04878 13.8869 4.72036 13.99 4.4559 13.99V15.99C5.31144 15.99 6.08302 15.6331 6.75436 15.0612L5.45743 13.5388ZM4.4559 13.99C4.14041 13.99 3.67578 13.875 3.03266 13.5356L2.09914 15.3044C2.89601 15.725 3.69139 15.99 4.4559 15.99V13.99ZM3.04299 13.5411C2.33598 13.1573 1.99779 12.9177 1.89301 12.8129L0.478792 14.2271C0.814003 14.5623 1.39581 14.9227 2.08881 15.2989L3.04299 13.5411ZM1.92305 12.8443C1.87318 12.7899 1.85713 12.7575 1.85371 12.7498C1.85209 12.7461 1.85293 12.7471 1.85404 12.7523C1.85519 12.7576 1.8559 12.7639 1.8559 12.77H-0.144102C-0.144102 13.339 0.10411 13.8198 0.448745 14.1957L1.92305 12.8443ZM1.8559 12.77C1.8559 12.783 1.85566 12.7658 1.86179 12.6926C1.86715 12.6286 1.87564 12.5412 1.88773 12.4282C1.91184 12.2027 1.94855 11.891 1.99827 11.4908C2.09761 10.6911 2.24704 9.55278 2.44689 8.07392L0.464906 7.80608C0.264753 9.28722 0.114189 10.4339 0.0135261 11.2442C-0.0815221 12.0094 -0.144102 12.5606 -0.144102 12.77H1.8559ZM2.44689 8.07392C2.64688 6.59402 2.79931 5.4695 2.90423 4.70011C2.9567 4.31533 2.99721 4.01992 3.02581 3.81349C3.04012 3.71018 3.05135 3.62994 3.05955 3.57225C3.06365 3.54335 3.06688 3.52098 3.06928 3.50463C3.07204 3.48587 3.07279 3.4814 3.07229 3.4844L1.0995 3.1556C1.07614 3.29581 0.862576 4.86332 0.464906 7.80608L2.44689 8.07392ZM3.07229 3.4844C3.06942 3.50162 3.07255 3.47731 3.10208 3.38873C3.12879 3.30861 3.16867 3.20064 3.22438 3.06139L1.36742 2.31861C1.25061 2.61065 1.13966 2.91467 1.0995 3.1556L3.07229 3.4844ZM3.22438 3.06139C3.32169 2.81811 3.43061 2.6107 3.54795 2.4347L1.88385 1.3253C1.68118 1.6293 1.51011 1.96189 1.36742 2.31861L3.22438 3.06139ZM3.5159 2.48C3.58617 2.3863 3.71856 2.26361 3.96379 2.13379L3.02801 0.366212C2.59324 0.596386 2.20562 0.893698 1.9159 1.28L3.5159 2.48ZM3.98154 2.12416C4.17622 2.016 4.41558 1.95 4.7259 1.95V-0.0500002C4.11622 -0.0500002 3.53558 0.0839977 3.01026 0.375842L3.98154 2.12416Z" fill="#7DACFF"/>
</svg>
