<svg width="51" height="37" viewBox="0 0 51 37" fill="none" xmlns="http://www.w3.org/2000/svg">
<g id="Algeria (DZ)" clip-path="url(#clip0_1_545)">
<path id="Vector" d="M25.116 0H50.116V37H25.116V0Z" fill="#F0F0F0"/>
<path id="Vector_2" d="M0.115967 0H25.116V37H0.115967V0Z" fill="#006233"/>
<path id="Vector_3" d="M33.2409 13.875C32.2091 12.1116 30.6163 10.7334 28.7096 9.95412C26.8029 9.17488 24.689 9.03817 22.6955 9.56519C20.7021 10.0922 18.9406 11.2535 17.6843 12.869C16.4279 14.4844 15.7469 16.4638 15.7469 18.5C15.7469 20.5362 16.4279 22.5156 17.6843 24.131C18.9406 25.7465 20.7021 26.9078 22.6955 27.4348C24.689 27.9618 26.8029 27.8251 28.7096 27.0459C30.6163 26.2667 32.2091 24.8884 33.2409 23.125C32.2698 24.3218 30.9458 25.1915 29.4521 25.6138C27.9583 26.036 26.3685 25.9901 24.9023 25.4824C23.4361 24.9746 22.166 24.0301 21.2674 22.7793C20.3689 21.5284 19.8863 20.0332 19.8863 18.5C19.8863 16.9669 20.3689 15.4716 21.2674 14.2208C22.166 12.9699 23.4361 12.0254 24.9023 11.5176C26.3685 11.0099 27.9583 10.964 29.4521 11.3863C30.9458 11.8085 32.2698 12.6782 33.2409 13.875ZM33.5534 18.5L25.1159 15.7867L30.3659 22.8783V14.1217L25.1159 21.2133L33.5534 18.5Z" fill="#D21034"/>
</g>
<defs>
<clipPath id="clip0_1_545">
<rect width="50" height="37" fill="white" transform="translate(0.115967)"/>
</clipPath>
</defs>
</svg>
