<svg width="51" height="37" viewBox="0 0 51 37" fill="none" xmlns="http://www.w3.org/2000/svg">
<g id="China (CN)" clip-path="url(#clip0_1_513)">
<path id="Vector" d="M0.144287 0H50.1443V37H0.144287V0Z" fill="#DE2910"/>
<path id="Vector_2" d="M6.14438 13.6899L9.51934 3.69995L12.8943 13.6899L3.89441 7.58495H15.1443L6.14438 13.6899Z" fill="#FFDE00"/>
<path id="Vector_3" d="M20.7827 3.89192L17.3095 4.65136L19.6263 1.98762L19.399 5.57266L17.4716 2.39882L20.7827 3.89192Z" fill="#FFDE00"/>
<path id="Vector_4" d="M24.2879 8.27516L20.788 7.64604L23.9705 6.07736L22.3518 9.29485L21.8228 5.63185L24.2879 8.27516Z" fill="#FFDE00"/>
<path id="Vector_5" d="M23.777 14.4239L20.8415 12.441L24.3957 12.2895L21.5878 14.5758L22.6189 11.0184L23.777 14.4239Z" fill="#FFDE00"/>
<path id="Vector_6" d="M19.3629 18.4419L17.4313 15.4943L20.7691 16.7089L17.2841 17.7478L19.6277 14.8594L19.3629 18.4419Z" fill="#FFDE00"/>
</g>
<defs>
<clipPath id="clip0_1_513">
<rect width="50" height="37" fill="white" transform="translate(0.144287)"/>
</clipPath>
</defs>
</svg>
