<svg width="32" height="32" viewBox="0 0 32 32" fill="none" xmlns="http://www.w3.org/2000/svg">
<g id="Frame">
<path id="Vector" d="M16.0009 14.1153L21.6577 8.45845C22.1784 7.93774 23.0226 7.93774 23.5433 8.45844C24.064 8.97914 24.064 9.82334 23.5433 10.344L17.8865 16.0009L23.5433 21.6577C24.064 22.1784 24.064 23.0226 23.5433 23.5433C23.0226 24.064 22.1784 24.064 21.6577 23.5433L16.0009 17.8865L10.344 23.5433C9.82334 24.064 8.97914 24.064 8.45844 23.5433C7.93774 23.0226 7.93774 22.1784 8.45845 21.6577L14.1153 16.0009L8.45843 10.344C7.93774 9.82335 7.93773 8.97913 8.45843 8.45843C8.97913 7.93773 9.82335 7.93773 10.344 8.45843L16.0009 14.1153Z" fill="#616263"/>
</g>
</svg>
