<svg width="50" height="37" viewBox="0 0 50 37" fill="none" xmlns="http://www.w3.org/2000/svg">
<g id="Egypt (EG)" clip-path="url(#clip0_1_158)">
<path id="Vector" d="M0 24.667H50V37.0003H0V24.667Z" fill="#1D1F21"/>
<path id="Vector_2" d="M0 12.333H50V24.6663H0V12.333Z" fill="white"/>
<path id="Vector_3" d="M0 0H50V12.3333H0V0Z" fill="#CE1126"/>
<g id="Group">
<path id="Vector_4" d="M25.0492 18.6473L29.3305 22.5693L29.0242 15.4468C28.9805 14.3676 28.0305 14.6143 27.3367 15.0028C26.643 15.4468 25.8367 15.4468 24.9992 15.157C24.1555 15.4468 23.3555 15.4468 22.6617 15.0028C21.9742 14.6143 21.018 14.3676 20.9742 15.4468L20.668 22.5693L25.0492 18.6473Z" fill="white" stroke="#C09300" stroke-width="0.13" stroke-linejoin="round"/>
<path id="a" d="M21.468 15.2002L21.168 22.1254L20.668 22.5694L20.9742 15.4469C21.1219 15.3351 21.2893 15.2515 21.468 15.2002ZM22.068 15.6935L21.818 21.4902L21.318 21.9959L21.618 15.305C21.718 15.4037 22.0117 15.6442 22.068 15.6935ZM22.6117 16.1375L22.418 20.9722L22.0117 21.3607L22.2617 15.8477C22.3617 15.9402 22.5617 16.082 22.6117 16.1375ZM23.2055 16.3842L23.0117 20.5035L22.618 20.818L22.8117 16.2362C22.9117 16.2794 23.1055 16.3842 23.2055 16.3842ZM23.7555 16.3842L23.6117 19.819L23.2055 20.2075L23.3617 16.4274C23.4555 16.4274 23.7117 16.4274 23.7555 16.3842Z" fill="#C09300"/>
<path id="Vector_5" d="M28.5301 15.2002L28.8301 22.1254L29.3301 22.5694L29.0238 15.4469C28.8762 15.3351 28.7087 15.2515 28.5301 15.2002ZM27.9301 15.6935L28.1801 21.4902L28.6801 21.9959L28.3801 15.305C28.2801 15.4037 27.9863 15.6442 27.9301 15.6935ZM27.3863 16.1375L27.5801 20.9722L27.9863 21.3607L27.7363 15.8477C27.6363 15.9402 27.4363 16.082 27.3863 16.1375ZM26.7926 16.3842L26.9863 20.5035L27.3801 20.818L27.1863 16.2362C27.0863 16.2794 26.8926 16.3842 26.7926 16.3842ZM26.2426 16.3842L26.3863 19.819L26.7926 20.2075L26.6363 16.4274C26.5426 16.4274 26.2863 16.4274 26.2426 16.3842Z" fill="#C09300"/>
<path id="Vector_6" d="M25.1992 19.4238L25.7992 22.1248L25.5992 22.3222L25.393 22.168L25.0555 19.763L25.1992 22.168L24.9992 22.4147L24.8055 22.168L24.9492 19.763L24.6055 22.168L24.3992 22.3222L24.1992 22.1248L24.7992 19.43H25.1992V19.4238Z" fill="#C09300" stroke="#C09300" stroke-width="0.11"/>
<g id="b">
<path id="Vector_7" d="M23.6547 18.2402L22.4609 22.4151L24.1047 22.6617L24.7984 19.5229L23.6547 18.2402Z" fill="white" stroke="#C09300" stroke-width="0.12" stroke-linejoin="round"/>
<path id="Vector_8" d="M23.2617 19.6707L23.4055 20.0099L24.1805 19.2822" stroke="#C09300" stroke-width="0.13" stroke-linejoin="round"/>
<path id="Vector_9" d="M23.7988 18.8076L23.9613 20.3061L24.4551 19.6648M24.2551 19.9115L24.5238 20.8365M24.6301 20.4973L24.0863 21.3113M24.2551 22.1253L24.0801 21.3113M24.0801 21.3113L23.9301 20.485L23.5613 20.9721L23.4051 20.411L22.8926 20.929L23.1488 21.8663L23.5113 21.2866L23.7051 21.8786L24.0801 21.3113Z" stroke="#C09300" stroke-width="0.13" stroke-linejoin="round"/>
<path id="Vector_10" d="M22.8105 22.3219L23.1418 21.8594L23.3543 22.5685L23.6543 22.0752L23.848 22.6672" stroke="#C09300" stroke-width="0.13" stroke-linejoin="round"/>
</g>
<g id="Group_2">
<path id="Vector_11" d="M26.3434 18.2402L27.5371 22.4151L25.8934 22.6617L25.1996 19.5229L26.3434 18.2402Z" fill="white" stroke="#C09300" stroke-width="0.12" stroke-linejoin="round"/>
<path id="Vector_12" d="M26.7363 19.6707L26.5926 20.0099L25.8176 19.2822" stroke="#C09300" stroke-width="0.13" stroke-linejoin="round"/>
<path id="Vector_13" d="M26.1992 18.8076L26.0367 20.3061L25.543 19.6648M25.743 19.9115L25.4742 20.8365M25.368 20.4973L25.9117 21.3113M25.743 22.1253L25.918 21.3113M25.918 21.3113L26.068 20.485L26.4367 20.9721L26.593 20.411L27.1055 20.929L26.8492 21.8663L26.4867 21.2866L26.293 21.8786L25.918 21.3113Z" stroke="#C09300" stroke-width="0.13" stroke-linejoin="round"/>
<path id="Vector_14" d="M27.1875 22.3219L26.8563 21.8594L26.6437 22.5685L26.3438 22.0752L26.15 22.6672" stroke="#C09300" stroke-width="0.13" stroke-linejoin="round"/>
</g>
<g id="Group_3">
<path id="Vector_15" d="M25 24.2832C26.25 24.2832 27.4375 24.1845 28.1375 23.9934C28.4313 23.9379 28.4312 23.7899 28.4312 23.5925C28.7312 23.4939 28.5813 23.1485 28.7875 23.1485C28.575 23.2102 28.5375 22.8094 28.2875 22.8587C28.2875 22.5134 27.9313 22.4702 27.6375 22.5689C27.0438 22.76 25.9938 22.8094 25 22.8094C24 22.76 22.9625 22.76 22.3625 22.5627C22.0687 22.4702 21.7188 22.5134 21.7188 22.8587C21.4688 22.8094 21.425 23.204 21.2188 23.1485C21.425 23.1485 21.2688 23.5 21.5688 23.5925C21.5688 23.7899 21.5687 23.9379 21.8687 23.9934C22.5562 24.1845 23.7562 24.2832 25 24.2832Z" fill="white" stroke="#C09300" stroke-width="0.24" stroke-linecap="round" stroke-linejoin="round"/>
<path id="Vector_16" d="M23.3063 22.415C23.7063 22.4705 24.1563 22.5137 24.5063 22.4705C24.7063 22.4705 24.8501 22.8097 24.4501 22.859C24.1063 22.9022 23.5563 22.859 23.2626 22.8097C22.876 22.7429 22.4923 22.6606 22.1126 22.563C21.7626 22.415 22.0126 22.1313 22.2126 22.1683C22.5694 22.2811 22.9353 22.3636 23.3063 22.415ZM26.6938 22.415C26.2938 22.4705 25.8438 22.5137 25.5063 22.4705C25.2938 22.4705 25.1501 22.8097 25.5501 22.859C25.9001 22.9022 26.4438 22.859 26.7376 22.8097C26.9876 22.7603 27.5376 22.6678 27.8876 22.563C28.2376 22.415 27.9876 22.1313 27.7876 22.1683C27.4308 22.2812 27.0648 22.3637 26.6938 22.415Z" fill="white" stroke="#C09300" stroke-width="0.13" stroke-linecap="round" stroke-linejoin="round"/>
<path id="Vector_17" d="M22.0626 22.2239C21.7626 22.1684 21.6251 22.5137 21.7188 22.711C21.7626 22.6124 21.9688 22.6124 22.0126 22.5137C22.0688 22.3657 21.9688 22.3657 22.0688 22.2239H22.0626ZM23.2626 23.1304C23.2626 22.933 23.4563 22.9577 23.4563 22.7604C23.4563 22.6679 23.4063 22.5137 23.3063 22.5137C23.2542 22.5166 23.2051 22.5384 23.1682 22.5748C23.1313 22.6111 23.1093 22.6596 23.1063 22.711C23.0626 22.9022 23.2626 22.933 23.2626 23.1304ZM24.6813 22.5692C24.9751 22.5692 24.9438 22.9577 24.8063 23.155C24.8063 23.0132 24.5563 22.9577 24.5563 22.859C24.5563 22.711 24.7813 22.711 24.6813 22.5692ZM27.9313 22.2239C28.2376 22.1684 28.3813 22.5137 28.2813 22.711C28.2376 22.6124 28.0313 22.6124 27.9876 22.5137C27.9313 22.3657 28.0313 22.3657 27.9313 22.2239ZM26.7501 23.1242C26.7501 22.9269 26.5501 22.9515 26.5501 22.7542C26.5501 22.6617 26.6001 22.5075 26.7001 22.5075C26.7521 22.5105 26.8013 22.5322 26.8382 22.5686C26.875 22.605 26.8971 22.6535 26.9001 22.7049C26.9438 22.896 26.7438 22.9269 26.7438 23.1242H26.7501ZM25.3126 22.5692C25.0188 22.5692 25.0501 22.9577 25.1876 23.155C25.1876 23.0132 25.4376 22.9577 25.4376 22.859C25.4376 22.711 25.2126 22.711 25.3126 22.5692Z" fill="white" stroke="#C09300" stroke-width="0.13" stroke-linecap="round" stroke-linejoin="round"/>
<path id="Vector_18" d="M22.168 22.3223C22.268 22.3223 22.418 22.3654 22.4617 22.4209L22.168 22.3223ZM22.6617 22.4703C22.7117 22.4703 22.9117 22.5134 23.0055 22.5689L22.6617 22.4703ZM24.4492 22.6676C24.3555 22.6676 24.1555 22.6676 24.1055 22.7108L24.4492 22.6614V22.6676ZM23.9055 22.6676C23.8492 22.6121 23.6555 22.6121 23.5555 22.6676H23.9055ZM27.8305 22.3223C27.7244 22.3236 27.6216 22.3581 27.5367 22.4209L27.8305 22.3223ZM27.343 22.4703C27.2805 22.4703 27.093 22.5134 26.993 22.5689L27.343 22.4703ZM25.5492 22.6676C25.643 22.6676 25.843 22.6676 25.8992 22.7108L25.5492 22.6614V22.6676ZM26.093 22.6676C26.1492 22.6121 26.343 22.6121 26.443 22.6676H26.093Z" fill="white" stroke="#C09300" stroke-width="0.09" stroke-linecap="round" stroke-linejoin="round"/>
<g id="Group_4">
<path id="Vector_19" d="M22.0805 23.1001C22.0492 23.0939 22.0305 23.0631 22.043 23.0384C22.0492 22.9953 22.0805 22.9768 22.1055 22.9891C22.1305 22.9891 22.1617 23.0261 22.1617 23.0384L22.1367 23.0816L22.1242 23.0878C22.1242 23.1001 22.0992 23.1001 22.0805 23.1001ZM25.518 23.3406C25.5055 23.3406 25.4805 23.3098 25.4805 23.2974C25.4805 23.2728 25.518 23.2358 25.543 23.2358L25.593 23.2604C25.6117 23.2789 25.6117 23.3159 25.5867 23.3344C25.5742 23.3468 25.5367 23.3468 25.518 23.3344V23.3406ZM25.5367 23.4948C25.5117 23.4824 25.5055 23.4701 25.4992 23.4454C25.4992 23.4146 25.4992 23.4084 25.5305 23.3899L25.5555 23.3776L25.5805 23.3899C25.6055 23.4023 25.6242 23.4146 25.6242 23.4393C25.6242 23.4578 25.6055 23.4763 25.5805 23.4886C25.5617 23.5009 25.5555 23.5009 25.5367 23.4886V23.4948Z" fill="#C09300"/>
<path id="Vector_20" d="M22.3617 22.8164C22.3367 22.8164 22.3055 22.8411 22.2867 22.8534C22.2492 22.8596 22.1992 22.8842 22.1617 22.8534C22.1242 22.8472 22.0742 22.8534 22.068 22.9027C22.0742 22.9459 22.1305 22.9644 22.168 22.9397C22.193 22.9089 22.2617 22.8842 22.2742 22.9397C22.243 22.9891 22.2492 23.0446 22.2242 23.0877C22.2242 23.1186 22.2055 23.1432 22.193 23.1679C22.1617 23.1679 22.1305 23.1679 22.1055 23.1864C22.0861 23.1864 22.0669 23.1909 22.0496 23.1994C22.0322 23.208 22.0171 23.2204 22.0055 23.2357C21.9805 23.2727 21.9555 23.3097 21.9492 23.3591C21.9555 23.3961 22.0117 23.4084 22.0492 23.4146L22.1742 23.4516L22.3742 23.5071C22.4742 23.5379 22.5742 23.5502 22.6742 23.5749L22.7055 23.5811C22.7492 23.5934 22.768 23.5502 22.768 23.5194L22.8305 23.2974C22.843 23.2666 22.8617 23.2049 22.8055 23.2172C22.7742 23.2357 22.743 23.2666 22.7055 23.2666C22.6492 23.2666 22.6805 23.3282 22.7055 23.3467C22.7055 23.3837 22.693 23.4269 22.6742 23.4577C22.6367 23.4762 22.5992 23.4577 22.5617 23.4454C22.5305 23.4454 22.4555 23.4269 22.4867 23.3837L22.518 23.2727C22.5367 23.2357 22.5367 23.1926 22.5492 23.1494C22.5242 23.1062 22.4867 23.1679 22.4555 23.1741C22.4305 23.1864 22.3555 23.1926 22.393 23.2357C22.4305 23.2604 22.4055 23.3036 22.393 23.3406C22.393 23.3837 22.343 23.4022 22.3055 23.3837C22.268 23.3837 22.2117 23.3529 22.243 23.3159L22.2742 23.2049L22.318 23.0816C22.318 23.0384 22.3367 23.0076 22.3555 22.9706C22.3555 22.9274 22.3867 22.8904 22.3867 22.8472C22.3867 22.8287 22.3742 22.8226 22.3617 22.8226V22.8164ZM22.1305 23.2666C22.1333 23.2649 22.1366 23.2641 22.1398 23.2641C22.1431 23.2641 22.1464 23.2649 22.1492 23.2666C22.1617 23.2789 22.1617 23.2912 22.1492 23.3036L22.1305 23.3159C22.0992 23.3159 22.093 23.3097 22.093 23.2974C22.093 23.2912 22.093 23.2851 22.1117 23.2789C22.1193 23.2735 22.1278 23.2693 22.1367 23.2666H22.1305ZM22.068 23.5749C22.0367 23.5502 22.043 23.5317 22.0867 23.4947C22.1117 23.4824 22.118 23.4824 22.143 23.5009C22.1805 23.5317 22.1805 23.5502 22.143 23.5811C22.1305 23.5934 22.1242 23.5934 22.1117 23.5934C22.093 23.5934 22.0867 23.5934 22.068 23.5811V23.5749ZM22.2555 23.6366C22.2415 23.6323 22.2298 23.6228 22.2228 23.6102C22.2158 23.5975 22.2141 23.5826 22.218 23.5687C22.2305 23.5441 22.2367 23.5379 22.2742 23.5379C22.318 23.5379 22.3242 23.5441 22.3305 23.5811C22.3305 23.6057 22.3305 23.6119 22.3117 23.6242C22.3048 23.6297 22.2967 23.6336 22.2881 23.6357C22.2794 23.6379 22.2705 23.6381 22.2617 23.6366H22.2555ZM27.8305 23.6366C27.818 23.6304 27.8117 23.6242 27.8117 23.6057C27.8117 23.5811 27.8242 23.5626 27.8617 23.5502C27.8992 23.5317 27.9242 23.5317 27.9367 23.5626C27.9555 23.5996 27.9555 23.6119 27.9305 23.6366C27.918 23.6551 27.9117 23.6551 27.8805 23.6551C27.8492 23.6551 27.843 23.6551 27.8305 23.6427V23.6366ZM22.518 23.7106C22.493 23.7106 22.4805 23.6859 22.4805 23.6612C22.4805 23.6427 22.4805 23.6366 22.493 23.6242L22.5305 23.6119L22.568 23.6181C22.5992 23.6427 22.6055 23.6674 22.5867 23.6921C22.568 23.7167 22.5492 23.7167 22.5117 23.7106H22.518ZM23.8805 23.7722L23.868 23.7537C23.868 23.7167 23.868 23.6859 23.8805 23.6489C23.8867 23.6181 23.8805 23.5872 23.893 23.5564L23.918 23.3837C23.918 23.3529 23.918 23.3221 23.9305 23.2974C23.9367 23.2481 23.9305 23.2049 23.943 23.1617C23.943 23.1432 23.9617 23.1001 23.9805 23.1247C24.0055 23.1617 24.0367 23.1864 24.068 23.2172C24.093 23.2357 24.068 23.2604 24.0492 23.2666C24.0242 23.2727 24.018 23.3036 24.018 23.3282L24.0055 23.4022C24.0055 23.4454 24.0055 23.4824 23.993 23.5256L23.9867 23.6366L23.9742 23.7106C23.9742 23.7352 23.9742 23.7661 23.9492 23.7784C23.9305 23.7907 23.8992 23.7907 23.8867 23.7722H23.8805ZM25.7367 23.1679L25.6555 23.2419C25.618 23.2727 25.6867 23.2851 25.693 23.3097C25.7055 23.3467 25.7055 23.3837 25.7055 23.4207C25.718 23.4577 25.7242 23.4886 25.718 23.5256C25.718 23.5687 25.668 23.5564 25.643 23.5811C25.6117 23.5934 25.5992 23.6242 25.5805 23.6427C25.5656 23.6737 25.5571 23.7072 25.5555 23.7414C25.5555 23.7722 25.5367 23.8031 25.5555 23.8277L25.5617 23.8401H25.593L25.6867 23.8339C25.7617 23.8216 25.843 23.8216 25.918 23.8154L26.0555 23.8031C26.093 23.8092 26.1117 23.7722 26.1117 23.7414C26.0867 23.6982 26.1055 23.6551 26.0867 23.6181C26.0742 23.5687 26.0805 23.5256 26.0742 23.4824C26.0742 23.4454 26.0305 23.4331 26.0117 23.4577C25.9867 23.4824 25.9492 23.4886 25.9367 23.5132C25.918 23.5502 25.9742 23.5502 25.9867 23.5749L25.993 23.6674C25.9992 23.7044 25.9617 23.7044 25.9305 23.7106C25.8992 23.7229 25.8555 23.7291 25.8367 23.6921C25.8242 23.6612 25.8242 23.6304 25.8242 23.5996C25.8242 23.5379 25.8055 23.4886 25.8055 23.4331C25.8055 23.3714 25.7867 23.3036 25.7867 23.2357C25.7867 23.2049 25.7805 23.1617 25.7367 23.1679ZM25.6992 23.6736H25.718V23.7229L25.6992 23.7291C25.691 23.7316 25.6827 23.7337 25.6742 23.7352C25.6701 23.7354 25.6659 23.7354 25.6617 23.7352C25.6492 23.7229 25.6492 23.7044 25.668 23.6859L25.6992 23.6736ZM23.8242 23.1062C23.8055 23.1062 23.7742 23.1494 23.7492 23.1432C23.693 23.1494 23.6992 23.2049 23.743 23.2234V23.2727C23.7492 23.3221 23.718 23.3652 23.7242 23.4146C23.7242 23.4639 23.7055 23.5194 23.7055 23.5749C23.6867 23.6304 23.6867 23.6859 23.6805 23.7414C23.6742 23.7907 23.6367 23.7722 23.6055 23.7599V23.6982C23.6117 23.6427 23.5742 23.6304 23.5305 23.6242C23.4867 23.6242 23.468 23.5934 23.4805 23.5564C23.4992 23.5317 23.543 23.5379 23.5742 23.5379C23.6367 23.5502 23.6305 23.4701 23.5992 23.4392C23.5742 23.4022 23.5242 23.3776 23.5117 23.3406C23.5117 23.2912 23.4805 23.2357 23.4367 23.2111C23.368 23.2049 23.3117 23.2604 23.293 23.3221C23.2617 23.3221 23.2305 23.3344 23.2055 23.3467C23.1617 23.3591 23.0992 23.4331 23.1617 23.4639C23.193 23.4701 23.2992 23.4947 23.2492 23.5379C23.2242 23.5872 23.1742 23.5872 23.1305 23.5749C23.0867 23.5749 23.0367 23.5502 23.0367 23.5009C23.0305 23.4516 23.0305 23.4022 23.0117 23.3591C22.9992 23.3097 22.943 23.3221 22.9367 23.3714C22.893 23.4022 22.8992 23.4577 22.9305 23.4947C22.9492 23.5379 22.9305 23.5934 22.9117 23.6304C22.8992 23.6921 22.8367 23.6921 22.793 23.7044C22.7742 23.7167 22.693 23.7044 22.7242 23.7476C22.7711 23.7689 22.8235 23.7753 22.8742 23.7661C22.9242 23.7661 22.968 23.7229 22.9992 23.6797C23.0305 23.6489 23.0867 23.6674 23.1367 23.6674C23.1805 23.6674 23.2305 23.6982 23.2805 23.6736C23.293 23.6427 23.3555 23.5811 23.3742 23.6427C23.3742 23.6982 23.418 23.7229 23.468 23.7167C23.5242 23.7167 23.4992 23.7537 23.4992 23.7907C23.4992 23.8462 23.543 23.8771 23.593 23.9017H23.643C23.6867 23.8832 23.7367 23.8647 23.7555 23.8154C23.7742 23.7722 23.7742 23.7229 23.7867 23.6797C23.7992 23.6119 23.8117 23.5379 23.8117 23.4701C23.8305 23.4084 23.8242 23.3406 23.8367 23.2727L23.8555 23.1309C23.8555 23.1001 23.843 23.1001 23.8242 23.1062ZM23.4055 23.3591C23.4117 23.3591 23.418 23.3714 23.418 23.3899C23.418 23.4146 23.4305 23.4331 23.4492 23.4392V23.4577L23.3992 23.4701C23.368 23.4701 23.343 23.4577 23.3242 23.4392L23.3117 23.4269L23.3305 23.4146L23.3617 23.3837C23.3805 23.3652 23.393 23.3591 23.4055 23.3591ZM27.5305 22.8719C27.4945 22.8745 27.4589 22.8807 27.4242 22.8904C27.3617 22.8904 27.3305 22.9521 27.393 22.9891C27.4305 23.0816 27.4867 22.9644 27.5492 22.9767C27.6367 22.9891 27.643 23.0877 27.6617 23.1617C27.6617 23.2296 27.6867 23.2974 27.7055 23.3652C27.768 23.4331 27.6617 23.4762 27.618 23.4269C27.5805 23.3837 27.493 23.3344 27.4492 23.3899C27.393 23.4146 27.3867 23.4886 27.343 23.5132C27.268 23.5317 27.2617 23.4392 27.218 23.4022C27.1805 23.3467 27.1117 23.3406 27.0555 23.3282C27.0305 23.2727 27.043 23.1802 26.993 23.1432C26.943 23.1617 26.8555 23.2481 26.9305 23.2912C26.993 23.3529 26.8992 23.3776 26.868 23.4146C26.818 23.4701 26.8055 23.5379 26.8055 23.5996C26.7242 23.6427 26.7117 23.5502 26.6992 23.4947C26.6992 23.4269 26.6367 23.4454 26.593 23.4701C26.5305 23.4947 26.5055 23.5502 26.468 23.5934V23.7167C26.4805 23.7722 26.543 23.7476 26.5805 23.7414C26.643 23.7167 26.668 23.7846 26.618 23.8216C26.5805 23.8586 26.4805 23.8401 26.493 23.9079H26.593C26.6555 23.8894 26.7305 23.8401 26.7367 23.7661C26.7492 23.7044 26.843 23.7106 26.893 23.6982C26.9555 23.6797 27.0367 23.6736 27.0555 23.7599C27.0992 23.8031 27.193 23.8524 27.243 23.7907C27.2668 23.7759 27.2859 23.7547 27.298 23.7296C27.3102 23.7045 27.3149 23.6765 27.3117 23.6489C27.3055 23.5996 27.393 23.5996 27.418 23.6304C27.4492 23.6797 27.5492 23.6674 27.5992 23.6304C27.6492 23.5996 27.6617 23.5317 27.7367 23.5317L28.0742 23.4392C28.1617 23.4207 28.0617 23.3652 28.0367 23.3282C27.9742 23.2974 27.9117 23.4331 27.8367 23.3652C27.7742 23.3221 27.7805 23.2419 27.7617 23.1741C27.743 23.0877 27.7492 22.9891 27.6867 22.9274C27.6492 22.8842 27.5867 22.8719 27.5305 22.8719ZM27.1055 23.4577C27.1117 23.4577 27.1242 23.4577 27.1367 23.4701C27.1617 23.4824 27.1805 23.5071 27.1805 23.5317C27.1805 23.5441 27.1805 23.5441 27.1617 23.5502L27.1305 23.5626C27.118 23.5626 27.0867 23.5441 27.0867 23.5317V23.5071C27.0742 23.4824 27.0742 23.4824 27.0867 23.4701L27.1055 23.4577ZM27.5117 23.4824C27.5367 23.4824 27.5492 23.4824 27.5617 23.5009C27.568 23.5256 27.5617 23.5379 27.5367 23.5502L27.5055 23.5626L27.4805 23.5441C27.468 23.5379 27.4617 23.5317 27.4617 23.5194C27.4617 23.5009 27.4867 23.4824 27.5117 23.4762V23.4824ZM26.9492 23.4824C26.9617 23.4824 26.968 23.4824 26.9742 23.4947C26.9867 23.5071 26.993 23.5132 26.993 23.5317V23.5687C26.993 23.5872 26.993 23.5811 26.9555 23.5811C26.918 23.5811 26.9117 23.5811 26.9117 23.5441C26.9117 23.5194 26.9117 23.5132 26.9305 23.5009C26.9367 23.4886 26.9492 23.4886 26.9555 23.4886L26.9492 23.4824ZM26.6117 23.5749C26.6176 23.5767 26.623 23.5798 26.6273 23.5841C26.6317 23.5885 26.6349 23.5938 26.6367 23.5996C26.6367 23.6181 26.6367 23.6304 26.6242 23.6366C26.6055 23.6427 26.5742 23.6489 26.5617 23.6366C26.5615 23.6345 26.5615 23.6325 26.5617 23.6304C26.5492 23.6242 26.5492 23.6181 26.5617 23.6119V23.6057L26.5742 23.5872C26.5781 23.5812 26.5839 23.5767 26.5907 23.5745C26.5976 23.5722 26.605 23.5724 26.6117 23.5749ZM27.1867 23.6489L27.218 23.6551V23.6921H27.143L27.1367 23.6797C27.1367 23.6674 27.1367 23.6612 27.1492 23.6551L27.1867 23.6489ZM26.118 23.9449C26.1117 23.9449 26.0992 23.9387 26.1117 23.9326C26.118 23.9141 26.143 23.9079 26.1617 23.8956C26.1958 23.8828 26.2259 23.8615 26.2492 23.8339C26.2492 23.8092 26.2742 23.7969 26.2742 23.7722L26.268 23.6859C26.2595 23.66 26.2417 23.6381 26.218 23.6242C26.1992 23.6181 26.1742 23.6119 26.168 23.5872C26.168 23.5687 26.1867 23.5502 26.193 23.5317L26.2305 23.4577C26.2492 23.4392 26.2742 23.4577 26.2805 23.4701L26.3117 23.5317C26.3305 23.5502 26.343 23.5687 26.3492 23.5934C26.3617 23.6181 26.3742 23.6366 26.3742 23.6551L26.3867 23.7352C26.3867 23.7661 26.3867 23.8031 26.3742 23.8339L26.3367 23.8832C26.318 23.9017 26.2992 23.9202 26.2742 23.9264C26.2555 23.9326 26.243 23.9511 26.218 23.9511H26.1242L26.118 23.9449ZM25.6867 23.9696C25.6742 23.9572 25.668 23.9511 25.668 23.9326C25.668 23.9141 25.668 23.9141 25.6867 23.8956C25.7117 23.8709 25.7242 23.8709 25.7742 23.8956C25.818 23.9202 25.8367 23.9202 25.8367 23.9017C25.843 23.8894 25.868 23.8709 25.8992 23.8709C25.9108 23.8713 25.9218 23.8757 25.9305 23.8832C25.943 23.8956 25.9492 23.9017 25.9492 23.9264C25.9492 23.9572 25.9492 23.9572 25.9305 23.9757C25.9117 23.9881 25.9117 23.9881 25.8867 23.9881C25.8756 23.9875 25.8649 23.9836 25.856 23.9771C25.8471 23.9705 25.8404 23.9614 25.8367 23.9511C25.8367 23.9387 25.8367 23.9326 25.8242 23.9449L25.8117 23.9511C25.7992 23.9511 25.7742 23.9696 25.7617 23.9819L25.7305 23.9881C25.7055 23.9881 25.7055 23.9881 25.6867 23.9696ZM24.4492 23.4207C24.4055 23.4207 24.3617 23.4577 24.3555 23.5009C24.368 23.5441 24.4055 23.5934 24.3805 23.6366C24.3992 23.6982 24.3305 23.7229 24.2867 23.6921C24.2617 23.6304 24.2492 23.5687 24.2055 23.5071C24.1555 23.4947 24.1367 23.5749 24.0992 23.6057C24.118 23.6489 24.168 23.6921 24.1742 23.7476C24.1867 23.8092 24.1492 23.8709 24.1055 23.8956C24.0617 23.9387 23.9992 23.9264 23.9492 23.9326C23.8867 23.9696 23.993 23.9819 24.0242 23.9819C24.0867 23.9881 24.1555 23.9819 24.2117 23.9326C24.2555 23.9141 24.2492 23.8277 24.3055 23.8216L24.6055 23.8401C24.6555 23.8524 24.7367 23.8339 24.7742 23.8709C24.7742 23.9326 24.8367 23.9819 24.893 24.0066C24.9242 24.0189 24.9555 23.9757 24.9867 23.9696C25.0492 23.9511 25.0305 23.8771 25.068 23.8462H25.3805C25.393 23.8462 25.3992 23.8154 25.418 23.8031L25.4055 23.6859C25.3867 23.6366 25.4055 23.5749 25.3742 23.5317C25.318 23.5194 25.2742 23.5626 25.2242 23.5687C25.1617 23.5934 25.118 23.6489 25.1117 23.7106C25.0805 23.7661 25.0242 23.6982 25.0492 23.6489L25.043 23.5872C25.0117 23.5564 24.9555 23.5687 24.9117 23.5626L24.7242 23.5502C24.6617 23.5502 24.6055 23.5564 24.5555 23.5441C24.493 23.5441 24.493 23.4824 24.493 23.4331C24.4805 23.4237 24.4649 23.4193 24.4492 23.4207ZM24.5742 23.6489L24.6367 23.6551H24.718C24.7805 23.6674 24.843 23.6674 24.9055 23.6674C24.918 23.6674 24.9305 23.6797 24.943 23.6921V23.8154C24.943 23.8339 24.943 23.8586 24.9305 23.8647C24.9272 23.8696 24.9229 23.8738 24.918 23.8771C24.9088 23.8755 24.9001 23.8719 24.8926 23.8665C24.885 23.8612 24.8787 23.8543 24.8742 23.8462V23.7599C24.8618 23.7496 24.8466 23.7431 24.8305 23.7414L24.668 23.7352L24.543 23.7291C24.5242 23.7229 24.4992 23.7291 24.4867 23.7044C24.4742 23.6921 24.493 23.6674 24.5117 23.6612C24.5314 23.6526 24.5527 23.6484 24.5742 23.6489ZM25.2805 23.6674C25.2867 23.6674 25.293 23.6674 25.293 23.6859L25.3055 23.7167C25.3055 23.7229 25.3055 23.7291 25.293 23.7291C25.2617 23.7414 25.2305 23.7414 25.218 23.7291C25.218 23.7229 25.218 23.6982 25.2305 23.6921L25.2805 23.6674Z" fill="#C09300"/>
</g>
</g>
<path id="Vector_21" d="M24.9992 20.1766C27.0367 18.6349 26.8617 16.3656 26.8617 16.3656L26.7054 16.3779C26.2742 16.3779 25.2554 16.1313 25.0179 15.8291C24.7679 16.1066 23.7179 16.3841 23.2929 16.3841L23.1367 16.3656C23.1367 16.3656 22.9554 18.6288 24.9992 20.1766Z" fill="white" stroke="#C09300" stroke-width="0.11"/>
<path id="Vector_22" d="M26.6988 16.5262H26.6488C26.2613 16.5262 25.3613 16.3351 25.0113 16.0391C24.6488 16.3104 23.7301 16.5324 23.3488 16.5324C23.332 16.5318 23.3153 16.5297 23.2988 16.5262C23.3022 16.9159 23.3569 17.3036 23.4613 17.6794C23.712 18.5849 24.251 19.387 24.9988 19.9672C25.7471 19.3847 26.286 18.5806 26.5363 17.6732C26.6403 17.2994 26.6949 16.9139 26.6988 16.5262Z" fill="white" stroke="#C09300" stroke-width="0.09"/>
<path id="Vector_23" d="M24.3363 16.3411C24.0006 16.449 23.6516 16.5112 23.2988 16.5261L23.3051 16.779C23.3264 17.0815 23.3788 17.381 23.4613 17.6731C23.6293 18.2796 23.9278 18.8433 24.3363 19.3258V16.3411ZM25.6238 16.3411V19.3751C26.0521 18.8815 26.3637 18.3002 26.5363 17.6731C26.6188 17.381 26.6712 17.0814 26.6926 16.779L26.6988 16.5323H26.6488C26.4113 16.5323 25.9988 16.4583 25.6238 16.335V16.3411Z" fill="#C09300"/>
<g id="Group_5">
<path id="Vector_24" d="M25.7684 15.601C25.8121 15.6071 25.7121 15.3851 25.7121 15.3851C25.8246 15.4961 26.2371 15.527 26.2371 15.527C25.9871 15.416 25.7371 14.5958 25.7684 13.936C25.7934 13.2823 25.6746 13.0233 25.5809 12.9246C25.4559 12.8013 25.0496 12.6903 24.7871 12.678C24.6309 12.6718 24.6621 12.789 24.6621 12.789C24.3809 12.7211 24.0996 12.6903 23.9746 12.7766C23.8621 12.8506 23.8371 13.2391 23.9246 13.1713C24.1309 13.0048 24.3121 13.159 24.4371 13.3378C24.5496 13.492 24.5434 13.936 24.3809 14.4601C24.237 14.8564 24.0256 15.2255 23.7559 15.5516C24.0059 15.5516 24.3559 15.3358 24.3559 15.3358L24.2746 15.675C24.5371 15.5516 24.7434 15.3605 24.7434 15.3605L24.9934 15.6195C25.0746 15.5085 25.2434 15.3605 25.2434 15.3605C25.2434 15.3605 25.4496 15.5763 25.7684 15.6071V15.601Z" fill="white" stroke="#C09300" stroke-width="0.12"/>
<path id="Vector_25" d="M24.7555 14.0347C24.7555 14.0347 24.618 15.0461 24.3555 15.3297M24.9805 14.0039C24.9805 14.0039 24.918 15.0337 24.743 15.3606M25.1742 14.0471C25.1742 14.0471 25.1742 15.1694 25.2367 15.3606M25.4242 14.1026C25.4242 14.1026 25.4742 15.0461 25.7117 15.3852" stroke="#C09300" stroke-width="0.13"/>
<path id="Vector_26" d="M24.4988 13.5415C24.4932 13.47 24.4719 13.4005 24.4363 13.338C24.3113 13.153 24.1301 13.005 23.9238 13.1715C23.9238 13.1715 23.9926 12.9557 24.1488 12.9495C24.2613 12.9433 24.5301 13.0358 24.7676 13.4305C24.7676 13.4305 24.5926 13.3935 24.5488 13.4305C24.4738 13.4922 24.5051 13.5415 24.5051 13.5415H24.4988Z" fill="#C09300" stroke="#C09300" stroke-width="0.03"/>
<path id="Vector_27" d="M23.9004 12.9061C23.9191 12.8445 23.9441 12.7951 23.9816 12.7766C24.1066 12.6903 24.3816 12.715 24.6629 12.789C24.6629 12.789 24.6379 12.6718 24.7879 12.678C25.0504 12.6903 25.4504 12.8013 25.5754 12.9246C25.6154 12.968 25.6472 13.0181 25.6691 13.0726C25.6066 12.9863 25.4316 12.9925 25.3879 12.9986C25.3254 13.0048 25.2816 12.9986 25.1941 13.0233C25.1504 13.0356 25.0879 13.048 25.0504 13.0726C25.0254 13.0973 25.0004 13.1713 24.9629 13.1713C24.9004 13.1713 24.9004 13.159 24.8816 13.1405C24.8629 13.1096 24.8504 13.0726 24.8254 13.0788C24.7629 13.085 24.6504 13.0356 24.5129 12.9246C24.3691 12.8136 24.3129 12.789 24.1379 12.8013C23.9504 12.8136 23.9004 12.9185 23.9004 12.9185V12.9061Z" fill="#C09300" stroke="#C09300" stroke-width="0.03"/>
<path id="Vector_28" d="M24.9246 13.0669C24.966 13.0669 24.9996 13.0338 24.9996 12.9929C24.9996 12.9521 24.966 12.9189 24.9246 12.9189C24.8832 12.9189 24.8496 12.9521 24.8496 12.9929C24.8496 13.0338 24.8832 13.0669 24.9246 13.0669Z" fill="white"/>
</g>
</g>
</g>
<defs>
<clipPath id="clip0_1_158">
<rect width="50" height="37" fill="white"/>
</clipPath>
</defs>
</svg>
