<svg width="51" height="37" viewBox="0 0 51 37" fill="none" xmlns="http://www.w3.org/2000/svg">
<g id="Ethiopia (ET)" clip-path="url(#clip0_1_522)">
<g id="Clip path group">
<mask id="mask0_1_522" style="mask-type:luminance" maskUnits="userSpaceOnUse" x="0" y="0" width="51" height="38">
<g id="a">
<path id="Vector" d="M0.134766 0H50.2705V37.0987H0.134766V0Z" fill="white"/>
</g>
</mask>
<g mask="url(#mask0_1_522)">
<g id="Group">
<path id="Vector_2" fill-rule="evenodd" clip-rule="evenodd" d="M-12.842 0.253906H63.3861V36.3382H-12.842V0.253906Z" fill="#FFC621"/>
<path id="Vector_3" fill-rule="evenodd" clip-rule="evenodd" d="M-12.9885 24.8174H63.3351V37.0991H-12.9885V24.8174Z" fill="#EF2118"/>
<path id="Vector_4" fill-rule="evenodd" clip-rule="evenodd" d="M-12.842 0H63.3861V13.0425H-12.842V0Z" fill="#298C08"/>
<path id="Vector_5" d="M23.9269 26.9879C28.3007 26.9879 31.8463 23.4895 31.8463 19.1741C31.8463 14.8587 28.3007 11.3604 23.9269 11.3604C19.5532 11.3604 16.0076 14.8587 16.0076 19.1741C16.0076 23.4895 19.5532 26.9879 23.9269 26.9879Z" fill="#006BC6"/>
<path id="Vector_6" fill-rule="evenodd" clip-rule="evenodd" d="M20.3751 13.6364L19.8977 13.9625L21.6235 16.3536L22.0862 16.0638L20.3677 13.6364H20.3751ZM22.5341 19.2882L21.8218 18.7955L22.1155 17.8752L18.5832 17.926L17.5551 17.1507L22.3799 17.0999L23.2758 14.4262L23.7605 15.5131L22.5341 19.2809V19.2882ZM28.1521 14.1654L27.6894 13.8176L25.9049 16.1652L26.3162 16.5058L28.1521 14.1654ZM23.3493 17.897L23.6063 17.0854H24.583L23.4668 13.7669L23.9074 12.5713L25.4129 17.0927L28.2623 17.1289L27.3663 17.9042L23.3493 17.8897V17.897ZM30.0027 21.6068L30.201 21.0707L27.3883 20.107L27.1827 20.6142L30.0027 21.6068ZM24.9282 18.2448L25.7874 18.2375L26.0885 19.1505L28.9379 17.0854L30.2304 17.1289L26.3308 19.9331L27.1754 22.6285L26.1473 22.0199L24.9282 18.2448ZM23.4741 25.6355L24.0543 25.65L24.0763 22.7155L23.5329 22.6792L23.4741 25.6428V25.6355ZM25.0898 19.8171L25.3688 20.6214L24.583 21.2011L27.4765 23.2082L27.8437 24.4255L23.9074 21.6721L21.5941 23.3169L21.8512 22.1575L25.0824 19.8171H25.0898ZM17.5037 20.7591L17.6726 21.3025L20.5146 20.4185L20.3677 19.8968L17.5037 20.7591ZM23.6137 20.4692L22.9233 20.9837L22.1302 20.4258L21.0874 23.7589L20.0299 24.4834L21.4619 19.9403L19.156 18.2738L20.353 18.1578L23.6137 20.4692Z" fill="#FFC621"/>
</g>
</g>
</g>
</g>
<defs>
<clipPath id="clip0_1_522">
<rect width="50" height="37" fill="white" transform="translate(0.144287)"/>
</clipPath>
</defs>
</svg>
