<svg width="51" height="37" viewBox="0 0 51 37" fill="none" xmlns="http://www.w3.org/2000/svg">
<g id="Iran (Islamic Republic of) (IR)" clip-path="url(#clip0_1_226)">
<g id="Clip path group">
<mask id="mask0_1_226" style="mask-type:luminance" maskUnits="userSpaceOnUse" x="0" y="0" width="51" height="37">
<g id="a">
<path id="Vector" d="M0.588135 0H50.5906V37H0.588135V0Z" fill="white"/>
</g>
</mask>
<g mask="url(#mask0_1_226)">
<g id="Group">
<path id="Vector_2" fill-rule="evenodd" clip-rule="evenodd" d="M-7.22632 0H58.3987V37H-7.22632V0Z" fill="white"/>
<path id="Vector_3" fill-rule="evenodd" clip-rule="evenodd" d="M-7.22632 24.845H58.3987V37H-7.22632V24.845Z" fill="#DA0000"/>
<g id="Group_2">
<path id="Vector_4" fill-rule="evenodd" clip-rule="evenodd" d="M5.25415 25.3652H8.84302V25.6037H5.25415V25.3652ZM5.78882 26.5793H6.03784V26.8178H5.78882V26.5793ZM8.85767 26.5793V26.8178H8.13989V26.5721L8.85767 26.5793ZM9.23853 25.3652H9.48755V26.8105H9.23853V25.3652Z" fill="white"/>
<path id="Vector_5" fill-rule="evenodd" clip-rule="evenodd" d="M10.6746 26.5719V26.8176H9.31226V26.5719H10.6746ZM8.14038 26.001H8.37476V26.8176H8.13306L8.14038 26.001Z" fill="white"/>
<path id="Vector_6" fill-rule="evenodd" clip-rule="evenodd" d="M10.469 25.3652H10.718V26.8105H10.469V25.3652ZM9.85376 25.3652H10.0955V26.8105H9.85376V25.3652ZM6.57251 25.9434V26.1891H5.25415V25.9434H6.57251ZM9.45093 25.9434V26.1891H8.13257V25.9434H9.45093Z" fill="white"/>
<path id="Vector_7" fill-rule="evenodd" clip-rule="evenodd" d="M8.14038 26.0078H8.37476V26.81H8.13306L8.14038 26.0078Z" fill="white"/>
<path id="Vector_8" fill-rule="evenodd" clip-rule="evenodd" d="M8.14038 26.0078H8.37476V26.81H8.13306L8.14038 26.0078Z" fill="white"/>
<path id="Vector_9" fill-rule="evenodd" clip-rule="evenodd" d="M8.14038 26.0078H8.37476V26.81H8.13306L8.14038 26.0078ZM5.26196 26.0078H5.50366V26.81H5.26196V26.0078ZM7.37134 26.0078H7.62036V26.81H7.37134V26.0078ZM6.32397 26.0078H6.573V26.81H6.32397V26.0078Z" fill="white"/>
<path id="Vector_10" fill-rule="evenodd" clip-rule="evenodd" d="M7.53979 26.5721V26.8178H6.43384V26.5721H7.53979ZM7.61304 25.9434V26.1891H6.90991V25.9434H7.61304Z" fill="white"/>
</g>
<g id="Group_3">
<path id="Vector_11" fill-rule="evenodd" clip-rule="evenodd" d="M-0.648193 25.3652H2.94067V25.6037H-0.648193V25.3652ZM-0.113526 26.5793H0.135498V26.8178H-0.12085L-0.113526 26.5793ZM2.95532 26.5793V26.8178H2.23755V26.5721L2.95532 26.5793ZM3.33618 25.3652H3.5852V26.8105H3.33618V25.3652Z" fill="white"/>
<path id="Vector_12" fill-rule="evenodd" clip-rule="evenodd" d="M4.77271 26.5719V26.8176H3.4104V26.5719H4.77271ZM2.23853 26.001H2.48022V26.8176H2.23853V26.001Z" fill="white"/>
<path id="Vector_13" fill-rule="evenodd" clip-rule="evenodd" d="M4.56665 25.3652H4.81567V26.8105H4.56665V25.3652ZM3.95142 25.3652H4.19312V26.8105H3.95142V25.3652ZM0.670166 25.9434V26.1891H-0.648193V25.9434H0.670166ZM3.54858 25.9434V26.1891H2.23022V25.9434H3.54858Z" fill="white"/>
<path id="Vector_14" fill-rule="evenodd" clip-rule="evenodd" d="M2.23853 26.0078H2.48022V26.81H2.23853V26.0078Z" fill="white"/>
<path id="Vector_15" fill-rule="evenodd" clip-rule="evenodd" d="M2.23853 26.0078H2.48022V26.81H2.23853V26.0078Z" fill="white"/>
<path id="Vector_16" fill-rule="evenodd" clip-rule="evenodd" d="M2.23804 26.0078H2.47974V26.81H2.23804V26.0078ZM-0.640381 26.0078H-0.398682V26.81H-0.640381V26.0078ZM1.46899 26.0078H1.71069V26.81H1.46899V26.0078ZM0.421631 26.0078H0.670654V26.81H0.421631V26.0078Z" fill="white"/>
<path id="Vector_17" fill-rule="evenodd" clip-rule="evenodd" d="M1.63794 26.5721V26.8178H0.539307V26.5721H1.63794ZM1.71118 25.9434V26.1891H1.00806V25.9434H1.71118Z" fill="white"/>
</g>
<g id="Group_4">
<path id="Vector_18" fill-rule="evenodd" clip-rule="evenodd" d="M11.1057 25.3652H14.6946V25.6037H11.1057V25.3652ZM11.6404 26.5793H11.8894V26.8178H11.6404V26.5793ZM14.7092 26.5793V26.8178H13.9915V26.5721L14.7092 26.5793ZM15.0974 25.3652H15.3464V26.8105H15.0974V25.3652Z" fill="white"/>
<path id="Vector_19" fill-rule="evenodd" clip-rule="evenodd" d="M16.5266 26.5719V26.8176H15.1643V26.5719H16.5266ZM13.9924 26.001H14.2415V26.8176H13.9924V26.001Z" fill="white"/>
<path id="Vector_20" fill-rule="evenodd" clip-rule="evenodd" d="M16.3206 25.3652H16.5696V26.8105H16.3206V25.3652ZM15.7053 25.3652H15.9543V26.8105H15.698L15.7053 25.3652ZM12.4241 25.9434V26.1891H11.1057V25.9434H12.4241ZM15.3025 25.9434V26.1891H13.9841V25.9434H15.3025Z" fill="white"/>
<path id="Vector_21" fill-rule="evenodd" clip-rule="evenodd" d="M13.9924 26.0078H14.2415V26.81H13.9924V26.0078Z" fill="white"/>
<path id="Vector_22" fill-rule="evenodd" clip-rule="evenodd" d="M13.9924 26.0078H14.2415V26.81H13.9924V26.0078Z" fill="white"/>
<path id="Vector_23" fill-rule="evenodd" clip-rule="evenodd" d="M13.9919 26.0078H14.241V26.81H13.9919V26.0078ZM11.1135 26.0078H11.3625V26.81H11.1135V26.0078ZM13.2229 26.0078H13.4719V26.81H13.2229V26.0078ZM12.1755 26.0078H12.4246V26.81H12.1755V26.0078Z" fill="white"/>
<path id="Vector_24" fill-rule="evenodd" clip-rule="evenodd" d="M13.3987 26.5721V26.8178H12.2854V26.5721H13.3987ZM13.4719 25.9434V26.1891H12.7688V25.9434H13.4719Z" fill="white"/>
</g>
<g id="Group_5">
<path id="Vector_25" fill-rule="evenodd" clip-rule="evenodd" d="M16.9944 25.3652H20.5906V25.6037H17.0017L16.9944 25.3652ZM17.5364 26.5793H17.7781V26.8178H17.5364V26.5793ZM20.5979 26.5793V26.8178H19.8801V26.5721L20.5979 26.5793ZM20.9861 25.3652H21.2351V26.8105H20.9861V25.3652Z" fill="white"/>
<path id="Vector_26" fill-rule="evenodd" clip-rule="evenodd" d="M22.4207 26.5719V26.8176H21.0583V26.5719H22.4207ZM19.8792 26.001H20.1282V26.8176H19.8792V26.001Z" fill="white"/>
<path id="Vector_27" fill-rule="evenodd" clip-rule="evenodd" d="M22.217 25.3652H22.4661V26.8105H22.217V25.3652ZM21.5945 25.3652H21.8435V26.8105H21.5945V25.3652ZM18.3132 25.9434V26.1891H17.0022V25.9434H18.3132ZM21.1917 25.9434V26.1891H19.8806V25.9434H21.1917Z" fill="white"/>
<path id="Vector_28" fill-rule="evenodd" clip-rule="evenodd" d="M19.8792 26.0078H20.1282V26.81H19.8792V26.0078Z" fill="white"/>
<path id="Vector_29" fill-rule="evenodd" clip-rule="evenodd" d="M19.8792 26.0078H20.1282V26.81H19.8792V26.0078Z" fill="white"/>
<path id="Vector_30" fill-rule="evenodd" clip-rule="evenodd" d="M19.8806 26.0078H20.1296V26.81H19.8806V26.0078ZM17.0022 26.0078H17.2512V26.81H17.0022V26.0078ZM19.1116 26.0078H19.3606V26.81H19.1116V26.0078ZM18.0715 26.0078H18.3132V26.81H18.0715V26.0078Z" fill="white"/>
<path id="Vector_31" fill-rule="evenodd" clip-rule="evenodd" d="M19.2859 26.5721V26.8178H18.1799V26.5721H19.2859ZM19.3591 25.9434V26.1891H18.656V25.9434H19.3591Z" fill="white"/>
</g>
<g id="Group_6">
<path id="Vector_32" fill-rule="evenodd" clip-rule="evenodd" d="M22.9124 25.3652H26.5012V25.6037H22.9124V25.3652ZM23.447 26.5793H23.696V26.8178H23.447V26.5793ZM26.5159 26.5793V26.8178H25.7981V26.5721L26.5159 26.5793ZM26.9041 25.3652H27.1458V26.8105H26.9041V25.3652Z" fill="white"/>
<path id="Vector_33" fill-rule="evenodd" clip-rule="evenodd" d="M28.3313 26.5719V26.8176H26.969V26.5719H28.3313ZM25.7971 26.001H26.0461V26.8176H25.7971V26.001Z" fill="white"/>
<path id="Vector_34" fill-rule="evenodd" clip-rule="evenodd" d="M28.1272 25.3652H28.3762V26.8105H28.1272V25.3652ZM27.512 25.3652H27.761V26.8105H27.512V25.3652ZM24.2307 25.9434V26.1891H22.9124V25.9434H24.2307ZM27.1091 25.9434V26.1891H25.7908V25.9434H27.1091Z" fill="white"/>
<path id="Vector_35" fill-rule="evenodd" clip-rule="evenodd" d="M25.7971 26.0078H26.0461V26.81H25.7971V26.0078Z" fill="white"/>
<path id="Vector_36" fill-rule="evenodd" clip-rule="evenodd" d="M25.7971 26.0078H26.0461V26.81H25.7971V26.0078Z" fill="white"/>
<path id="Vector_37" fill-rule="evenodd" clip-rule="evenodd" d="M25.7986 26.0078H26.0476V26.81H25.7986V26.0078ZM22.9202 26.0078H23.1619V26.81H22.9202V26.0078ZM25.0295 26.0078H25.2786V26.81H25.0295V26.0078ZM23.9822 26.0078H24.2312V26.81H23.9749L23.9822 26.0078Z" fill="white"/>
<path id="Vector_38" fill-rule="evenodd" clip-rule="evenodd" d="M25.2053 26.5721V26.8178H24.092V26.5721H25.2053ZM25.2786 25.9434V26.1891H24.5608V25.9434H25.2786Z" fill="white"/>
</g>
<path id="Vector_39" fill-rule="evenodd" clip-rule="evenodd" d="M-7.22632 0H58.3987V12.1551H-7.22632V0Z" fill="#239F40"/>
<g id="Group_7">
<path id="Vector_40" fill-rule="evenodd" clip-rule="evenodd" d="M28.8596 25.3652H32.4485V25.6037H28.8596V25.3652ZM29.3943 26.5793H29.6433V26.8178H29.3943V26.5793ZM32.4631 26.5793V26.8178H31.738V26.5721L32.4631 26.5793ZM32.8513 25.3652H33.093V26.8105H32.8513V25.3652Z" fill="white"/>
<path id="Vector_41" fill-rule="evenodd" clip-rule="evenodd" d="M34.28 26.5719V26.8176H32.9177V26.5719H34.28ZM31.7459 26.001H31.9949V26.8176H31.7385L31.7459 26.001Z" fill="white"/>
<path id="Vector_42" fill-rule="evenodd" clip-rule="evenodd" d="M34.0818 25.3652H34.3235V26.8105H34.0818V25.3652ZM33.4592 25.3652H33.7083V26.8105H33.4592V25.3652ZM30.178 25.9434V26.1891H28.8596V25.9434H30.178ZM33.0564 25.9434V26.1891H31.738V25.9434H33.0564Z" fill="white"/>
<path id="Vector_43" fill-rule="evenodd" clip-rule="evenodd" d="M31.7385 26.0078H31.9949V26.81H31.7385V26.0078Z" fill="white"/>
<path id="Vector_44" fill-rule="evenodd" clip-rule="evenodd" d="M31.7385 26.0078H31.9949V26.81H31.7385V26.0078Z" fill="white"/>
<path id="Vector_45" fill-rule="evenodd" clip-rule="evenodd" d="M31.7385 26.0078H31.9949V26.81H31.7385V26.0078ZM28.8674 26.0078H29.1165V26.81H28.8674V26.0078ZM30.9768 26.0078H31.2258V26.81H30.9768V26.0078ZM29.9294 26.0078H30.1785V26.81H29.9294V26.0078Z" fill="white"/>
<path id="Vector_46" fill-rule="evenodd" clip-rule="evenodd" d="M31.1526 26.5721V26.8178H30.0393V26.5721H31.1526ZM31.2258 25.9434V26.1891H30.5227V25.9434H31.2258Z" fill="white"/>
</g>
<g id="Group_8">
<path id="Vector_47" fill-rule="evenodd" clip-rule="evenodd" d="M34.7698 25.3652H38.3586V25.6037H34.7698V25.3652ZM35.3044 26.5793H35.5535V26.8178H35.3044V26.5793ZM38.3806 26.5793V26.8178H37.6555V26.5721L38.3806 26.5793ZM38.7615 25.3652H39.0105V26.8105H38.7615V25.3652Z" fill="white"/>
<path id="Vector_48" fill-rule="evenodd" clip-rule="evenodd" d="M40.1907 26.5719V26.8176H38.8284V26.5719H40.1907ZM37.6565 26.001H37.9055V26.8176H37.6565V26.001Z" fill="white"/>
<path id="Vector_49" fill-rule="evenodd" clip-rule="evenodd" d="M39.9924 25.3652H40.2341V26.8105H39.9924V25.3652ZM39.3699 25.3652H39.6189V26.8105H39.3699V25.3652ZM36.0886 25.9434V26.1891H34.7776V25.9434H36.0886ZM38.967 25.9434V26.1891H37.656V25.9434H38.967Z" fill="white"/>
<path id="Vector_50" fill-rule="evenodd" clip-rule="evenodd" d="M37.6565 26.0078H37.9055V26.81H37.6565V26.0078Z" fill="white"/>
<path id="Vector_51" fill-rule="evenodd" clip-rule="evenodd" d="M37.6565 26.0078H37.9055V26.81H37.6565V26.0078Z" fill="white"/>
<path id="Vector_52" fill-rule="evenodd" clip-rule="evenodd" d="M37.656 26.0078H37.905V26.81H37.656V26.0078ZM34.7776 26.0078H35.0266V26.81H34.7776V26.0078ZM36.887 26.0078H37.136V26.81H36.887V26.0078ZM35.8396 26.0078H36.0886V26.81H35.8469L35.8396 26.0078Z" fill="white"/>
<path id="Vector_53" fill-rule="evenodd" clip-rule="evenodd" d="M37.0632 26.5721V26.8178H35.9573V26.5721H37.0632ZM37.1365 25.9434V26.1891H36.426V25.9434H37.1365Z" fill="white"/>
</g>
<g id="Group_9">
<path id="Vector_54" fill-rule="evenodd" clip-rule="evenodd" d="M40.6877 25.3652H44.2766V25.6037H40.6877V25.3652ZM41.2224 26.5793H41.4714V26.8178H41.2224V26.5793ZM44.2913 26.5793V26.8178H43.5735V26.5721L44.2913 26.5793ZM44.6721 25.3652H44.9211V26.8105H44.6721V25.3652Z" fill="white"/>
<path id="Vector_55" fill-rule="evenodd" clip-rule="evenodd" d="M46.1082 26.5719V26.8176H44.7458V26.5719H46.1082ZM43.5667 26.001H43.8157V26.8176H43.5667V26.001Z" fill="white"/>
<path id="Vector_56" fill-rule="evenodd" clip-rule="evenodd" d="M45.9026 25.3652H46.1516V26.8105H45.9026V25.3652ZM45.2874 25.3652H45.5291V26.8105H45.2874V25.3652ZM42.0061 25.9434V26.1891H40.6877V25.9434H42.0061ZM44.8845 25.9434V26.1891H43.5662V25.9434H44.8845Z" fill="white"/>
<path id="Vector_57" fill-rule="evenodd" clip-rule="evenodd" d="M43.5745 26.0078H43.8162V26.81H43.5745V26.0078Z" fill="white"/>
<path id="Vector_58" fill-rule="evenodd" clip-rule="evenodd" d="M43.5745 26.0078H43.8162V26.81H43.5745V26.0078Z" fill="white"/>
<path id="Vector_59" fill-rule="evenodd" clip-rule="evenodd" d="M43.5735 26.0088H43.8152V26.8109H43.5735V26.0088ZM40.6877 26.0088H40.9368V26.8109H40.6877V26.0088ZM42.8044 26.0088H43.0461V26.8109H42.8044V26.0088ZM41.7571 26.0088H42.0061V26.8109H41.7571V26.0088Z" fill="white"/>
<path id="Vector_60" fill-rule="evenodd" clip-rule="evenodd" d="M42.9734 26.5721V26.8178H41.8674V26.5721H42.9734ZM43.0466 25.9434V26.1891H42.3435V25.9434H43.0466Z" fill="white"/>
</g>
<g id="Group_10">
<path id="Vector_61" fill-rule="evenodd" clip-rule="evenodd" d="M46.637 25.3652H50.2258V25.6037H46.637V25.3652ZM47.1716 26.5793H47.4207V26.8178H47.1716V26.5793ZM50.2405 26.5793V26.8178H49.5227V26.5721L50.2405 26.5793ZM50.6213 25.3652H50.8704V26.8105H50.6213V25.3652Z" fill="white"/>
<path id="Vector_62" fill-rule="evenodd" clip-rule="evenodd" d="M52.0579 26.5719V26.8176H50.6956V26.5719H52.0579ZM49.5237 26.001H49.7654V26.8176H49.5237V26.001Z" fill="white"/>
<path id="Vector_63" fill-rule="evenodd" clip-rule="evenodd" d="M51.8518 25.3652H52.1008V26.8105H51.8518V25.3652ZM51.2366 25.3652H51.4783V26.8105H51.2366V25.3652ZM47.9553 25.9434V26.1891H46.637V25.9434H47.9553ZM50.8337 25.9434V26.1891H49.5154V25.9434H50.8337Z" fill="white"/>
<path id="Vector_64" fill-rule="evenodd" clip-rule="evenodd" d="M49.5237 26.0078H49.7654V26.81H49.5237V26.0078Z" fill="white"/>
<path id="Vector_65" fill-rule="evenodd" clip-rule="evenodd" d="M49.5237 26.0078H49.7654V26.81H49.5237V26.0078Z" fill="white"/>
<path id="Vector_66" fill-rule="evenodd" clip-rule="evenodd" d="M49.5232 26.0078H49.7649V26.81H49.5232V26.0078ZM46.6448 26.0078H46.8865V26.81H46.6448V26.0078ZM48.7541 26.0078H49.0032V26.81H48.7541V26.0078ZM47.7068 26.0078H47.9558V26.81H47.7068V26.0078Z" fill="white"/>
<path id="Vector_67" fill-rule="evenodd" clip-rule="evenodd" d="M48.9226 26.5721V26.8178H47.8167V26.5721H48.9226ZM48.9958 25.9434V26.1891H48.2927V25.9434H48.9958Z" fill="white"/>
</g>
<g id="Group_11">
<path id="Vector_68" fill-rule="evenodd" clip-rule="evenodd" d="M5.25415 10.3633H8.84302V10.609H5.25415V10.3633ZM5.78882 11.5918H6.03784V11.823H5.78882V11.5918ZM8.85767 11.5773V11.823H8.13989V11.5773H8.85767ZM9.23853 10.3633H9.48755V11.823H9.23853V10.3633Z" fill="white"/>
<path id="Vector_69" fill-rule="evenodd" clip-rule="evenodd" d="M10.6746 11.5768V11.8225H9.31226V11.5768H10.6746ZM8.14038 11.0059H8.37476V11.8225H8.13306L8.14038 11.0059Z" fill="white"/>
<path id="Vector_70" fill-rule="evenodd" clip-rule="evenodd" d="M10.469 10.3633H10.718V11.823H10.469V10.3633ZM9.85376 10.3633H10.0955V11.823H9.85376V10.3633ZM6.57251 10.9414V11.1871H5.25415V10.9486L6.57251 10.9414ZM9.45093 10.9414V11.1871H8.13257V10.9486L9.45093 10.9414Z" fill="white"/>
<path id="Vector_71" fill-rule="evenodd" clip-rule="evenodd" d="M8.14038 11.0059H8.37476V11.8225H8.13306L8.14038 11.0059Z" fill="white"/>
<path id="Vector_72" fill-rule="evenodd" clip-rule="evenodd" d="M8.14038 11.0059H8.37476V11.8225H8.13306L8.14038 11.0059Z" fill="white"/>
<path id="Vector_73" fill-rule="evenodd" clip-rule="evenodd" d="M8.14038 11.0059H8.37476V11.8225H8.13306L8.14038 11.0059ZM5.26196 11.0059H5.50366V11.8225H5.26196V11.0059ZM7.37134 11.0059H7.62036V11.8225H7.37134V11.0059ZM6.32397 11.0059H6.573V11.8225H6.32397V11.0059Z" fill="white"/>
<path id="Vector_74" fill-rule="evenodd" clip-rule="evenodd" d="M7.53979 11.5779V11.8236H6.43384V11.5779H7.53979ZM7.61304 10.9492V11.1877H6.90991V10.9492H7.61304Z" fill="white"/>
</g>
<g id="Group_12">
<path id="Vector_75" fill-rule="evenodd" clip-rule="evenodd" d="M-0.648193 10.3633H2.94067V10.609H-0.648193V10.3633ZM-0.113526 11.5918H0.135498V11.823H-0.12085L-0.113526 11.5918ZM2.95532 11.5773V11.823H2.23755V11.5773H2.95532ZM3.33618 10.3633H3.5852V11.823H3.33618V10.3633Z" fill="white"/>
<path id="Vector_76" fill-rule="evenodd" clip-rule="evenodd" d="M4.77271 11.5768V11.8225H3.4104V11.5768H4.77271ZM2.23853 11.0059H2.48022V11.8225H2.23853V11.0059Z" fill="white"/>
<path id="Vector_77" fill-rule="evenodd" clip-rule="evenodd" d="M4.56665 10.3633H4.81567V11.823H4.56665V10.3633ZM3.95142 10.3633H4.19312V11.823H3.95142V10.3633ZM0.670166 10.9414V11.1871H-0.648193V10.9486L0.670166 10.9414ZM3.54858 10.9414V11.1871H2.23022V10.9486L3.54858 10.9414Z" fill="white"/>
<path id="Vector_78" fill-rule="evenodd" clip-rule="evenodd" d="M2.23853 11.0059H2.48022V11.8225H2.23853V11.0059Z" fill="white"/>
<path id="Vector_79" fill-rule="evenodd" clip-rule="evenodd" d="M2.23853 11.0059H2.48022V11.8225H2.23853V11.0059Z" fill="white"/>
<path id="Vector_80" fill-rule="evenodd" clip-rule="evenodd" d="M2.23804 11.0059H2.47974V11.8225H2.23804V11.0059ZM-0.640381 11.0059H-0.398682V11.8225H-0.640381V11.0059ZM1.46899 11.0059H1.71069V11.8225H1.46899V11.0059ZM0.421631 11.0059H0.670654V11.8225H0.421631V11.0059Z" fill="white"/>
<path id="Vector_81" fill-rule="evenodd" clip-rule="evenodd" d="M1.63794 11.5779V11.8236H0.539307V11.5779H1.63794ZM1.71118 10.9492V11.1877H1.00806V10.9492H1.71118Z" fill="white"/>
</g>
<g id="Group_13">
<path id="Vector_82" fill-rule="evenodd" clip-rule="evenodd" d="M11.1057 10.3633H14.6946V10.609H11.1057V10.3633ZM11.6404 11.5918H11.8894V11.823H11.6404V11.5918ZM14.7092 11.5773V11.823H13.9915V11.5773H14.7092ZM15.0974 10.3633H15.3464V11.823H15.0974V10.3633Z" fill="white"/>
<path id="Vector_83" fill-rule="evenodd" clip-rule="evenodd" d="M16.5266 11.5768V11.8225H15.1643V11.5768H16.5266ZM13.9924 11.0059H14.2415V11.8225H13.9924V11.0059Z" fill="white"/>
<path id="Vector_84" fill-rule="evenodd" clip-rule="evenodd" d="M16.3206 10.3633H16.5696V11.823H16.3206V10.3633ZM15.7053 10.3633H15.9543V11.823H15.698L15.7053 10.3633ZM12.4241 10.9414V11.1871H11.1057V10.9486L12.4241 10.9414ZM15.3025 10.9414V11.1871H13.9841V10.9486L15.3025 10.9414Z" fill="white"/>
<path id="Vector_85" fill-rule="evenodd" clip-rule="evenodd" d="M13.9924 11.0059H14.2415V11.8225H13.9924V11.0059Z" fill="white"/>
<path id="Vector_86" fill-rule="evenodd" clip-rule="evenodd" d="M13.9924 11.0059H14.2415V11.8225H13.9924V11.0059Z" fill="white"/>
<path id="Vector_87" fill-rule="evenodd" clip-rule="evenodd" d="M13.9919 11.0059H14.241V11.8225H13.9919V11.0059ZM11.1135 11.0059H11.3625V11.8225H11.1135V11.0059ZM13.2229 11.0059H13.4719V11.8225H13.2229V11.0059ZM12.1755 11.0059H12.4246V11.8225H12.1755V11.0059Z" fill="white"/>
<path id="Vector_88" fill-rule="evenodd" clip-rule="evenodd" d="M13.3987 11.5779V11.8236H12.2854V11.5779H13.3987ZM13.4719 10.9492V11.1877H12.7688V10.9492H13.4719Z" fill="white"/>
</g>
<g id="Group_14">
<path id="Vector_89" fill-rule="evenodd" clip-rule="evenodd" d="M16.9944 10.3633H20.5906V10.609H17.0017L16.9944 10.3633ZM17.5364 11.5918H17.7781V11.823H17.5364V11.5918ZM20.5979 11.5773V11.823H19.8801V11.5773H20.5979ZM20.9861 10.3633H21.2351V11.823H20.9861V10.3633Z" fill="white"/>
<path id="Vector_90" fill-rule="evenodd" clip-rule="evenodd" d="M22.4207 11.5768V11.8225H21.0583V11.5768H22.4207ZM19.8792 11.0059H20.1282V11.8225H19.8792V11.0059Z" fill="white"/>
<path id="Vector_91" fill-rule="evenodd" clip-rule="evenodd" d="M22.217 10.3633H22.4661V11.823H22.217V10.3633ZM21.5945 10.3633H21.8435V11.823H21.5945V10.3633ZM18.3132 10.9414V11.1871H17.0022V10.9486L18.3132 10.9414ZM21.1917 10.9414V11.1871H19.8806V10.9486L21.1917 10.9414Z" fill="white"/>
<path id="Vector_92" fill-rule="evenodd" clip-rule="evenodd" d="M19.8792 11.0059H20.1282V11.8225H19.8792V11.0059Z" fill="white"/>
<path id="Vector_93" fill-rule="evenodd" clip-rule="evenodd" d="M19.8792 11.0059H20.1282V11.8225H19.8792V11.0059Z" fill="white"/>
<path id="Vector_94" fill-rule="evenodd" clip-rule="evenodd" d="M19.8806 11.0059H20.1296V11.8225H19.8806V11.0059ZM17.0022 11.0059H17.2512V11.8225H17.0022V11.0059ZM19.1116 11.0059H19.3606V11.8225H19.1116V11.0059ZM18.0715 11.0059H18.3132V11.8225H18.0715V11.0059Z" fill="white"/>
<path id="Vector_95" fill-rule="evenodd" clip-rule="evenodd" d="M19.2859 11.5779V11.8236H18.1799V11.5779H19.2859ZM19.3591 10.9492V11.1877H18.656V10.9492H19.3591Z" fill="white"/>
</g>
<g id="Group_15">
<path id="Vector_96" fill-rule="evenodd" clip-rule="evenodd" d="M22.9124 10.3633H26.5012V10.609H22.9124V10.3633ZM23.447 11.5918H23.696V11.823H23.447V11.5918ZM26.5159 11.5773V11.823H25.7981V11.5773H26.5159ZM26.9041 10.3633H27.1458V11.823H26.9041V10.3633Z" fill="white"/>
<path id="Vector_97" fill-rule="evenodd" clip-rule="evenodd" d="M28.3313 11.5768V11.8225H26.969V11.5768H28.3313ZM25.7971 11.0059H26.0461V11.8225H25.7971V11.0059Z" fill="white"/>
<path id="Vector_98" fill-rule="evenodd" clip-rule="evenodd" d="M28.1272 10.3633H28.3762V11.823H28.1272V10.3633ZM27.512 10.3633H27.761V11.823H27.512V10.3633ZM24.2307 10.9414V11.1871H22.9124V10.9486L24.2307 10.9414ZM27.1091 10.9414V11.1871H25.7908V10.9486L27.1091 10.9414Z" fill="white"/>
<path id="Vector_99" fill-rule="evenodd" clip-rule="evenodd" d="M25.7971 11.0059H26.0461V11.8225H25.7971V11.0059Z" fill="white"/>
<path id="Vector_100" fill-rule="evenodd" clip-rule="evenodd" d="M25.7971 11.0059H26.0461V11.8225H25.7971V11.0059Z" fill="white"/>
<path id="Vector_101" fill-rule="evenodd" clip-rule="evenodd" d="M25.7986 11.0059H26.0476V11.8225H25.7986V11.0059ZM22.9202 11.0059H23.1619V11.8225H22.9202V11.0059ZM25.0295 11.0059H25.2786V11.8225H25.0295V11.0059ZM23.9822 11.0059H24.2312V11.8225H23.9749L23.9822 11.0059Z" fill="white"/>
<path id="Vector_102" fill-rule="evenodd" clip-rule="evenodd" d="M25.2053 11.5779V11.8236H24.092V11.5779H25.2053ZM25.2786 10.9492V11.1877H24.5608V10.9492H25.2786Z" fill="white"/>
</g>
<g id="Group_16">
<path id="Vector_103" fill-rule="evenodd" clip-rule="evenodd" d="M28.8596 10.3633H32.4485V10.609H28.8596V10.3633ZM29.3943 11.5918H29.6433V11.823H29.3943V11.5918ZM32.4631 11.5773V11.823H31.738V11.5773H32.4631ZM32.8513 10.3633H33.093V11.823H32.8513V10.3633Z" fill="white"/>
<path id="Vector_104" fill-rule="evenodd" clip-rule="evenodd" d="M34.28 11.5768V11.8225H32.9177V11.5768H34.28ZM31.7459 11.0059H31.9949V11.8225H31.7385L31.7459 11.0059Z" fill="white"/>
<path id="Vector_105" fill-rule="evenodd" clip-rule="evenodd" d="M34.0818 10.3633H34.3235V11.823H34.0818V10.3633ZM33.4592 10.3633H33.7083V11.823H33.4592V10.3633ZM30.178 10.9414V11.1871H28.8596V10.9486L30.178 10.9414ZM33.0564 10.9414V11.1871H31.738V10.9486L33.0564 10.9414Z" fill="white"/>
<path id="Vector_106" fill-rule="evenodd" clip-rule="evenodd" d="M31.7385 11.0059H31.9949V11.8225H31.7385V11.0059Z" fill="white"/>
<path id="Vector_107" fill-rule="evenodd" clip-rule="evenodd" d="M31.7385 11.0059H31.9949V11.8225H31.7385V11.0059Z" fill="white"/>
<path id="Vector_108" fill-rule="evenodd" clip-rule="evenodd" d="M31.7385 11.0059H31.9949V11.8225H31.7385V11.0059ZM28.8674 11.0059H29.1165V11.8225H28.8674V11.0059ZM30.9768 11.0059H31.2258V11.8225H30.9768V11.0059ZM29.9294 11.0059H30.1785V11.8225H29.9294V11.0059Z" fill="white"/>
<path id="Vector_109" fill-rule="evenodd" clip-rule="evenodd" d="M31.1526 11.5779V11.8236H30.0393V11.5779H31.1526ZM31.2258 10.9492V11.1877H30.5227V10.9492H31.2258Z" fill="white"/>
</g>
<g id="Group_17">
<path id="Vector_110" fill-rule="evenodd" clip-rule="evenodd" d="M34.7698 10.3633H38.3586V10.609H34.7698V10.3633ZM35.3044 11.5918H35.5535V11.823H35.3044V11.5918ZM38.3806 11.5773V11.823H37.6555V11.5773H38.3806ZM38.7615 10.3633H39.0105V11.823H38.7615V10.3633Z" fill="white"/>
<path id="Vector_111" fill-rule="evenodd" clip-rule="evenodd" d="M40.1907 11.5768V11.8225H38.8284V11.5768H40.1907ZM37.6565 11.0059H37.9055V11.8225H37.6565V11.0059Z" fill="white"/>
<path id="Vector_112" fill-rule="evenodd" clip-rule="evenodd" d="M39.9924 10.3633H40.2341V11.823H39.9924V10.3633ZM39.3699 10.3633H39.6189V11.823H39.3699V10.3633ZM36.0886 10.9414V11.1871H34.7776V10.9486L36.0886 10.9414ZM38.967 10.9414V11.1871H37.656V10.9486L38.967 10.9414Z" fill="white"/>
<path id="Vector_113" fill-rule="evenodd" clip-rule="evenodd" d="M37.6565 11.0059H37.9055V11.8225H37.6565V11.0059Z" fill="white"/>
<path id="Vector_114" fill-rule="evenodd" clip-rule="evenodd" d="M37.6565 11.0059H37.9055V11.8225H37.6565V11.0059Z" fill="white"/>
<path id="Vector_115" fill-rule="evenodd" clip-rule="evenodd" d="M37.656 11.0059H37.905V11.8225H37.656V11.0059ZM34.7776 11.0059H35.0266V11.8225H34.7776V11.0059ZM36.887 11.0059H37.136V11.8225H36.887V11.0059ZM35.8396 11.0059H36.0886V11.8225H35.8469L35.8396 11.0059Z" fill="white"/>
<path id="Vector_116" fill-rule="evenodd" clip-rule="evenodd" d="M37.0632 11.5779V11.8236H35.9573V11.5779H37.0632ZM37.1365 10.9492V11.1877H36.426V10.9492H37.1365Z" fill="white"/>
</g>
<g id="Group_18">
<path id="Vector_117" fill-rule="evenodd" clip-rule="evenodd" d="M40.6877 10.3633H44.2766V10.609H40.6877V10.3633ZM41.2224 11.5918H41.4714V11.823H41.2224V11.5918ZM44.2913 11.5773V11.823H43.5735V11.5773H44.2913ZM44.6721 10.3633H44.9211V11.823H44.6721V10.3633Z" fill="white"/>
<path id="Vector_118" fill-rule="evenodd" clip-rule="evenodd" d="M46.1082 11.5768V11.8225H44.7458V11.5768H46.1082ZM43.5667 11.0059H43.8157V11.8225H43.5667V11.0059Z" fill="white"/>
<path id="Vector_119" fill-rule="evenodd" clip-rule="evenodd" d="M45.9026 10.3633H46.1516V11.823H45.9026V10.3633ZM45.2874 10.3633H45.5291V11.823H45.2874V10.3633ZM42.0061 10.9414V11.1871H40.6877V10.9486L42.0061 10.9414ZM44.8845 10.9414V11.1871H43.5662V10.9486L44.8845 10.9414Z" fill="white"/>
<path id="Vector_120" fill-rule="evenodd" clip-rule="evenodd" d="M43.5745 11.0059H43.8162V11.8225H43.5745V11.0059Z" fill="white"/>
<path id="Vector_121" fill-rule="evenodd" clip-rule="evenodd" d="M43.5745 11.0059H43.8162V11.8225H43.5745V11.0059Z" fill="white"/>
<path id="Vector_122" fill-rule="evenodd" clip-rule="evenodd" d="M43.5735 11.0068H43.8152V11.8234H43.5735V11.0068ZM40.6877 11.0068H40.9368V11.8234H40.6877V11.0068ZM42.8044 11.0068H43.0461V11.8234H42.8044V11.0068ZM41.7571 11.0068H42.0061V11.8234H41.7571V11.0068Z" fill="white"/>
<path id="Vector_123" fill-rule="evenodd" clip-rule="evenodd" d="M42.9734 11.5779V11.8236H41.8674V11.5779H42.9734ZM43.0466 10.9492V11.1877H42.3435V10.9492H43.0466Z" fill="white"/>
</g>
<g id="Group_19">
<path id="Vector_124" fill-rule="evenodd" clip-rule="evenodd" d="M46.637 10.3633H50.2258V10.609H46.637V10.3633ZM47.1716 11.5918H47.4207V11.823H47.1716V11.5918ZM50.2405 11.5773V11.823H49.5227V11.5773H50.2405ZM50.6213 10.3633H50.8704V11.823H50.6213V10.3633Z" fill="white"/>
<path id="Vector_125" fill-rule="evenodd" clip-rule="evenodd" d="M52.0579 11.5768V11.8225H50.6956V11.5768H52.0579ZM49.5237 11.0059H49.7654V11.8225H49.5237V11.0059Z" fill="white"/>
<path id="Vector_126" fill-rule="evenodd" clip-rule="evenodd" d="M51.8518 10.3633H52.1008V11.823H51.8518V10.3633ZM51.2366 10.3633H51.4783V11.823H51.2366V10.3633ZM47.9553 10.9414V11.1871H46.637V10.9486L47.9553 10.9414ZM50.8337 10.9414V11.1871H49.5154V10.9486L50.8337 10.9414Z" fill="white"/>
<path id="Vector_127" fill-rule="evenodd" clip-rule="evenodd" d="M49.5237 11.0059H49.7654V11.8225H49.5237V11.0059Z" fill="white"/>
<path id="Vector_128" fill-rule="evenodd" clip-rule="evenodd" d="M49.5237 11.0059H49.7654V11.8225H49.5237V11.0059Z" fill="white"/>
<path id="Vector_129" fill-rule="evenodd" clip-rule="evenodd" d="M49.5232 11.0059H49.7649V11.8225H49.5232V11.0059ZM46.6448 11.0059H46.8865V11.8225H46.6448V11.0059ZM48.7541 11.0059H49.0032V11.8225H48.7541V11.0059ZM47.7068 11.0059H47.9558V11.8225H47.7068V11.0059Z" fill="white"/>
<path id="Vector_130" fill-rule="evenodd" clip-rule="evenodd" d="M48.9226 11.5779V11.8236H47.8167V11.5779H48.9226ZM48.9958 10.9492V11.1877H48.2927V10.9492H48.9958Z" fill="white"/>
</g>
<path id="Vector_131" fill-rule="evenodd" clip-rule="evenodd" d="M1.79712 24.5342H2.23657V25.293H1.79712V24.5342ZM13.5525 24.5342H13.9919V25.293H13.5525V24.5342ZM-7.22632 24.5342H-6.78687V25.293H-7.22632V24.5342ZM-1.25708 24.5342H-0.817627V25.293H-1.25708V24.5342ZM4.66821 24.5342H5.10767V25.293H4.66821V24.5342ZM7.5979 24.5342H8.03735V25.293H7.5979V24.5342ZM10.5935 24.5342H11.033V25.293H10.5935V24.5342ZM16.4822 24.5342H16.9216V25.293H16.4822V24.5342ZM31.3503 24.5342H31.7971V25.293H31.3577L31.3503 24.5342ZM19.4778 24.5342H19.9172V25.293H19.4778V24.5342ZM22.4075 24.5342H22.8469V25.293H22.4075V24.5342ZM25.3738 24.5342H25.8132V25.293H25.3738V24.5342ZM28.3328 24.5342H28.7722V25.293H28.3328V24.5342ZM52.0046 24.5342H52.4441V25.293H52.0046V24.5342ZM34.2288 24.5342H34.6682V25.293H34.2288V24.5342ZM37.217 24.5342H37.6565V25.293H37.217V24.5342ZM40.2419 24.5342H40.6814V25.293H40.2419V24.5342ZM43.0837 24.5342H43.5232V25.293H43.0837V24.5342ZM46.1086 24.5342H46.5481V25.293H46.1086V24.5342ZM49.0676 24.5342H49.5071V25.293H49.0676V24.5342ZM57.8347 24.5342H58.2742V25.293H57.8347V24.5342ZM54.9929 24.5342H55.4324V25.293H54.9929V24.5342ZM-4.25269 24.5342H-3.81323V25.293H-4.25269V24.5342Z" fill="#D90000"/>
<path id="Vector_132" fill-rule="evenodd" clip-rule="evenodd" d="M1.79712 11.75H2.23657V12.5088H1.79712V11.75ZM13.5525 11.75H13.9919V12.5088H13.5525V11.75ZM-7.22632 11.75H-6.78687V12.5088H-7.22632V11.75ZM-1.25708 11.75H-0.817627V12.5088H-1.25708V11.75ZM4.66821 11.75H5.10767V12.5088H4.66821V11.75ZM7.5979 11.75H8.03735V12.5088H7.5979V11.75ZM10.5935 11.75H11.033V12.5088H10.5935V11.75ZM16.4822 11.75H16.9216V12.5088H16.4822V11.75ZM31.3503 11.75H31.7971V12.5088H31.3577L31.3503 11.75ZM19.4778 11.75H19.9172V12.5088H19.4778V11.75ZM22.4075 11.75H22.8469V12.5088H22.4075V11.75ZM25.3738 11.75H25.8132V12.5088H25.3738V11.75ZM28.3328 11.75H28.7722V12.5088H28.3328V11.75ZM52.0046 11.75H52.4441V12.5088H52.0046V11.75ZM34.2288 11.75H34.6682V12.5088H34.2288V11.75ZM37.217 11.75H37.6565V12.5088H37.217V11.75ZM40.2419 11.75H40.6814V12.5088H40.2419V11.75ZM43.0837 11.75H43.5232V12.5088H43.0837V11.75ZM46.1086 11.75H46.5481V12.5088H46.1086V11.75ZM49.0676 11.75H49.5071V12.5088H49.0676V11.75ZM57.8347 11.75H58.2742V12.5088H57.8347V11.75ZM54.9929 11.75H55.4324V12.5088H54.9929V11.75ZM-4.25269 11.75H-3.81323V12.5088H-4.25269V11.75Z" fill="#239E3F"/>
<g id="Group_20">
<path id="Vector_133" fill-rule="evenodd" clip-rule="evenodd" d="M27.3302 14.2725C27.9454 15.024 29.8571 19.1576 26.1803 21.8748C24.4445 23.1611 25.5211 23.2189 25.5724 23.4357C28.3556 21.9832 29.2565 20.0031 29.2345 18.2326C29.2199 16.4693 28.2677 14.9084 27.3302 14.2725Z" fill="#DA0000"/>
<path id="Vector_134" fill-rule="evenodd" clip-rule="evenodd" d="M27.6965 14.0781C28.3761 14.4861 28.9552 15.038 29.3921 15.6939C29.8291 16.3497 30.1128 17.0932 30.2228 17.8705C30.3329 18.6478 30.2665 19.4396 30.0284 20.1885C29.7904 20.9373 29.3867 21.6247 28.8464 22.2008C30.8386 21.7672 33.3874 15.957 27.6965 14.0781ZM23.4778 14.0781C22.7987 14.4867 22.2202 15.0391 21.784 15.6952C21.3478 16.3514 21.0648 17.095 20.9555 17.8723C20.8461 18.6496 20.9132 19.4411 21.1518 20.1897C21.3904 20.9383 21.7946 21.6252 22.3352 22.2008C20.3357 21.7672 17.7942 15.957 23.4778 14.0781Z" fill="#DA0000"/>
<path id="Vector_135" fill-rule="evenodd" clip-rule="evenodd" d="M23.8444 14.2734C23.2292 15.025 21.3175 19.1586 24.9943 21.8758C26.7228 23.1621 25.6535 23.2199 25.6022 23.4367C22.819 21.9842 21.9181 20.0041 21.9401 18.2336C21.9547 16.4703 22.9069 14.9094 23.8444 14.2734Z" fill="#DA0000"/>
<path id="Vector_136" fill-rule="evenodd" clip-rule="evenodd" d="M29.1165 23.0604C28.0251 23.0748 26.6555 22.9158 25.6375 22.3883C25.8059 22.7135 25.9451 22.9158 26.1135 23.2338C27.0803 23.3277 28.4207 23.4361 29.1165 23.0604ZM22.1584 23.0604C23.2498 23.0748 24.6194 22.9158 25.6375 22.3883C25.469 22.7135 25.3298 22.9158 25.1614 23.2338C24.1946 23.3277 22.8542 23.4361 22.1584 23.0604ZM24.158 13.0371C24.3777 13.6152 24.9563 13.702 25.5715 13.3623C26.0256 13.6225 26.7214 13.6441 26.9631 13.066C27.1462 14.4969 25.6228 14.15 25.5715 13.8754C25.0002 14.4174 23.9456 14.1066 24.158 13.0371Z" fill="#DA0000"/>
<path id="Vector_137" fill-rule="evenodd" clip-rule="evenodd" d="M25.6169 23.9631L26.1882 23.3127L26.2688 14.6336L25.5876 14.041L24.9065 14.6047L25.0457 23.3488L25.6169 23.9631Z" fill="#DA0000"/>
</g>
</g>
</g>
</g>
</g>
<defs>
<clipPath id="clip0_1_226">
<rect width="50" height="37" fill="white" transform="translate(0.586182)"/>
</clipPath>
</defs>
</svg>
