<svg width="51" height="37" viewBox="0 0 51 37" fill="none" xmlns="http://www.w3.org/2000/svg">
<g id="Kenya (KE)" clip-path="url(#clip0_1_445)">
<path id="Vector" d="M0.200684 0H50.2007V37H0.200684V0Z" fill="white"/>
<path id="Vector_2" d="M0.200684 0H50.2007V11.1H0.200684V0Z" fill="#1D1F21"/>
<path id="Vector_3" d="M0.200684 25.9004H50.2007V37.0004H0.200684V25.9004Z" fill="#006600"/>
<g id="b">
<path id="Vector_4" d="M18.4976 29.4844L18.9194 29.7157L29.8647 10.9844C30.4976 10.8457 30.8491 10.2444 31.2007 9.64317C31.4351 9.22692 32.3726 7.6313 32.771 5.55005C31.6591 6.52498 30.7169 7.67337 29.9819 8.94942C29.6304 9.55067 29.2788 10.1519 29.4429 10.7763L18.4976 29.4844Z" fill="#1D1F21" stroke="#1D1F21" stroke-width="0.375" stroke-miterlimit="10"/>
<path id="Vector_5" d="M18.4976 29.4844L18.9194 29.7157L29.8647 10.9844C30.4976 10.8457 30.8491 10.2444 31.2007 9.64317C31.4351 9.22692 32.3726 7.6313 32.771 5.55005C31.6591 6.52498 30.7169 7.67337 29.9819 8.94942C29.6304 9.55067 29.2788 10.1519 29.4429 10.7763L18.4976 29.4844Z" fill="white"/>
</g>
<g id="Group">
<path id="Vector_6" d="M31.9038 29.4844L31.4819 29.7157L20.5366 10.9844C19.9038 10.8457 19.5522 10.2444 19.2007 9.64317C18.9663 9.22692 18.0288 7.6313 17.6304 5.55005C18.7423 6.52498 19.6845 7.67337 20.4194 8.94942C20.771 9.55067 21.1226 10.1519 20.9585 10.7763L31.9038 29.4844Z" fill="#1D1F21" stroke="#1D1F21" stroke-width="0.375" stroke-miterlimit="10"/>
<path id="Vector_7" d="M31.9038 29.4844L31.4819 29.7157L20.5366 10.9844C19.9038 10.8457 19.5522 10.2444 19.2007 9.64317C18.9663 9.22692 18.0288 7.6313 17.6304 5.55005C18.7423 6.52498 19.6845 7.67337 20.4194 8.94942C20.771 9.55067 21.1226 10.1519 20.9585 10.7763L31.9038 29.4844Z" fill="white"/>
</g>
<path id="Vector_8" d="M50.2397 12.9504H29.6538C28.9507 11.1004 26.6069 7.40039 25.2007 7.40039C23.7944 7.40039 21.4507 11.1004 20.7476 12.9504H0.185059V24.0504H20.7476C21.4507 25.9004 23.7944 29.6004 25.2007 29.6004C26.6069 29.6004 28.9507 25.9004 29.6538 24.0504H50.2397V12.9504Z" fill="#BB0000"/>
<path id="c" d="M29.6538 24.05C30.3569 22.2 30.8257 20.35 30.8257 18.5C30.8257 16.65 30.3569 14.8 29.6538 12.95C28.9507 14.8 28.4819 16.65 28.4819 18.5C28.4819 20.35 28.9507 22.2 29.6538 24.05Z" fill="#1D1F21"/>
<path id="Vector_9" d="M20.7476 24.05C20.0444 22.2 19.5757 20.35 19.5757 18.5C19.5757 16.65 20.0444 14.8 20.7476 12.95C21.4507 14.8 21.9194 16.65 21.9194 18.5C21.9194 20.35 21.4507 22.2 20.7476 24.05Z" fill="#1D1F21"/>
<g id="Group_2">
<path id="Vector_10" d="M25.2007 19.8873C25.7185 19.8873 26.1382 19.2661 26.1382 18.4998C26.1382 17.7335 25.7185 17.1123 25.2007 17.1123C24.6829 17.1123 24.2632 17.7335 24.2632 18.4998C24.2632 19.2661 24.6829 19.8873 25.2007 19.8873Z" fill="white"/>
<path id="d" d="M25.4351 19.8408C25.4351 19.8408 26.3726 21.6908 26.3726 24.6971C26.3726 27.7033 25.4351 29.5533 25.4351 29.5533V19.8408Z" fill="white"/>
<path id="Vector_11" d="M24.9663 17.1592C24.9663 17.1592 24.0288 15.3092 24.0288 12.3029C24.0288 9.29668 24.9663 7.44668 24.9663 7.44668V17.1592Z" fill="white"/>
<path id="Vector_12" d="M24.9663 19.8408C24.9663 19.8408 24.0288 21.6908 24.0288 24.6971C24.0288 27.7033 24.9663 29.5533 24.9663 29.5533V19.8408Z" fill="white"/>
<path id="Vector_13" d="M25.4351 17.1592C25.4351 17.1592 26.3726 15.3092 26.3726 12.3029C26.3726 9.29668 25.4351 7.44668 25.4351 7.44668V17.1592Z" fill="white"/>
</g>
</g>
<defs>
<clipPath id="clip0_1_445">
<rect width="50" height="37" fill="white" transform="translate(0.200684)"/>
</clipPath>
</defs>
</svg>
