<svg width="51" height="37" viewBox="0 0 51 37" fill="none" xmlns="http://www.w3.org/2000/svg">
<g id="Lebanon (LB)" clip-path="url(#clip0_1_553)">
<g id="Clip path group">
<mask id="mask0_1_553" style="mask-type:luminance" maskUnits="userSpaceOnUse" x="0" y="0" width="51" height="37">
<g id="a">
<path id="Vector" d="M0.287109 0H50.2822V37H0.287109V0Z" fill="white"/>
</g>
</mask>
<g mask="url(#mask0_1_553)">
<g id="Group">
<g id="Group_2">
<path id="Vector_2" fill-rule="evenodd" clip-rule="evenodd" d="M-2.83984 27.75H53.4102V37H-2.83984V27.75ZM-2.83984 0H53.4102V9.25H-2.83984V0Z" fill="#FF0000"/>
<path id="Vector_3" fill-rule="evenodd" clip-rule="evenodd" d="M-2.83984 9.25H53.4102V27.75H-2.83984V9.25Z" fill="white"/>
</g>
<path id="Vector_4" d="M24.9987 9.39492C24.4274 10.515 24.0465 10.515 23.0944 11.2738C22.7135 11.6424 22.1423 11.8303 22.904 12.2133C22.1349 12.5818 21.7541 12.7697 21.3732 13.5213L21.5636 13.7092C21.5636 13.7092 22.2961 13.3623 22.3254 13.5213C22.4572 13.673 21.3732 14.2439 21.234 14.3379L20.4284 14.8438C19.4689 15.5881 18.8903 15.4002 18.3263 16.5275L20.2306 16.3396C20.6115 17.6549 19.2785 17.8428 18.3263 18.4064L16.7956 19.3459C17.1838 20.6611 18.3263 19.9096 19.2785 19.5338L19.4689 19.7217V20.0975L17.5646 21.0369C17.5646 21.0369 15.3088 22.3088 15.2721 22.3521C15.2575 22.4244 15.2721 22.7279 15.2721 22.7279C16.0339 22.9158 17.1764 23.1037 17.9455 22.7279C18.8976 22.3521 19.0881 21.9764 20.2306 21.9764C19.1309 22.823 17.8102 23.3443 16.422 23.4795V24.2311C17.5646 24.2311 18.3263 24.2311 19.2785 24.0432L21.7541 23.2916C22.3254 23.2916 22.904 23.8553 22.7062 24.4189C22.1423 26.4857 19.8498 26.11 19.0881 27.801L22.1349 26.6664C22.8966 26.2906 23.6584 25.9221 24.6105 26.11C25.7531 26.4857 25.7531 27.2373 27.2765 27.6131L26.8957 26.6736C27.2765 26.8615 27.6574 26.8615 28.0456 27.0494C28.9977 27.4252 29.1881 27.801 30.3307 27.6131C29.3786 26.4857 29.1881 26.6736 28.4264 25.9221C27.6647 24.7947 27.2765 23.1037 28.4264 22.9158L29.7594 23.2916C31.0924 23.4795 31.0924 23.1037 32.9967 23.8553C34.1466 24.2311 34.5275 24.7947 35.8532 24.4189C35.2892 23.1037 33.1945 22.1643 31.8542 21.7885C33.3849 20.849 32.9967 22.1643 35.0988 21.6006V21.2248C33.5827 20.0902 33.0041 19.1508 30.9093 19.1508L34.154 18.775V18.3992C34.154 18.3992 30.9533 17.5754 30.88 17.5393C30.902 17.4453 30.9826 17.3008 31.195 17.2141C31.8029 17.6043 33.634 17.5609 33.7438 17.5537C33.6852 17.0912 32.8136 16.7082 32.0592 16.3324C32.0592 16.3324 28.7853 14.3451 28.7707 14.1717C28.8366 13.6658 30.111 14.2512 31.4806 14.6414C31.0998 13.8898 30.3381 13.5141 29.5763 13.3262L30.7189 13.1383C29.9572 11.4473 28.0529 11.6352 26.9103 10.8836C26.1413 10.3199 26.1413 9.94414 24.9987 9.3877V9.39492Z" fill="#007900"/>
<path id="Vector_5" fill-rule="evenodd" clip-rule="evenodd" d="M22.9414 21.8969C23.0806 21.4561 23.2637 21.0586 22.4141 20.6756C21.5645 20.2926 22.8389 22.2004 22.9414 21.9041V21.8969ZM23.9448 21.008C23.7764 21.0297 23.6812 21.644 24.0254 21.8174C24.4062 21.8752 24.0986 21.0152 23.9448 21.008ZM24.9336 20.9358C24.7578 20.9936 24.7505 21.8608 25.373 21.7018C26.0029 21.55 25.373 20.8707 24.9336 20.943V20.9358ZM26.0908 18.7172C26.2227 18.5004 26.0835 17.6332 25.5488 17.9945C25.0068 18.3631 25.915 18.775 26.0908 18.7172ZM24.9189 17.9945C25.0874 17.9295 25.1021 17.3947 24.626 17.5393C24.1646 17.6766 24.7944 18.1029 24.9189 17.9945ZM23.8643 18.2041C23.8643 18.2041 23.5347 17.7561 23.2783 17.85C22.9634 18.1535 23.8862 18.2113 23.8643 18.2041ZM20.2314 19.635C20.3706 19.6494 21.4033 19.4688 21.7622 19.0713C22.1211 18.6738 19.9238 19.2375 19.9238 19.2447C19.9238 19.252 20.1289 19.5988 20.2314 19.635ZM30.5659 17.1057C30.6172 17.0117 30.0166 16.5926 29.6577 16.7588C29.5625 17.0695 30.5659 17.1707 30.5659 17.1057ZM28.5298 16.094C28.647 15.935 28.2734 15.2774 27.5264 15.6459C26.7793 16.0072 28.3101 16.3541 28.5298 16.1012V16.094ZM26.1787 15.7109C26.1787 15.7109 26.3618 15.1184 26.8086 15.234C27.3213 15.617 26.2007 15.7326 26.1787 15.7109ZM25.7393 15.2629C25.666 15.0967 25.2046 15.1906 24.6699 15.5447C24.1279 15.8844 25.9004 15.6459 25.7393 15.2557V15.2629ZM27.1089 13.6658C27.1089 13.6658 27.585 13.449 27.7314 13.6658C27.9292 13.9766 27.1016 13.6658 27.1089 13.6658ZM26.7061 13.4563C26.6108 13.2684 26.0835 13.2467 26.0981 13.5285C26.0103 13.7453 26.7866 13.702 26.7061 13.4563ZM25.4463 13.4563C25.395 13.3479 24.6406 13.4563 24.4209 13.9043C24.7871 14.0777 25.6147 13.7381 25.4463 13.4563ZM23.835 13.9115C23.835 13.9115 22.8535 14.5113 22.7876 14.9449C22.8169 15.3207 24.0181 14.2656 24.0181 14.2656C24.0181 14.2656 24.1206 13.8465 23.8423 13.9115H23.835ZM22.7437 13.3695C22.7729 13.2467 23.2344 12.9649 23.271 12.9865C23.3076 13.1094 22.8975 13.4418 22.7437 13.3695ZM23.0586 15.6531C23.0806 15.4725 21.8867 15.4869 22.3335 16.0289C22.7144 16.4842 23.1392 15.7326 23.0586 15.6531ZM21.96 16.4264C21.9014 16.3108 21.8135 15.9928 21.6523 15.9639C21.5132 15.9639 20.7954 16.1084 20.7368 16.224C20.7075 16.318 21.0371 16.9033 21.147 16.9178C21.2788 16.9684 21.9453 16.4842 21.9673 16.4264H21.96ZM28.4346 20.4154C28.4712 20.2854 29.7017 19.8734 30.1191 20.2709C30.6172 20.943 28.4053 20.6322 28.4346 20.4154ZM31.8037 21.2031C32.0747 20.7551 30.9761 20.2203 30.5146 20.7334C30.6758 21.3477 31.584 21.5717 31.8037 21.2031Z" fill="white" stroke="white" stroke-width="0.375" stroke-linecap="round" stroke-linejoin="round"/>
</g>
</g>
</g>
</g>
<defs>
<clipPath id="clip0_1_553">
<rect width="50" height="37" fill="white" transform="translate(0.285156)"/>
</clipPath>
</defs>
</svg>
