<svg width="218" height="44" viewBox="0 0 218 44" fill="none" xmlns="http://www.w3.org/2000/svg">
<g id="Logo_Translate_DarkBlue_Horizontal.svg">
<g id="Group">
<path id="Vector" d="M3.05664 41.2503L16.0559 2.85254H21.5556L34.5548 41.2503H29.3551L25.7553 29.551H11.7561L8.05635 41.2503H3.05664ZM14.756 19.7516L12.9561 25.6512H24.4554L22.6555 19.7516C21.9556 17.6517 21.2556 15.4518 20.6556 13.3519C20.0557 11.2521 19.3557 9.05218 18.7557 6.85231H18.5558C17.9558 9.05218 17.3558 11.2521 16.7559 13.3519C16.1559 15.4518 15.4559 17.5517 14.756 19.7516Z" fill="#616263"/>
<path id="Vector_2" d="M40.0547 41.2497V2.75195H67.2531V41.2497H62.3534V6.85172H44.8544V41.2497H40.0547Z" fill="#616263"/>
<path id="Vector_3" d="M77.8516 41.2497V2.75195H105.05V41.2497H100.15V6.85172H82.6513V41.2497H77.8516Z" fill="#616263"/>
</g>
<g id="Group_2">
<path id="Vector_4" d="M112.75 14.8515L115.45 7.05151H116.55L119.25 14.8515H118.15L117.45 12.4515H114.55L113.75 14.8515H112.75ZM115.15 10.4515L114.75 11.6515H117.15L116.75 10.4515C116.65 10.0515 116.45 9.55151 116.35 9.15151C116.25 8.75151 116.05 8.25151 115.95 7.85151C115.85 8.35151 115.75 8.75151 115.55 9.15151C115.45 9.55151 115.35 9.95151 115.15 10.4515Z" fill="#616263"/>
<path id="Vector_5" d="M122.55 14.9513C122.05 14.9513 121.55 14.8513 121.15 14.5513C120.75 14.3513 120.45 13.9513 120.15 13.5513C119.95 13.0513 119.75 12.5513 119.75 11.9513C119.75 11.2513 119.85 10.7513 120.15 10.2513C120.45 9.75132 120.75 9.45132 121.15 9.25132C121.55 9.05132 122.05 8.85132 122.55 8.85132C122.95 8.85132 123.25 8.95132 123.55 9.05132C123.85 9.15132 124.05 9.35132 124.25 9.55132L123.75 10.1513C123.55 9.95132 123.45 9.85132 123.25 9.75132C123.05 9.65132 122.85 9.65132 122.65 9.65132C122.25 9.65132 121.95 9.75132 121.75 9.95132C121.45 10.1513 121.25 10.4513 121.15 10.7513C120.95 11.0513 120.95 11.4513 120.95 11.9513C120.95 12.6513 121.15 13.1513 121.45 13.5513C121.75 13.9513 122.25 14.1513 122.75 14.1513C123.05 14.1513 123.25 14.0513 123.55 13.9513C123.75 13.8513 123.95 13.6513 124.15 13.5513L124.55 14.2513C124.25 14.4513 123.95 14.6513 123.65 14.7513C123.15 14.8513 122.85 14.9513 122.55 14.9513Z" fill="#616263"/>
<path id="Vector_6" d="M127.749 14.9513C127.249 14.9513 126.749 14.8513 126.349 14.5513C125.949 14.3513 125.649 13.9513 125.349 13.5513C125.149 13.0513 124.949 12.5513 124.949 11.9513C124.949 11.2513 125.049 10.7513 125.349 10.2513C125.649 9.75132 125.949 9.45132 126.349 9.25132C126.749 9.05132 127.249 8.85132 127.749 8.85132C128.149 8.85132 128.449 8.95132 128.749 9.05132C129.049 9.15132 129.249 9.35132 129.449 9.55132L128.949 10.1513C128.749 9.95132 128.649 9.85132 128.449 9.75132C128.249 9.65132 128.049 9.65132 127.849 9.65132C127.449 9.65132 127.149 9.75132 126.949 9.95132C126.649 10.1513 126.449 10.4513 126.349 10.7513C126.149 11.0513 126.149 11.4513 126.149 11.9513C126.149 12.6513 126.349 13.1513 126.649 13.5513C126.949 13.9513 127.449 14.1513 127.949 14.1513C128.249 14.1513 128.449 14.0513 128.749 13.9513C128.949 13.8513 129.149 13.6513 129.349 13.5513L129.749 14.2513C129.449 14.4513 129.149 14.6513 128.849 14.7513C128.349 14.8513 128.049 14.9513 127.749 14.9513Z" fill="#616263"/>
<path id="Vector_7" d="M132.848 14.9513C132.348 14.9513 131.948 14.8513 131.548 14.5513C131.148 14.3513 130.848 13.9513 130.548 13.5513C130.248 13.0513 130.148 12.5513 130.148 11.9513C130.148 11.2513 130.248 10.7513 130.548 10.2513C130.848 9.75132 131.148 9.45132 131.548 9.25132C131.948 9.05132 132.448 8.85132 132.848 8.85132C133.348 8.85132 133.748 8.95132 134.148 9.25132C134.548 9.45132 134.848 9.85132 135.148 10.2513C135.448 10.7513 135.548 11.2513 135.548 11.9513C135.548 12.5513 135.448 13.1513 135.148 13.5513C134.848 14.0513 134.548 14.3513 134.148 14.5513C133.748 14.8513 133.348 14.9513 132.848 14.9513ZM132.848 14.1513C133.348 14.1513 133.748 13.9513 134.048 13.5513C134.348 13.1513 134.548 12.6513 134.548 11.9513C134.548 11.2513 134.348 10.7513 134.048 10.3513C133.748 9.95132 133.348 9.75132 132.848 9.75132C132.348 9.75132 131.948 9.95132 131.648 10.3513C131.348 10.7513 131.148 11.3513 131.148 11.9513C131.148 12.6513 131.348 13.1513 131.648 13.5513C131.948 13.9513 132.348 14.1513 132.848 14.1513Z" fill="#616263"/>
<path id="Vector_8" d="M141.548 16.8515V14.7515H137.048V9.05151H138.048V14.0515H140.648V9.05151H141.648V14.0515H142.448V14.6515L142.348 16.8515H141.548Z" fill="#616263"/>
<path id="Vector_9" d="M143.748 14.8515V9.05151H144.748V11.4515C144.748 11.7515 144.748 12.1515 144.748 12.4515C144.748 12.8515 144.748 13.1515 144.648 13.5515C144.748 13.3515 144.848 13.1515 145.048 12.9515C145.148 12.7515 145.348 12.5515 145.448 12.3515L147.648 9.05151H148.548V14.8515H147.548V12.4515C147.548 12.1515 147.548 11.7515 147.548 11.4515C147.548 11.0515 147.548 10.7515 147.648 10.3515C147.548 10.5515 147.448 10.7515 147.248 10.9515C147.048 11.1515 146.948 11.3515 146.848 11.5515L144.648 14.8515H143.748Z" fill="#616263"/>
<path id="Vector_10" d="M151.747 14.9509C151.247 14.9509 150.847 14.8509 150.547 14.5509C150.247 14.2509 150.047 13.8509 150.047 13.3509C150.047 12.7509 150.347 12.2509 150.947 11.8509C151.547 11.5509 152.447 11.2509 153.647 11.1509C153.647 10.9509 153.647 10.6509 153.547 10.4509C153.447 10.2509 153.347 10.0509 153.147 9.95093C152.947 9.85093 152.747 9.75093 152.447 9.75093C152.147 9.75093 151.847 9.85093 151.547 9.95093C151.247 10.0509 150.947 10.2509 150.747 10.3509L150.347 9.65093C150.647 9.45093 150.947 9.35093 151.347 9.15093C151.747 8.95093 152.147 8.95093 152.647 8.95093C153.347 8.95093 153.847 9.15093 154.147 9.65093C154.447 10.0509 154.647 10.6509 154.647 11.3509V14.9509H153.847L153.747 14.2509C153.447 14.4509 153.147 14.6509 152.847 14.8509C152.547 14.8509 152.147 14.9509 151.747 14.9509ZM152.047 14.1509C152.347 14.1509 152.547 14.0509 152.847 13.9509C153.047 13.8509 153.347 13.6509 153.647 13.3509V11.7509C152.647 11.8509 152.047 12.0509 151.647 12.2509C151.247 12.4509 151.047 12.7509 151.047 13.1509C151.047 13.4509 151.147 13.7509 151.347 13.8509C151.547 14.0509 151.747 14.1509 152.047 14.1509Z" fill="#616263"/>
<path id="Vector_11" d="M160.947 16.8515V14.7515H156.447V9.05151H157.447V14.0515H160.047V9.05151H161.047V14.0515H161.847V14.6515L161.747 16.8515H160.947Z" fill="#616263"/>
<path id="Vector_12" d="M163.047 14.8515V9.05151H164.047V11.4515C164.047 11.7515 164.047 12.1515 164.047 12.4515C164.047 12.8515 164.047 13.1515 163.947 13.5515C164.047 13.3515 164.147 13.1515 164.347 12.9515C164.447 12.7515 164.647 12.5515 164.747 12.3515L166.947 9.05151H167.847V14.8515H166.847V12.4515C166.847 12.1515 166.847 11.7515 166.847 11.4515C166.847 11.0515 166.847 10.7515 166.947 10.3515C166.847 10.5515 166.747 10.7515 166.547 10.9515C166.347 11.1515 166.247 11.3515 166.147 11.5515L163.947 14.8515H163.047Z" fill="#616263"/>
<path id="Vector_13" d="M112.75 25.8508V20.0508H117.35V25.8508H116.35V20.8508H113.65V25.8508H112.75Z" fill="#616263"/>
<path id="Vector_14" d="M119.349 28.3507V20.0507H120.149L120.249 20.7507C120.549 20.5507 120.849 20.3507 121.149 20.1507C121.449 19.9507 121.749 19.9507 122.149 19.9507C122.849 19.9507 123.449 20.2507 123.849 20.7507C124.249 21.2507 124.449 22.0507 124.449 22.9507C124.449 23.6507 124.349 24.1507 124.049 24.6507C123.849 25.1507 123.549 25.4507 123.149 25.7507C122.749 25.9507 122.349 26.1507 121.949 26.1507C121.649 26.1507 121.449 26.0507 121.149 25.9507C120.849 25.8507 120.649 25.6507 120.349 25.4507V26.4507V28.4507H119.349V28.3507ZM121.749 25.1507C122.249 25.1507 122.649 24.9507 122.949 24.5507C123.249 24.1507 123.449 23.5507 123.449 22.8507C123.449 22.2507 123.349 21.6507 123.049 21.3507C122.849 20.9507 122.449 20.7507 121.849 20.7507C121.649 20.7507 121.349 20.8507 121.149 20.9507C120.849 21.0507 120.649 21.2507 120.349 21.5507V24.5507C120.649 24.7507 120.849 24.9507 121.149 25.0507C121.349 25.1507 121.549 25.1507 121.749 25.1507Z" fill="#616263"/>
<path id="Vector_15" d="M128.249 26.0509C127.749 26.0509 127.349 25.9509 126.949 25.6509C126.549 25.4509 126.249 25.0509 125.949 24.6509C125.649 24.1509 125.549 23.6509 125.549 23.0509C125.549 22.3509 125.649 21.8509 125.949 21.3509C126.249 20.8509 126.549 20.5509 126.949 20.3509C127.349 20.1509 127.849 19.9509 128.249 19.9509C128.749 19.9509 129.149 20.0509 129.549 20.3509C129.949 20.5509 130.249 20.9509 130.549 21.3509C130.849 21.8509 130.949 22.3509 130.949 23.0509C130.949 23.6509 130.849 24.2509 130.549 24.6509C130.249 25.1509 129.949 25.4509 129.549 25.6509C129.149 25.9509 128.749 26.0509 128.249 26.0509ZM128.249 25.2509C128.749 25.2509 129.149 25.0509 129.449 24.6509C129.749 24.2509 129.949 23.7509 129.949 23.0509C129.949 22.3509 129.749 21.8509 129.449 21.4509C129.149 21.0509 128.749 20.8509 128.249 20.8509C127.749 20.8509 127.349 21.0509 127.049 21.4509C126.749 21.8509 126.549 22.4509 126.549 23.0509C126.549 23.7509 126.749 24.2509 127.049 24.6509C127.349 25.0509 127.749 25.2509 128.249 25.2509Z" fill="#616263"/>
<path id="Vector_16" d="M135.448 28.3507V26.4507V25.5507C135.248 25.6507 135.148 25.7507 134.948 25.8507C134.748 25.9507 134.548 25.9507 134.348 25.9507C133.648 25.9507 133.148 25.6507 132.748 25.1507C132.348 24.6507 132.148 23.8507 132.148 22.9507C132.148 22.3507 132.248 21.7507 132.448 21.3507C132.648 20.8507 132.948 20.5507 133.248 20.2507C133.548 20.0507 133.948 19.8507 134.348 19.8507C134.548 19.8507 134.748 19.8507 134.948 19.9507C135.148 20.0507 135.348 20.1507 135.448 20.2507V19.3507V17.2507H136.448V19.3507V20.2507C136.648 20.1507 136.848 20.0507 137.048 19.9507C137.248 19.8507 137.448 19.8507 137.748 19.8507C138.448 19.8507 138.948 20.1507 139.348 20.6507C139.748 21.1507 139.848 21.9507 139.848 22.8507C139.848 23.5507 139.748 24.0507 139.548 24.5507C139.348 25.0507 139.048 25.3507 138.748 25.6507C138.448 25.8507 138.048 26.0507 137.648 26.0507C137.448 26.0507 137.248 26.0507 137.048 25.9507C136.848 25.8507 136.648 25.7507 136.448 25.6507V26.5507V28.4507H135.448V28.3507ZM134.448 25.1507C134.648 25.1507 134.748 25.1507 134.948 25.0507C135.148 24.9507 135.248 24.8507 135.448 24.7507V21.1507C135.248 21.0507 135.148 20.9507 134.948 20.8507C134.748 20.7507 134.648 20.7507 134.448 20.7507C134.048 20.7507 133.748 20.9507 133.448 21.3507C133.148 21.7507 133.048 22.2507 133.048 22.9507C133.048 23.6507 133.148 24.1507 133.448 24.5507C133.748 25.0507 134.048 25.1507 134.448 25.1507ZM137.348 25.1507C137.748 25.1507 138.048 24.9507 138.348 24.5507C138.648 24.1507 138.748 23.5507 138.748 22.8507C138.748 22.2507 138.648 21.6507 138.448 21.3507C138.248 20.9507 137.848 20.7507 137.448 20.7507C137.248 20.7507 137.148 20.7507 136.948 20.8507C136.748 20.9507 136.648 21.0507 136.448 21.1507V24.7507C136.648 24.9507 136.848 25.0507 136.948 25.0507C137.048 25.1507 137.148 25.1507 137.348 25.1507Z" fill="#616263"/>
<path id="Vector_17" d="M143.647 26.0509C143.147 26.0509 142.647 25.9509 142.247 25.6509C141.847 25.4509 141.447 25.0509 141.247 24.6509C141.047 24.1509 140.847 23.6509 140.847 23.0509C140.847 22.4509 140.947 21.8509 141.247 21.4509C141.547 20.9509 141.847 20.6509 142.247 20.3509C142.647 20.1509 143.047 19.9509 143.547 19.9509C144.247 19.9509 144.847 20.1509 145.247 20.6509C145.647 21.1509 145.847 21.8509 145.847 22.6509C145.847 22.7509 145.847 22.8509 145.847 22.9509C145.847 23.0509 145.847 23.1509 145.847 23.2509H141.947C141.947 23.8509 142.147 24.3509 142.547 24.7509C142.847 25.1509 143.347 25.2509 143.947 25.2509C144.247 25.2509 144.447 25.2509 144.747 25.1509C144.947 25.0509 145.247 24.9509 145.447 24.8509L145.747 25.4509C145.547 25.6509 145.247 25.7509 144.947 25.8509C144.347 25.9509 144.047 26.0509 143.647 26.0509ZM141.747 22.5509H144.847C144.847 21.9509 144.747 21.5509 144.447 21.2509C144.147 20.9509 143.847 20.7509 143.347 20.7509C142.947 20.7509 142.547 20.9509 142.247 21.2509C142.047 21.4509 141.847 21.9509 141.747 22.5509Z" fill="#616263"/>
<path id="Vector_18" d="M149.448 26.0509C148.948 26.0509 148.448 25.9509 148.048 25.6509C147.648 25.4509 147.348 25.0509 147.048 24.6509C146.848 24.1509 146.648 23.6509 146.648 23.0509C146.648 22.3509 146.748 21.8509 147.048 21.3509C147.348 20.8509 147.648 20.5509 148.048 20.3509C148.448 20.1509 148.948 19.9509 149.448 19.9509C149.848 19.9509 150.148 20.0509 150.448 20.1509C150.748 20.2509 150.948 20.4509 151.148 20.6509L150.648 21.2509C150.448 21.0509 150.348 20.9509 150.148 20.8509C149.948 20.7509 149.748 20.7509 149.548 20.7509C149.148 20.7509 148.848 20.8509 148.648 21.0509C148.348 21.2509 148.148 21.5509 148.048 21.8509C147.848 22.1509 147.848 22.5509 147.848 23.0509C147.848 23.7509 148.048 24.2509 148.348 24.6509C148.648 25.0509 149.148 25.2509 149.648 25.2509C149.948 25.2509 150.148 25.1509 150.448 25.0509C150.648 24.9509 150.848 24.7509 151.048 24.6509L151.448 25.3509C151.148 25.5509 150.848 25.7509 150.548 25.8509C150.148 25.9509 149.848 26.0509 149.448 26.0509Z" fill="#616263"/>
<path id="Vector_19" d="M154.648 26.0507C154.148 26.0507 153.648 25.9507 153.248 25.6507C152.848 25.4507 152.548 25.0507 152.248 24.6507C152.048 24.1507 151.848 23.6507 151.848 23.0507C151.848 22.3507 151.948 21.8507 152.248 21.3507C152.548 20.8507 152.848 20.5507 153.248 20.3507C153.648 20.1507 154.148 19.9507 154.648 19.9507C155.048 19.9507 155.348 20.0507 155.648 20.1507C155.948 20.2507 156.148 20.4507 156.348 20.6507L155.848 21.2507C155.648 21.0507 155.548 20.9507 155.348 20.8507C155.148 20.7507 154.948 20.7507 154.748 20.7507C154.348 20.7507 154.048 20.8507 153.848 21.0507C153.548 21.2507 153.348 21.5507 153.248 21.8507C153.048 22.1507 153.048 22.5507 153.048 23.0507C153.048 23.7507 153.248 24.2507 153.548 24.6507C153.848 25.0507 154.348 25.2507 154.848 25.2507C155.148 25.2507 155.348 25.1507 155.648 25.0507C155.848 24.9507 156.048 24.7507 156.248 24.6507L156.648 25.3507C156.348 25.5507 156.048 25.7507 155.748 25.8507C155.348 25.9507 155.048 26.0507 154.648 26.0507Z" fill="#616263"/>
<path id="Vector_20" d="M157.847 25.8505V20.0505H158.847V22.4505C158.847 22.7505 158.847 23.1505 158.847 23.4505C158.847 23.8505 158.847 24.1505 158.747 24.5505C158.847 24.3505 158.947 24.1505 159.147 23.9505C159.247 23.7505 159.447 23.5505 159.547 23.3505L161.747 20.0505H162.647V25.8505H161.647V23.4505C161.647 23.1505 161.647 22.7505 161.647 22.4505C161.647 22.0505 161.647 21.7505 161.747 21.3505C161.647 21.5505 161.547 21.7505 161.347 21.9505C161.147 22.1505 161.047 22.3505 160.947 22.5505L158.747 25.8505H157.847Z" fill="#616263"/>
<path id="Vector_21" d="M166.848 26.0509C166.348 26.0509 165.948 25.9509 165.548 25.6509C165.148 25.4509 164.848 25.0509 164.548 24.6509C164.248 24.2509 164.148 23.6509 164.148 23.0509C164.148 22.3509 164.248 21.8509 164.548 21.3509C164.848 20.8509 165.148 20.5509 165.548 20.3509C165.948 20.1509 166.448 19.9509 166.848 19.9509C167.348 19.9509 167.748 20.0509 168.148 20.3509C168.548 20.5509 168.848 20.9509 169.148 21.3509C169.448 21.8509 169.548 22.3509 169.548 23.0509C169.548 23.6509 169.448 24.2509 169.148 24.6509C168.848 25.1509 168.548 25.4509 168.148 25.6509C167.748 25.9509 167.348 26.0509 166.848 26.0509ZM166.848 25.2509C167.348 25.2509 167.748 25.0509 168.048 24.6509C168.348 24.2509 168.548 23.7509 168.548 23.0509C168.548 22.3509 168.348 21.8509 168.048 21.4509C167.748 21.0509 167.348 20.8509 166.848 20.8509C166.348 20.8509 165.948 21.0509 165.648 21.4509C165.348 21.8509 165.148 22.4509 165.148 23.0509C165.148 23.7509 165.348 24.2509 165.648 24.6509C165.948 25.0509 166.348 25.2509 166.848 25.2509Z" fill="#616263"/>
<path id="Vector_22" d="M171.046 25.8508V20.0508H172.046V22.4508H174.846V20.0508H175.846V25.8508H174.846V23.2508H172.046V25.8508H171.046Z" fill="#616263"/>
<path id="Vector_23" d="M179.145 26.0505C178.645 26.0505 178.245 25.9505 177.945 25.6505C177.645 25.3505 177.445 24.9505 177.445 24.4505C177.445 23.8505 177.745 23.3505 178.345 22.9505C178.945 22.6505 179.845 22.3505 181.045 22.2505C181.045 22.0505 181.045 21.7505 180.945 21.5505C180.845 21.3505 180.745 21.1505 180.545 21.0505C180.345 20.9505 180.145 20.8505 179.845 20.8505C179.545 20.8505 179.245 20.9505 178.945 21.0505C178.645 21.1505 178.345 21.3505 178.145 21.4505L177.745 20.7505C178.045 20.5505 178.345 20.4505 178.745 20.2505C179.145 20.0505 179.545 20.0505 180.045 20.0505C180.745 20.0505 181.245 20.2505 181.545 20.7505C181.845 21.1505 182.045 21.7505 182.045 22.4505V26.0505H181.145L181.045 25.3505C180.745 25.5505 180.445 25.7505 180.145 25.9505C179.845 25.9505 179.445 26.0505 179.145 26.0505ZM179.345 25.2505C179.645 25.2505 179.845 25.1505 180.145 25.0505C180.345 24.9505 180.645 24.7505 180.945 24.4505V22.8505C179.945 22.9505 179.345 23.1505 178.945 23.3505C178.545 23.5505 178.345 23.8505 178.345 24.2505C178.345 24.5505 178.445 24.8505 178.645 24.9505C178.845 25.1505 179.145 25.2505 179.345 25.2505Z" fill="#616263"/>
<path id="Vector_24" d="M183.445 26.0505C183.345 26.0505 183.245 26.0505 183.145 26.0505C183.045 26.0505 182.945 26.0505 182.845 25.9505L183.045 25.0505H183.145H183.245C183.445 25.0505 183.645 24.9505 183.745 24.7505C183.845 24.5505 183.945 24.2505 184.045 23.8505C184.145 23.2505 184.245 22.5505 184.245 21.9505C184.345 21.3505 184.345 20.6505 184.445 20.0505H188.045V25.8505H187.045V20.8505H185.245C185.145 21.3505 185.145 21.9505 185.045 22.4505C184.945 22.9505 184.945 23.5505 184.845 24.0505C184.845 25.3505 184.345 26.0505 183.445 26.0505Z" fill="#616263"/>
<path id="Vector_25" d="M190.146 25.8505V20.0505H191.146V22.2505H192.246C192.946 22.2505 193.446 22.3505 193.946 22.6505C194.346 22.9505 194.546 23.3505 194.546 24.0505C194.546 24.6505 194.346 25.1505 193.946 25.4505C193.546 25.7505 192.946 25.8505 192.246 25.8505H190.146ZM191.146 25.0505H192.146C193.146 25.0505 193.546 24.6505 193.546 23.9505C193.546 23.5505 193.446 23.3505 193.146 23.1505C192.946 22.9505 192.546 22.8505 192.046 22.8505H191.046V25.0505H191.146Z" fill="#616263"/>
<path id="Vector_26" d="M196.045 25.8505V20.0505H197.045V22.4505H199.845V20.0505H200.845V25.8505H199.845V23.2505H197.045V25.8505H196.045Z" fill="#616263"/>
<path id="Vector_27" d="M202.746 25.8505V20.0505H203.746V22.2505H204.546C205.246 22.2505 205.746 22.3505 206.246 22.6505C206.646 22.9505 206.846 23.3505 206.846 24.0505C206.846 24.6505 206.646 25.1505 206.246 25.4505C205.846 25.7505 205.246 25.8505 204.546 25.8505H202.746ZM203.646 25.0505H204.346C205.346 25.0505 205.746 24.6505 205.746 23.9505C205.746 23.5505 205.646 23.3505 205.346 23.1505C205.146 22.9505 204.746 22.8505 204.246 22.8505H203.546V25.0505H203.646ZM207.846 25.8505V20.0505H208.846V25.8505H207.846Z" fill="#616263"/>
<path id="Vector_28" d="M209.945 25.8505L211.845 22.8505L210.045 20.0505H211.145L211.945 21.3505C212.045 21.5505 212.145 21.6505 212.245 21.8505C212.345 22.0505 212.445 22.1505 212.545 22.3505C212.645 22.1505 212.745 22.0505 212.845 21.8505C212.945 21.6505 213.045 21.5505 213.145 21.3505L213.845 20.0505H214.845L213.045 22.9505L214.945 25.8505H213.845L213.045 24.4505C212.945 24.2505 212.845 24.0505 212.745 23.9505C212.645 23.7505 212.545 23.6505 212.445 23.4505C212.345 23.6505 212.245 23.7505 212.145 23.9505C212.045 24.1505 211.945 24.2505 211.845 24.4505L211.045 25.8505H209.945Z" fill="#616263"/>
<path id="Vector_29" d="M112.75 36.9501V31.1501H117.35V36.9501H116.35V31.9501H113.65V36.9501H112.75Z" fill="#616263"/>
<path id="Vector_30" d="M121.749 37.0499C121.249 37.0499 120.749 36.95 120.349 36.65C119.949 36.45 119.549 36.05 119.349 35.65C119.149 35.15 118.949 34.6499 118.949 34.0499C118.949 33.4499 119.049 32.85 119.349 32.45C119.649 31.95 119.949 31.65 120.349 31.35C120.749 31.15 121.149 30.95 121.649 30.95C122.349 30.95 122.949 31.15 123.349 31.65C123.749 32.15 123.949 32.85 123.949 33.65C123.949 33.75 123.949 33.85 123.949 33.95C123.949 34.05 123.949 34.15 123.949 34.25H120.049C120.049 34.85 120.249 35.35 120.649 35.75C120.949 36.15 121.449 36.25 122.049 36.25C122.349 36.25 122.549 36.25 122.849 36.15C123.049 36.05 123.349 35.9499 123.549 35.8499L123.849 36.45C123.649 36.65 123.349 36.7499 123.049 36.8499C122.449 37.0499 122.149 37.0499 121.749 37.0499ZM119.949 33.5499H123.049C123.049 32.9499 122.949 32.55 122.649 32.25C122.349 31.95 122.049 31.75 121.549 31.75C121.149 31.75 120.749 31.95 120.449 32.25C120.149 32.55 119.949 33.0499 119.949 33.5499Z" fill="#616263"/>
<path id="Vector_31" d="M125.349 39.3499V31.0499H126.149L126.249 31.75C126.549 31.55 126.849 31.35 127.149 31.15C127.449 30.95 127.749 30.95 128.149 30.95C128.849 30.95 129.449 31.25 129.849 31.75C130.249 32.25 130.449 33.05 130.449 33.95C130.449 34.65 130.349 35.15 130.049 35.65C129.849 36.15 129.549 36.45 129.149 36.75C128.749 36.95 128.349 37.15 127.949 37.15C127.649 37.15 127.449 37.05 127.149 36.95C126.849 36.85 126.649 36.65 126.349 36.45V37.45V39.45H125.349V39.3499ZM127.749 36.25C128.249 36.25 128.649 36.05 128.949 35.65C129.249 35.25 129.449 34.65 129.449 33.95C129.449 33.35 129.349 32.75 129.049 32.45C128.849 32.05 128.449 31.85 127.849 31.85C127.649 31.85 127.349 31.9499 127.149 32.0499C126.849 32.1499 126.649 32.35 126.349 32.65V35.65C126.649 35.85 126.849 36.05 127.149 36.15C127.249 36.25 127.549 36.25 127.749 36.25Z" fill="#616263"/>
<path id="Vector_32" d="M134.249 37.0499C133.749 37.0499 133.249 36.95 132.849 36.65C132.449 36.45 132.049 36.05 131.849 35.65C131.649 35.15 131.449 34.6499 131.449 34.0499C131.449 33.4499 131.549 32.85 131.849 32.45C132.149 31.95 132.449 31.65 132.849 31.35C133.249 31.15 133.649 30.95 134.149 30.95C134.849 30.95 135.449 31.15 135.849 31.65C136.249 32.15 136.449 32.85 136.449 33.65C136.449 33.75 136.449 33.85 136.449 33.95C136.449 34.05 136.449 34.15 136.449 34.25H132.549C132.549 34.85 132.749 35.35 133.149 35.75C133.449 36.15 133.949 36.25 134.549 36.25C134.849 36.25 135.049 36.25 135.349 36.15C135.549 36.05 135.849 35.9499 136.049 35.8499L136.349 36.45C136.149 36.65 135.849 36.7499 135.549 36.8499C135.049 37.0499 134.649 37.0499 134.249 37.0499ZM132.449 33.5499H135.549C135.549 32.9499 135.449 32.55 135.149 32.25C134.849 31.95 134.549 31.75 134.049 31.75C133.649 31.75 133.249 31.95 132.949 32.25C132.749 32.55 132.549 33.0499 132.449 33.5499Z" fill="#616263"/>
<path id="Vector_33" d="M137.847 36.9501V31.1501H140.047C140.647 31.1501 141.247 31.2501 141.547 31.4501C141.947 31.6501 142.147 32.0501 142.147 32.5501C142.147 32.8501 142.047 33.1501 141.847 33.3501C141.647 33.5501 141.447 33.7501 141.147 33.7501C141.447 33.8501 141.747 33.9501 142.047 34.1501C142.247 34.3501 142.447 34.6501 142.447 35.1501C142.447 35.7501 142.247 36.1501 141.847 36.4501C141.447 36.7501 140.847 36.8501 140.247 36.8501H137.847V36.9501ZM138.847 33.5501H139.947C140.447 33.5501 140.747 33.4501 140.947 33.3501C141.147 33.1501 141.247 32.9501 141.247 32.7501C141.247 32.4501 141.147 32.2501 140.947 32.1501C140.747 31.9501 140.447 31.9501 139.947 31.9501H138.747V33.5501H138.847ZM138.847 36.2501H140.147C140.647 36.2501 140.947 36.1501 141.247 35.9501C141.447 35.7501 141.647 35.5501 141.647 35.2501C141.647 34.9501 141.547 34.7501 141.247 34.5501C141.047 34.3501 140.647 34.2501 140.147 34.2501H138.947V36.2501H138.847Z" fill="#616263"/>
<path id="Vector_34" d="M146.147 37.0499C145.647 37.0499 145.247 36.95 144.847 36.65C144.447 36.45 144.147 36.05 143.847 35.65C143.547 35.15 143.447 34.6499 143.447 34.0499C143.447 33.3499 143.547 32.8499 143.847 32.3499C144.147 31.8499 144.447 31.55 144.847 31.35C145.247 31.15 145.747 30.95 146.147 30.95C146.647 30.95 147.047 31.05 147.447 31.35C147.847 31.55 148.147 31.9499 148.447 32.3499C148.747 32.8499 148.847 33.3499 148.847 34.0499C148.847 34.6499 148.747 35.25 148.447 35.65C148.147 36.15 147.847 36.45 147.447 36.65C147.147 36.95 146.647 37.0499 146.147 37.0499ZM146.147 36.25C146.647 36.25 147.047 36.05 147.347 35.65C147.647 35.25 147.847 34.7499 147.847 34.0499C147.847 33.3499 147.647 32.85 147.347 32.45C147.047 32.05 146.647 31.85 146.147 31.85C145.647 31.85 145.247 32.05 144.947 32.45C144.647 32.85 144.447 33.4499 144.447 34.0499C144.447 34.7499 144.647 35.25 144.947 35.65C145.247 36.05 145.647 36.25 146.147 36.25Z" fill="#616263"/>
<path id="Vector_35" d="M150.648 36.9498V39.0498H149.848L149.748 36.8498V36.2498H150.048C150.148 36.1498 150.248 36.0498 150.348 35.9498C150.448 35.8498 150.548 35.5498 150.648 35.2498C150.748 34.9498 150.848 34.4498 150.848 33.8498L151.148 31.2498H154.748V36.2498H155.548V36.8498L155.448 39.0498H154.648V36.9498H150.648ZM151.648 33.9498C151.548 34.5498 151.548 34.9498 151.348 35.3498C151.248 35.7498 151.148 35.9498 150.948 36.1498H153.648V31.9498H151.748L151.648 33.9498Z" fill="#616263"/>
<path id="Vector_36" d="M159.847 36.9505V34.6505C159.647 34.6505 159.447 34.7505 159.347 34.7505C159.147 34.7505 158.947 34.7505 158.747 34.7505C158.047 34.7505 157.447 34.5505 157.047 34.2505C156.647 33.9505 156.447 33.4505 156.447 32.6505V31.0505H157.447V32.6505C157.447 33.0505 157.547 33.3505 157.847 33.5505C158.047 33.7505 158.447 33.8505 159.047 33.8505C159.247 33.8505 159.347 33.8505 159.547 33.8505C159.647 33.8505 159.847 33.8505 160.047 33.7505V31.0505H161.047V36.8505H159.847V36.9505Z" fill="#616263"/>
<path id="Vector_37" d="M162.847 36.9501V31.1501H163.847V33.5501C163.847 33.8501 163.847 34.2501 163.847 34.5501C163.847 34.9501 163.847 35.2501 163.747 35.6501C163.847 35.4501 163.947 35.2501 164.147 35.0501C164.247 34.8501 164.447 34.6501 164.547 34.4501L166.747 31.1501H167.647V36.9501H166.647V34.5501C166.647 34.2501 166.647 33.8501 166.647 33.5501C166.647 33.1501 166.647 32.8501 166.747 32.4501C166.647 32.6501 166.547 32.8501 166.347 33.0501C166.147 33.2501 166.047 33.4501 165.947 33.6501L163.747 36.9501H162.847Z" fill="#616263"/>
<path id="Vector_38" d="M169.547 36.9502V31.1502H170.547V33.5502H171.647L172.247 32.2502C172.447 31.8502 172.547 31.6502 172.747 31.4502C172.947 31.2502 173.047 31.1502 173.247 31.0502C173.447 30.9502 173.647 30.9502 173.847 30.9502C173.947 30.9502 174.047 30.9502 174.147 31.0502L173.947 31.9502C173.947 31.9502 173.847 31.9502 173.747 31.9502C173.547 31.9502 173.447 31.9502 173.347 32.0502C173.247 32.1502 173.047 32.3502 172.947 32.7502L172.447 33.8502L174.447 36.9502H173.347L171.747 34.3502H170.647V36.9502H169.547Z" fill="#616263"/>
<path id="Vector_39" d="M177.547 37.0499C177.047 37.0499 176.647 36.95 176.247 36.65C175.847 36.45 175.547 36.05 175.247 35.65C174.947 35.25 174.847 34.6499 174.847 34.0499C174.847 33.3499 174.947 32.8499 175.247 32.3499C175.547 31.8499 175.847 31.55 176.247 31.35C176.647 31.15 177.147 30.95 177.547 30.95C178.047 30.95 178.447 31.05 178.847 31.35C179.247 31.55 179.547 31.9499 179.847 32.3499C180.147 32.8499 180.247 33.3499 180.247 34.0499C180.247 34.6499 180.147 35.25 179.847 35.65C179.547 36.05 179.247 36.45 178.847 36.65C178.547 36.95 178.047 37.0499 177.547 37.0499ZM177.547 36.25C178.047 36.25 178.447 36.05 178.747 35.65C179.047 35.25 179.247 34.7499 179.247 34.0499C179.247 33.3499 179.047 32.85 178.747 32.45C178.447 32.05 178.047 31.85 177.547 31.85C177.047 31.85 176.647 32.05 176.347 32.45C176.047 32.85 175.847 33.4499 175.847 34.0499C175.847 34.7499 176.047 35.25 176.347 35.65C176.647 36.05 177.047 36.25 177.547 36.25Z" fill="#616263"/>
<path id="Vector_40" d="M181.845 36.9501V31.1501H184.045C184.645 31.1501 185.245 31.2501 185.545 31.4501C185.945 31.6501 186.145 32.0501 186.145 32.5501C186.145 32.8501 186.045 33.1501 185.845 33.3501C185.645 33.5501 185.445 33.7501 185.145 33.7501C185.445 33.8501 185.745 33.9501 186.045 34.1501C186.245 34.3501 186.445 34.6501 186.445 35.1501C186.445 35.7501 186.245 36.1501 185.845 36.4501C185.445 36.7501 184.845 36.8501 184.245 36.8501H181.845V36.9501ZM182.745 33.5501H183.845C184.345 33.5501 184.645 33.4501 184.845 33.3501C185.045 33.1501 185.145 32.9501 185.145 32.7501C185.145 32.4501 185.045 32.2501 184.845 32.1501C184.645 31.9501 184.345 31.9501 183.845 31.9501H182.645V33.5501H182.745ZM182.745 36.2501H184.045C184.545 36.2501 184.845 36.1501 185.145 35.9501C185.345 35.7501 185.545 35.5501 185.545 35.2501C185.545 34.9501 185.445 34.7501 185.145 34.5501C184.945 34.3501 184.545 34.2501 184.045 34.2501H182.845V36.2501H182.745Z" fill="#616263"/>
<path id="Vector_41" d="M173.245 14.8515V12.5515H172.145L170.545 14.8515H169.445L171.245 12.4515C170.845 12.3515 170.545 12.1515 170.345 11.8515C170.045 11.5515 169.945 11.2515 169.945 10.7515C169.945 10.3515 170.045 9.95151 170.245 9.75151C170.445 9.45151 170.745 9.35151 171.045 9.25151C171.345 9.15151 171.745 9.05151 172.245 9.05151H174.345V14.8515H173.245ZM172.245 11.7515H173.145V9.75151H172.245C171.745 9.75151 171.445 9.85151 171.145 9.95151C170.845 10.1515 170.745 10.3515 170.745 10.6515C170.745 10.9515 170.845 11.2515 171.145 11.4515C171.445 11.7515 171.845 11.7515 172.245 11.7515Z" fill="#616263"/>
</g>
</g>
</svg>
