<svg width="260" height="36" viewBox="0 0 260 36" fill="none" xmlns="http://www.w3.org/2000/svg">
<path d="M197.662 25.7606C197.66 26.2184 197.5 26.6614 197.208 27.0143C196.916 27.3672 196.511 27.6082 196.062 27.6964C195.613 27.7846 195.147 27.7144 194.743 27.4978C194.34 27.2813 194.024 26.9317 193.849 26.5086C193.674 26.0855 193.652 25.6149 193.785 25.177C193.918 24.7391 194.199 24.361 194.58 24.1068C194.961 23.8526 195.418 23.7382 195.874 23.7829C196.33 23.8277 196.756 24.0289 197.08 24.3523C197.268 24.5349 197.417 24.7541 197.517 24.9963C197.617 25.2386 197.666 25.4987 197.662 25.7606Z" fill="#1D1F21"/>
<path d="M218.881 18.4704C218.881 21.0342 217.975 23.2214 216.163 25.032C214.35 26.8426 212.162 27.7491 209.597 27.7515C207.032 27.7515 204.843 26.8457 203.032 25.034C201.22 23.2224 200.314 21.0352 200.312 18.4724C200.312 15.9086 201.219 13.7214 203.032 11.9108C204.844 10.1002 207.033 9.1944 209.597 9.19336C212.162 9.19336 214.351 10.0992 216.163 11.9108C217.974 13.7225 218.88 15.909 218.881 18.4704ZM209.597 11.8422C207.762 11.8422 206.198 12.4885 204.905 13.7812C203.612 15.0738 202.965 16.6369 202.965 18.4704C202.965 20.3042 203.612 21.8672 204.905 23.1595C206.199 24.4518 207.763 25.099 209.597 25.1011C211.432 25.1011 212.996 24.4548 214.289 23.1621C215.582 21.8695 216.229 20.3064 216.229 18.473C216.229 16.6395 215.582 15.0764 214.289 13.7838C212.996 12.4911 211.432 11.844 209.597 11.8422Z" fill="#1D1F21"/>
<path d="M221.535 10.5171C221.545 10.1721 221.689 9.84443 221.936 9.60379C222.184 9.36315 222.516 9.22852 222.861 9.22852C223.207 9.22852 223.538 9.36315 223.786 9.60379C224.034 9.84443 224.177 10.1721 224.187 10.5171V11.5939C225.845 9.99225 227.835 9.19141 230.156 9.19141C232.532 9.19141 234.563 10.0337 236.249 11.7181C237.935 13.4026 238.778 15.4325 238.777 17.8079V26.4238C238.768 26.7689 238.624 27.0965 238.376 27.3372C238.128 27.5778 237.797 27.7124 237.451 27.7124C237.106 27.7124 236.774 27.5778 236.527 27.3372C236.279 27.0965 236.135 26.7689 236.125 26.4238V17.8079C236.125 16.1618 235.542 14.7561 234.376 13.5906C233.21 12.4251 231.803 11.8423 230.156 11.8423C228.509 11.8423 227.103 12.4251 225.937 13.5906C224.771 14.7561 224.188 16.1618 224.188 17.8079V26.4238C224.178 26.7689 224.034 27.0965 223.786 27.3372C223.539 27.5778 223.207 27.7124 222.862 27.7124C222.516 27.7124 222.185 27.5778 221.937 27.3372C221.689 27.0965 221.545 26.7689 221.536 26.4238L221.535 10.5171Z" fill="#1D1F21"/>
<path d="M255.821 23.2423C256.172 23.2434 256.509 23.3834 256.757 23.6318C257.006 23.8802 257.146 24.2167 257.147 24.568C257.149 24.7429 257.117 24.9164 257.051 25.0786C256.986 25.2408 256.889 25.3884 256.766 25.5128C255.053 27.0026 253.036 27.7475 250.714 27.7475C248.149 27.7475 245.96 26.8417 244.149 25.03C242.337 23.2184 241.431 21.0319 241.43 18.4705C241.43 15.9067 242.336 13.7195 244.149 11.9089C245.961 10.0983 248.15 9.19245 250.714 9.19141C253.28 9.19141 255.468 10.0972 257.28 11.9089C259.091 13.7205 259.998 15.9077 259.999 18.4705C259.998 18.8217 259.858 19.1583 259.609 19.4067C259.361 19.6551 259.024 19.7951 258.672 19.7962H244.199C244.441 21.0663 245.049 22.1875 246.022 23.1597C247.315 24.4523 248.879 25.0986 250.714 25.0986C252.373 25.0986 253.799 24.5737 254.992 23.524C255.228 23.3389 255.52 23.2396 255.821 23.2423ZM257.23 17.1448C256.987 15.8746 256.379 14.7535 255.406 13.7813C254.113 12.4887 252.549 11.8423 250.714 11.8423C248.88 11.8423 247.316 12.4887 246.022 13.7813C245.05 14.7538 244.442 15.875 244.199 17.1448H257.23Z" fill="#1D1F21"/>
<path d="M48.0078 10.525C48.0175 10.18 48.1614 9.8523 48.409 9.61166C48.6567 9.37103 48.9884 9.2364 49.3338 9.2364C49.6792 9.2364 50.011 9.37103 50.2586 9.61166C50.5062 9.8523 50.6501 10.18 50.6598 10.525V11.6018C52.3183 9.99943 54.3081 9.19824 56.6294 9.19824C59.0058 9.19824 61.0368 10.0407 62.7222 11.7255C64.4077 13.4103 65.2505 15.4401 65.2505 17.8147V26.4317C65.2408 26.7767 65.0969 27.1044 64.8493 27.345C64.6016 27.5857 64.2699 27.7203 63.9245 27.7203C63.5791 27.7203 63.2473 27.5857 62.9997 27.345C62.7521 27.1044 62.6082 26.7767 62.5985 26.4317V17.8158C62.5985 16.1697 62.0154 14.764 60.8492 13.5985C59.683 12.433 58.2764 11.8497 56.6294 11.8487C54.9821 11.8487 53.5755 12.4312 52.4096 13.5964C51.2438 14.7615 50.6609 16.1673 50.6609 17.8137V26.4317C50.6512 26.7767 50.5072 27.1044 50.2596 27.345C50.012 27.5857 49.6802 27.7203 49.3349 27.7203C48.9895 27.7203 48.6577 27.5857 48.4101 27.345C48.1625 27.1044 48.0185 26.7767 48.0089 26.4317L48.0078 10.525Z" fill="#009BE3"/>
<path d="M82.2973 23.2502C82.6486 23.2514 82.9853 23.3915 83.2337 23.6398C83.4821 23.8882 83.6222 24.2247 83.6233 24.5759C83.6256 24.7508 83.5931 24.9243 83.5276 25.0865C83.4622 25.2487 83.3651 25.3963 83.2421 25.5207C81.5289 27.0105 79.5118 27.7554 77.1909 27.7554C74.6255 27.7554 72.4368 26.8495 70.6248 25.0379C68.8128 23.2262 67.9066 21.039 67.9062 18.4763C67.9062 15.9125 68.8124 13.7253 70.6248 11.9147C72.4372 10.1041 74.6259 9.19859 77.1909 9.19824C79.7562 9.19824 81.9445 10.1041 83.7559 11.9157C85.5672 13.7273 86.4744 15.9149 86.4775 18.4784C86.4767 18.8296 86.3368 19.1663 86.0883 19.4147C85.8398 19.6631 85.503 19.8031 85.1515 19.8041H70.6747C70.9174 21.0742 71.5253 22.1954 72.4984 23.1675C73.7914 24.4602 75.3556 25.1063 77.1909 25.106C78.8486 25.106 80.2743 24.5814 81.4679 23.5323C81.7041 23.3466 81.9967 23.247 82.2973 23.2502ZM83.7064 17.1526C83.4638 15.8825 82.8559 14.7614 81.8828 13.7892C80.5894 12.4969 79.0254 11.8507 77.1909 11.8507C75.3563 11.8507 73.7921 12.4969 72.4984 13.7892C71.526 14.7617 70.9181 15.8828 70.6747 17.1526H83.7064Z" fill="#009BE3"/>
<path d="M91.7809 34.385C91.7712 34.7301 91.6273 35.0578 91.3797 35.2984C91.1321 35.539 90.8003 35.6737 90.4549 35.6737C90.1095 35.6737 89.7778 35.539 89.5301 35.2984C89.2825 35.0578 89.1386 34.7301 89.1289 34.385V18.4784C89.1289 15.9145 90.0351 13.7273 91.8475 11.9167C93.6598 10.1061 95.848 9.19997 98.4119 9.19824C100.977 9.19824 103.166 10.1041 104.977 11.9157C106.788 13.7273 107.695 15.9145 107.696 18.4773C107.696 21.0411 106.79 23.2283 104.977 25.0389C103.164 26.8495 100.976 27.7554 98.4119 27.7564C95.8466 27.7564 93.6579 26.8506 91.8459 25.0389L91.7799 24.9724L91.7809 34.385ZM91.7809 18.4784C91.7809 20.3125 92.4274 21.8756 93.7205 23.1675C95.0136 24.4595 96.5777 25.1056 98.413 25.106C100.248 25.106 101.812 24.4598 103.105 23.1675C104.398 21.8752 105.045 20.3122 105.045 18.4784C105.045 16.6449 104.398 15.0818 103.105 13.7892C101.812 12.4965 100.248 11.8497 98.4119 11.8487C96.577 11.8487 95.0129 12.4948 93.7195 13.7871C92.4261 15.0794 91.7799 16.6432 91.7809 18.4784Z" fill="#009BE3"/>
<path d="M124.739 23.2502C125.09 23.2514 125.427 23.3915 125.675 23.6398C125.924 23.8882 126.064 24.2247 126.065 24.5759C126.067 24.7508 126.034 24.9243 125.969 25.0865C125.904 25.2487 125.807 25.3963 125.683 25.5207C123.97 27.0105 121.953 27.7554 119.632 27.7554C117.067 27.7554 114.878 26.8495 113.067 25.0379C111.255 23.2262 110.349 21.039 110.348 18.4763C110.348 15.9125 111.254 13.7253 113.067 11.9147C114.879 10.1041 117.068 9.19859 119.632 9.19824C122.198 9.19824 124.386 10.1041 126.198 11.9157C128.009 13.7273 128.916 15.9145 128.916 18.4773C128.916 18.8286 128.776 19.1652 128.527 19.4137C128.279 19.6621 127.942 19.8021 127.59 19.803H113.116C113.359 21.0732 113.967 22.1943 114.94 23.1665C116.233 24.4591 117.797 25.1053 119.632 25.1049C121.29 25.1049 122.716 24.5804 123.91 23.5313C124.146 23.3459 124.438 23.2467 124.739 23.2502ZM126.148 17.1526C125.905 15.8825 125.297 14.7614 124.324 13.7892C123.031 12.4969 121.467 11.8507 119.632 11.8507C117.798 11.8507 116.234 12.4969 114.94 13.7892C113.967 14.7617 113.359 15.8828 113.116 17.1526H126.148Z" fill="#009BE3"/>
<path d="M132.895 9.19824H139.527C140.997 9.19824 142.249 9.71464 143.283 10.7474C144.316 11.7802 144.833 13.0313 144.833 14.5006C144.833 15.804 144.424 16.9363 143.606 17.8973C143.97 18.1266 144.309 18.3933 144.617 18.693C145.645 19.7324 146.159 20.986 146.159 22.454C146.158 23.9219 145.642 25.1734 144.611 26.2082C143.578 27.2414 142.326 27.7578 140.856 27.7574H132.9C132.549 27.7562 132.212 27.6161 131.964 27.3677C131.715 27.1194 131.575 26.7829 131.574 26.4317V10.525C131.575 10.1737 131.715 9.8371 131.963 9.58867C132.212 9.34024 132.549 9.20024 132.9 9.19928L132.895 9.19824ZM139.527 17.1495C140.051 17.1482 140.562 16.9921 140.997 16.7008C141.432 16.4095 141.771 15.996 141.971 15.5125C142.171 15.029 142.224 14.4971 142.122 13.9838C142.02 13.4705 141.769 12.9988 141.399 12.6282C141.157 12.3775 140.866 12.1789 140.544 12.0449C140.222 11.9108 139.876 11.844 139.527 11.8487H134.223V17.1495H139.527ZM140.854 25.1008C141.557 25.1008 142.232 24.8215 142.729 24.3245C143.226 23.8274 143.506 23.1533 143.506 22.4503C143.506 21.7474 143.226 21.0733 142.729 20.5762C142.232 20.0792 141.557 19.7999 140.854 19.7999H134.222V25.1008H140.854Z" fill="#009BE3"/>
<path d="M167.381 18.4784C167.381 21.0422 166.475 23.2294 164.663 25.04C162.85 26.8506 160.662 27.7564 158.097 27.7574C155.532 27.7574 153.343 26.8516 151.532 25.04C149.72 23.2283 148.814 21.0411 148.812 18.4784C148.812 15.9145 149.719 13.7273 151.532 11.9167C153.344 10.1061 155.533 9.19997 158.097 9.19824C160.662 9.19824 162.851 10.1041 164.663 11.9157C166.474 13.7273 167.38 15.9149 167.381 18.4784ZM158.097 11.8487C156.262 11.8487 154.698 12.4948 153.405 13.7871C152.111 15.0794 151.465 16.6425 151.465 18.4763C151.465 20.3104 152.112 21.8735 153.405 23.1654C154.698 24.4574 156.262 25.1035 158.097 25.1039C159.932 25.1039 161.496 24.4577 162.789 23.1654C164.082 21.8731 164.729 20.3101 164.729 18.4763C164.729 16.6428 164.082 15.0798 162.789 13.7871C161.496 12.4945 159.932 11.8483 158.097 11.8487Z" fill="#009BE3"/>
<path d="M185.951 24.9734L185.885 25.04C184.072 26.8516 181.884 27.7574 179.32 27.7574C176.756 27.7574 174.567 26.8516 172.754 25.04C170.941 23.2283 170.035 21.0411 170.035 18.4784C170.036 15.9156 170.942 13.7284 172.754 11.9167C174.566 10.1044 176.754 9.19824 179.318 9.19824C181.882 9.19824 184.071 10.1041 185.884 11.9157C187.697 13.728 188.603 15.9156 188.603 18.4784V27.7574C188.603 29.69 187.907 31.3689 186.514 32.7943C184.569 34.7386 182.22 35.7108 179.468 35.7108C176.715 35.7108 174.372 34.7379 172.438 32.7922C171.742 32.115 171.149 31.3389 170.68 30.4889C170.545 30.2823 170.476 30.0397 170.481 29.7931C170.482 29.4419 170.622 29.1054 170.871 28.8571C171.119 28.6087 171.456 28.4688 171.807 28.4678C171.982 28.4655 172.156 28.4979 172.318 28.5633C172.48 28.6287 172.628 28.7258 172.752 28.8488C172.862 28.9693 172.957 29.1028 173.035 29.2463C173.38 29.8615 173.809 30.4252 174.311 30.9213C175.737 32.346 177.456 33.0584 179.467 33.0588C181.478 33.0591 183.197 32.3466 184.623 30.9213C185.508 29.8604 185.95 28.8055 185.95 27.7564L185.951 24.9734ZM179.318 11.8487C177.483 11.8487 175.919 12.4948 174.626 13.7871C173.333 15.0794 172.686 16.6425 172.686 18.4763C172.686 20.3104 173.333 21.8735 174.626 23.1654C175.92 24.4574 177.484 25.1035 179.318 25.1039C181.153 25.1039 182.717 24.4577 184.01 23.1654C185.304 21.8731 185.95 20.3101 185.95 18.4763C185.95 16.6428 185.303 15.0798 184.01 13.7871C182.717 12.4945 181.153 11.8483 179.318 11.8487Z" fill="#009BE3"/>
<path d="M10.7359 14.8716C10.7336 12.3191 11.3626 9.80569 12.5668 7.55484C12.1423 7.50719 11.7154 7.48342 11.2882 7.48364C5.05388 7.48364 2.35757e-06 12.5319 2.35757e-06 18.7609C-0.00120171 20.622 0.458823 22.4543 1.33899 24.0944C2.21915 25.7344 3.49206 27.131 5.044 28.1595L14.1617 34.7009C14.2327 34.7518 14.3164 34.7822 14.4036 34.7887C14.4909 34.7952 14.5782 34.7775 14.6559 34.7376C14.7337 34.6976 14.799 34.637 14.8445 34.5624C14.8901 34.4878 14.9142 34.4021 14.9141 34.3147V29.4458C15.9588 29.0908 16.9456 28.5842 17.8428 27.9423C15.6611 26.5291 13.868 24.5928 12.6267 22.3099C11.3854 20.0269 10.7354 17.4698 10.7359 14.8716Z" fill="#9DD5FB"/>
<path d="M41.206 14.8715C41.206 6.65828 34.5437 0 26.3256 0C18.1076 0 11.4453 6.65828 11.4453 14.8715C11.4453 21.4133 15.6734 26.9641 21.5458 28.9551V35.3733C21.5455 35.5382 21.6103 35.6966 21.7262 35.814C21.842 35.9314 21.9996 35.9985 22.1646 36.0005C22.2986 36.0027 22.4297 35.9611 22.538 35.882L34.5593 27.2604C38.5649 24.5944 41.206 20.0419 41.206 14.8715Z" fill="#0080D9"/>
<path d="M28.1936 22.6805H25.422V12.0045L22.1133 13.0304V10.7765L27.8962 8.70605H28.1936V22.6805Z" fill="white"/>
</svg>
