<svg width="50" height="37" viewBox="0 0 50 37" fill="none" xmlns="http://www.w3.org/2000/svg">
<g id="Malaysia (MY)" clip-path="url(#clip0_1_196)">
<path id="Vector" d="M0 0H50V37H0V0Z" fill="#CC0000"/>
<path id="Vector_2" d="M0.0390625 3.0752H49.9609V6.0352H0.0390625V3.0752ZM0.0390625 9.14165H49.9609V12.1017H0.0390625V9.14165ZM0.0390625 15.2158H49.9609V18.1758H0.0390625V15.2158Z" fill="white"/>
<path id="Vector_3" d="M0 0.0380859H25V21.6214H0V0.0380859Z" fill="#000066"/>
<path id="Vector_4" d="M16.2119 5.6883L16.6806 8.82559L18.4775 6.20475L17.5087 9.22642L20.2822 7.62309L18.0869 9.93559L21.29 9.68892L18.2978 10.8298L21.29 11.9706L18.0869 11.7239L20.2822 14.0364L17.5087 12.4331L18.4697 15.4625L16.6728 12.8339L16.2041 15.9712L15.7431 12.8339L13.9462 15.4548L14.915 12.4331L12.1416 14.0364L14.3291 11.7239L11.1259 11.9706L14.1259 10.8298L11.1337 9.68892L14.3369 9.93559L12.1416 7.62309L14.915 9.22642L13.9462 6.19705L15.7431 8.82559L16.2119 5.6883ZM13.6103 5.81934C12.7647 5.44947 11.8388 5.29384 10.9167 5.36655C9.99462 5.43927 9.10555 5.73804 8.33018 6.23574C7.5548 6.73345 6.91768 7.41433 6.47663 8.21658C6.03558 9.01884 5.80457 9.91707 5.80457 10.8298C5.80457 11.7424 6.03558 12.6407 6.47663 13.4429C6.91768 14.2452 7.5548 14.9261 8.33018 15.4238C9.10555 15.9215 9.99462 16.2202 10.9167 16.293C11.8388 16.3657 12.7647 16.21 13.6103 15.8402C12.6763 16.5013 11.5757 16.8956 10.4294 16.9795C9.28303 17.0634 8.13544 16.8338 7.1128 16.3159C6.09016 15.798 5.23209 15.0119 4.63294 14.044C4.0338 13.0761 3.7168 11.9639 3.7168 10.8298C3.7168 9.6956 4.0338 8.58341 4.63294 7.61551C5.23209 6.6476 6.09016 5.86147 7.1128 5.34357C8.13544 4.82567 9.28303 4.59606 10.4294 4.68C11.5757 4.76394 12.6763 5.15817 13.6103 5.81934Z" fill="#FFCC00"/>
<path id="Vector_5" d="M0.0390625 21.29H49.9609V24.25H0.0390625V21.29ZM0.0390625 27.318H49.9609V30.278H0.0390625V27.318ZM0 34.0396H49.9219V36.9996H0V34.0396Z" fill="white"/>
</g>
<defs>
<clipPath id="clip0_1_196">
<rect width="50" height="37" fill="white"/>
</clipPath>
</defs>
</svg>
