<svg width="51" height="37" viewBox="0 0 51 37" fill="none" xmlns="http://www.w3.org/2000/svg">
<g id="Oman (OM)" clip-path="url(#clip0_1_565)">
<g id="Clip path group">
<mask id="mask0_1_565" style="mask-type:luminance" maskUnits="userSpaceOnUse" x="0" y="0" width="51" height="37">
<g id="a">
<path id="Vector" d="M0.285156 0H50.2852V37H0.285156V0Z" fill="white"/>
</g>
</mask>
<g mask="url(#mask0_1_565)">
<g id="Group">
<path id="Vector_2" fill-rule="evenodd" clip-rule="evenodd" d="M0.0273438 -1.66528H54.8945V40.9618H0.0273438V-1.66528Z" fill="#EF2D29"/>
<path id="Vector_3" fill-rule="evenodd" clip-rule="evenodd" d="M13.9258 24.4585H55.7773V40.4687H13.9258V24.4585Z" fill="#009025"/>
<path id="Vector_4" fill-rule="evenodd" clip-rule="evenodd" d="M13.9258 -2.72876H58.0586V11.9171H13.918L13.9258 -2.72876Z" fill="white"/>
<g id="Group_2">
<g id="Group_3">
<path id="Vector_5" d="M11.2236 5.36401H9.43108C9.33431 5.36401 9.25586 5.43627 9.25586 5.52541V6.36522C9.25586 6.45436 9.33431 6.52662 9.43108 6.52662H11.2236C11.3204 6.52662 11.3988 6.45436 11.3988 6.36522V5.52541C11.3988 5.43627 11.3204 5.36401 11.2236 5.36401Z" fill="white" stroke="#EF2D28" stroke-width="0.0328414"/>
<path id="Vector_6" d="M11.1795 5.41284H9.47842C9.38678 5.41284 9.3125 5.47959 9.3125 5.56193V6.33061C9.3125 6.41295 9.38678 6.4797 9.47842 6.4797H11.1795C11.2711 6.4797 11.3454 6.41295 11.3454 6.33061V5.56193C11.3454 5.47959 11.2711 5.41284 11.1795 5.41284Z" fill="white" stroke="#EF2D28" stroke-width="0.0304956"/>
<path id="Vector_7" fill-rule="evenodd" clip-rule="evenodd" d="M10.2574 5.7019L10.3598 5.70591L10.3641 5.75233L10.4486 5.79475L10.514 5.74112L10.5932 5.78355L10.5193 5.82997L10.5373 5.894L10.6302 5.89V5.97405L10.5563 5.97084L10.5183 6.02367L10.6027 6.0837L10.5373 6.13333L10.4665 6.0805L10.3641 6.10131L10.3693 6.17895L10.2574 6.18696L10.2426 6.11172L10.1497 6.0733L10.0979 6.12613L10.0187 6.0869L10.0652 6.02687L10.0092 5.98845H9.93001L9.92578 5.8788L10.005 5.886L10.061 5.82197L9.99548 5.77234L10.08 5.71631L10.1402 5.76194L10.2426 5.74753L10.2574 5.7019Z" fill="white" stroke="#EF2D28" stroke-width="0.0192526"/>
<path id="Vector_8" d="M10.2871 6.02783C10.3497 6.02783 10.4004 5.98525 10.4004 5.93274C10.4004 5.88022 10.3497 5.83765 10.2871 5.83765C10.2245 5.83765 10.1738 5.88022 10.1738 5.93274C10.1738 5.98525 10.2245 6.02783 10.2871 6.02783Z" fill="white" stroke="#EF2D28" stroke-width="0.0207327"/>
<g id="Vector_9">
<path fill-rule="evenodd" clip-rule="evenodd" d="M9.58544 5.46069L9.41952 5.60568L9.58544 5.46069ZM9.69553 5.46069L9.52961 5.60568L9.69553 5.46069ZM9.80407 5.46069L9.63971 5.60568L9.80407 5.46069ZM9.91417 5.46069L9.7498 5.60568L9.91417 5.46069ZM10.0243 5.46069L9.8599 5.60568L10.0243 5.46069ZM10.1344 5.46069L9.96999 5.60568L10.1344 5.46069ZM10.2445 5.46069L10.0801 5.60568L10.2445 5.46069ZM10.3545 5.46069L10.1902 5.60568L10.3545 5.46069ZM10.4646 5.46069L10.2987 5.60568L10.4646 5.46069ZM10.5747 5.46069L10.4073 5.60568L10.5747 5.46069ZM10.6817 5.46069L10.5174 5.60568L10.6817 5.46069ZM10.7918 5.46069L10.6275 5.60568L10.7918 5.46069ZM10.353 5.46069L10.1902 5.60568L10.353 5.46069ZM10.9035 5.46069L10.7391 5.60568L10.9035 5.46069ZM11.0136 5.46069L10.8492 5.60568L11.0136 5.46069ZM11.1237 5.46069L10.9593 5.60568L11.1237 5.46069ZM11.2338 5.46069L11.0694 5.60568L11.2338 5.46069ZM11.0694 5.46069L11.2338 5.60568L11.0694 5.46069ZM10.9593 5.46069L11.1237 5.60568L10.9593 5.46069ZM10.8492 5.46069L11.0136 5.60568L10.8492 5.46069ZM10.7391 5.46069L10.9035 5.60568L10.7391 5.46069ZM10.629 5.46069L10.7934 5.60568L10.629 5.46069ZM10.5189 5.46069L10.6833 5.60568L10.5189 5.46069ZM10.4088 5.46069L10.5747 5.60568L10.4088 5.46069ZM10.2987 5.46069L10.4631 5.60568L10.2987 5.46069ZM10.1871 5.46069L10.353 5.60568L10.1871 5.46069ZM10.0785 5.46069L10.2429 5.60568L10.0785 5.46069ZM9.96844 5.46069L10.1328 5.60568L9.96844 5.46069ZM9.85835 5.46069L10.0227 5.60568L9.85835 5.46069ZM10.2987 5.46069L10.4631 5.60568L10.2987 5.46069ZM9.7498 5.46069L9.91262 5.60568L9.7498 5.46069ZM9.63816 5.46069L9.80407 5.60568L9.63816 5.46069ZM9.52806 5.46069L9.69398 5.60568L9.52806 5.46069ZM9.41797 5.46069L9.58544 5.60568L9.41797 5.46069ZM9.58544 6.28409L9.42107 6.43044L9.58544 6.28409ZM9.69398 6.28409L9.52806 6.43044L9.69398 6.28409ZM9.80563 6.28409L9.63971 6.43044L9.80563 6.28409ZM9.91417 6.28409L9.7498 6.43044L9.91417 6.28409ZM10.0243 6.28409L9.8599 6.43044L10.0243 6.28409ZM10.1344 6.28409L9.96999 6.43044L10.1344 6.28409ZM10.2445 6.28409L10.0816 6.43044L10.2445 6.28409ZM10.3545 6.28409L10.1902 6.43044L10.3545 6.28409ZM10.4646 6.28409L10.2987 6.43044L10.4646 6.28409ZM10.5732 6.28409L10.4073 6.43044L10.5732 6.28409ZM10.6864 6.28409L10.5205 6.43044L10.6864 6.28409ZM10.7949 6.28409L10.6306 6.43044L10.7949 6.28409ZM10.3545 6.28409L10.1902 6.43044L10.3545 6.28409ZM10.9035 6.28409L10.7391 6.43044L10.9035 6.28409ZM11.0136 6.28409L10.8492 6.43044L11.0136 6.28409ZM11.1237 6.28409L10.9593 6.43044L11.1237 6.28409ZM11.2338 6.28409L11.0694 6.43044L11.2338 6.28409ZM11.0694 6.28409L11.2338 6.43044L11.0694 6.28409ZM10.9593 6.28409L11.1237 6.43044L10.9593 6.28409ZM10.8492 6.28409L11.0136 6.43044L10.8492 6.28409ZM10.7391 6.28409L10.9035 6.43044L10.7391 6.28409ZM10.629 6.28409L10.7934 6.43044L10.629 6.28409ZM10.5189 6.28409L10.6848 6.43044L10.5189 6.28409ZM10.4073 6.28409L10.5732 6.43044L10.4073 6.28409ZM10.2987 6.28409L10.4631 6.43044L10.2987 6.28409ZM10.1902 6.28409L10.3545 6.43044L10.1902 6.28409ZM10.0801 6.28409L10.2445 6.43044L10.0801 6.28409ZM9.96999 6.28409L10.1344 6.43044L9.96999 6.28409ZM9.8599 6.28409L10.0243 6.43044L9.8599 6.28409ZM10.3003 6.28409L10.4646 6.43044L10.3003 6.28409ZM9.75135 6.28409L9.91417 6.43044L9.75135 6.28409ZM9.63971 6.28409L9.80563 6.43044L9.63971 6.28409ZM9.52961 6.28409L9.69553 6.43044L9.52961 6.28409ZM9.42107 6.28409L9.58544 6.43044L9.42107 6.28409Z" fill="white"/>
<path d="M9.58544 5.46069L9.41952 5.60568M9.69553 5.46069L9.52961 5.60568M9.80407 5.46069L9.63971 5.60568M9.91417 5.46069L9.7498 5.60568M10.0243 5.46069L9.8599 5.60568M10.1344 5.46069L9.96999 5.60568M10.2445 5.46069L10.0801 5.60568M10.3545 5.46069L10.1902 5.60568L10.353 5.46069M10.4646 5.46069L10.2987 5.60568M10.5747 5.46069L10.4073 5.60568M10.6817 5.46069L10.5174 5.60568M10.7918 5.46069L10.6275 5.60568M10.9035 5.46069L10.7391 5.60568M11.0136 5.46069L10.8492 5.60568M11.1237 5.46069L10.9593 5.60568M11.2338 5.46069L11.0694 5.60568M11.0694 5.46069L11.2338 5.60568M10.9593 5.46069L11.1237 5.60568M10.8492 5.46069L11.0136 5.60568M10.7391 5.46069L10.9035 5.60568M10.629 5.46069L10.7934 5.60568M10.5189 5.46069L10.6833 5.60568M10.4088 5.46069L10.5747 5.60568M10.2987 5.46069L10.4631 5.60568M10.1871 5.46069L10.353 5.60568M10.0785 5.46069L10.2429 5.60568M9.96844 5.46069L10.1328 5.60568M9.85835 5.46069L10.0227 5.60568M9.7498 5.46069L9.91262 5.60568M9.63816 5.46069L9.80407 5.60568M9.52806 5.46069L9.69398 5.60568M9.41797 5.46069L9.58544 5.60568M9.58544 6.28409L9.42107 6.43044M9.69398 6.28409L9.52806 6.43044M9.80563 6.28409L9.63971 6.43044M9.91417 6.28409L9.7498 6.43044M10.0243 6.28409L9.8599 6.43044M10.1344 6.28409L9.96999 6.43044M10.2445 6.28409L10.0816 6.43044M10.3545 6.28409L10.1902 6.43044M10.4646 6.28409L10.2987 6.43044M10.5732 6.28409L10.4073 6.43044M10.6864 6.28409L10.5205 6.43044M10.7949 6.28409L10.6306 6.43044M10.9035 6.28409L10.7391 6.43044M11.0136 6.28409L10.8492 6.43044M11.1237 6.28409L10.9593 6.43044M11.2338 6.28409L11.0694 6.43044M11.0694 6.28409L11.2338 6.43044M10.9593 6.28409L11.1237 6.43044M10.8492 6.28409L11.0136 6.43044M10.7391 6.28409L10.9035 6.43044M10.629 6.28409L10.7934 6.43044M10.5189 6.28409L10.6848 6.43044M10.4073 6.28409L10.5732 6.43044M10.2987 6.28409L10.4631 6.43044M10.1902 6.28409L10.3545 6.43044M10.0801 6.28409L10.2445 6.43044M9.96999 6.28409L10.1344 6.43044M9.8599 6.28409L10.0243 6.43044M10.3003 6.28409L10.4646 6.43044M9.75135 6.28409L9.91417 6.43044M9.63971 6.28409L9.80563 6.43044M9.52961 6.28409L9.69553 6.43044M9.42107 6.28409L9.58544 6.43044" stroke="#EF2D28" stroke-width="0.0304956"/>
</g>
</g>
<g id="Group_4">
<path id="Vector_10" d="M4.02048 5.31812H2.22795C2.13118 5.31812 2.05273 5.39037 2.05273 5.47951V6.31932C2.05273 6.40846 2.13118 6.48072 2.22795 6.48072H4.02048C4.11725 6.48072 4.1957 6.40846 4.1957 6.31932V5.47951C4.1957 5.39037 4.11725 5.31812 4.02048 5.31812Z" fill="white" stroke="#EF2D28" stroke-width="0.0328414"/>
<path id="Vector_11" d="M3.97633 5.36694H2.27529C2.18366 5.36694 2.10938 5.43369 2.10938 5.51603V6.28472C2.10938 6.36705 2.18366 6.4338 2.27529 6.4338H3.97633C4.06796 6.4338 4.14224 6.36705 4.14224 6.28472V5.51603C4.14224 5.43369 4.06796 5.36694 3.97633 5.36694Z" fill="white" stroke="#EF2D28" stroke-width="0.0304956"/>
<path id="Vector_12" fill-rule="evenodd" clip-rule="evenodd" d="M3.05427 5.65601L3.15671 5.66001L3.16094 5.70643L3.24543 5.74885L3.3109 5.69523L3.39011 5.73765L3.31618 5.78407L3.33414 5.84811L3.42707 5.8441V5.92815L3.35315 5.92495L3.31513 5.97777L3.39962 6.0378L3.33414 6.08743L3.26338 6.0346L3.16094 6.05541L3.16622 6.13305L3.05427 6.14106L3.03949 6.06582L2.94655 6.0274L2.8948 6.08023L2.81559 6.04101L2.86206 5.98098L2.80609 5.94256H2.72688L2.72266 5.8329L2.80186 5.8401L2.85784 5.77607L2.79236 5.72644L2.87685 5.67041L2.93704 5.71604L3.03949 5.70163L3.05427 5.65601Z" fill="white" stroke="#EF2D28" stroke-width="0.0192526"/>
<path id="Vector_13" d="M3.08399 5.98193C3.14656 5.98193 3.19728 5.93935 3.19728 5.88684C3.19728 5.83432 3.14656 5.79175 3.08399 5.79175C3.02142 5.79175 2.9707 5.83432 2.9707 5.88684C2.9707 5.93935 3.02142 5.98193 3.08399 5.98193Z" fill="white" stroke="#EF2D28" stroke-width="0.0207327"/>
<g id="Vector_14">
<path fill-rule="evenodd" clip-rule="evenodd" d="M2.38231 5.41479L2.21639 5.55978L2.38231 5.41479ZM2.49241 5.41479L2.32649 5.55978L2.49241 5.41479ZM2.60095 5.41479L2.43658 5.55978L2.60095 5.41479ZM2.71104 5.41479L2.54668 5.55978L2.71104 5.41479ZM2.82114 5.41479L2.65677 5.55978L2.82114 5.41479ZM2.93123 5.41479L2.76687 5.55978L2.93123 5.41479ZM3.04133 5.41479L2.87696 5.55978L3.04133 5.41479ZM3.15142 5.41479L2.98706 5.55978L3.15142 5.41479ZM3.26152 5.41479L3.0956 5.55978L3.26152 5.41479ZM3.37161 5.41479L3.20414 5.55978L3.37161 5.41479ZM3.4786 5.41479L3.31424 5.55978L3.4786 5.41479ZM3.5887 5.41479L3.42433 5.55978L3.5887 5.41479ZM3.14987 5.41479L2.98706 5.55978L3.14987 5.41479ZM3.70034 5.41479L3.53598 5.55978L3.70034 5.41479ZM3.81044 5.41479L3.64607 5.55978L3.81044 5.41479ZM3.92053 5.41479L3.75617 5.55978L3.92053 5.41479ZM4.03063 5.41479L3.86626 5.55978L4.03063 5.41479ZM3.86626 5.41479L4.03063 5.55978L3.86626 5.41479ZM3.75617 5.41479L3.92053 5.55978L3.75617 5.41479ZM3.64607 5.41479L3.81044 5.55978L3.64607 5.41479ZM3.53598 5.41479L3.70034 5.55978L3.53598 5.41479ZM3.42588 5.41479L3.59025 5.55978L3.42588 5.41479ZM3.31579 5.41479L3.48015 5.55978L3.31579 5.41479ZM3.20569 5.41479L3.37161 5.55978L3.20569 5.41479ZM3.0956 5.41479L3.25996 5.55978L3.0956 5.41479ZM2.98395 5.41479L3.14987 5.55978L2.98395 5.41479ZM2.87541 5.41479L3.03978 5.55978L2.87541 5.41479ZM2.76532 5.41479L2.92968 5.55978L2.76532 5.41479ZM2.65522 5.41479L2.81959 5.55978L2.65522 5.41479ZM3.0956 5.41479L3.25996 5.55978L3.0956 5.41479ZM2.54668 5.41479L2.70949 5.55978L2.54668 5.41479ZM2.43503 5.41479L2.60095 5.55978L2.43503 5.41479ZM2.32494 5.41479L2.49086 5.55978L2.32494 5.41479ZM2.21484 5.41479L2.38231 5.55978L2.21484 5.41479ZM2.38231 6.23819L2.21794 6.38454L2.38231 6.23819ZM2.49086 6.23819L2.32494 6.38454L2.49086 6.23819ZM2.6025 6.23819L2.43658 6.38454L2.6025 6.23819ZM2.71104 6.23819L2.54668 6.38454L2.71104 6.23819ZM2.82114 6.23819L2.65677 6.38454L2.82114 6.23819ZM2.93123 6.23819L2.76687 6.38454L2.93123 6.23819ZM3.04133 6.23819L2.87851 6.38454L3.04133 6.23819ZM3.15142 6.23819L2.98706 6.38454L3.15142 6.23819ZM3.26152 6.23819L3.0956 6.38454L3.26152 6.23819ZM3.37006 6.23819L3.20414 6.38454L3.37006 6.23819ZM3.48326 6.23819L3.31734 6.38454L3.48326 6.23819ZM3.5918 6.23819L3.42743 6.38454L3.5918 6.23819ZM3.15142 6.23819L2.98706 6.38454L3.15142 6.23819ZM3.70034 6.23819L3.53598 6.38454L3.70034 6.23819ZM3.81044 6.23819L3.64607 6.38454L3.81044 6.23819ZM3.92053 6.23819L3.75617 6.38454L3.92053 6.23819ZM4.03063 6.23819L3.86626 6.38454L4.03063 6.23819ZM3.86626 6.23819L4.03063 6.38454L3.86626 6.23819ZM3.75617 6.23819L3.92053 6.38454L3.75617 6.23819ZM3.64607 6.23819L3.81044 6.38454L3.64607 6.23819ZM3.53598 6.23819L3.70034 6.38454L3.53598 6.23819ZM3.42588 6.23819L3.59025 6.38454L3.42588 6.23819ZM3.31579 6.23819L3.4817 6.38454L3.31579 6.23819ZM3.20414 6.23819L3.37006 6.38454L3.20414 6.23819ZM3.0956 6.23819L3.25996 6.38454L3.0956 6.23819ZM2.98706 6.23819L3.15142 6.38454L2.98706 6.23819ZM2.87696 6.23819L3.04133 6.38454L2.87696 6.23819ZM2.76687 6.23819L2.93123 6.38454L2.76687 6.23819ZM2.65677 6.23819L2.82114 6.38454L2.65677 6.23819ZM3.09715 6.23819L3.26152 6.38454L3.09715 6.23819ZM2.54823 6.23819L2.71104 6.38454L2.54823 6.23819ZM2.43658 6.23819L2.6025 6.38454L2.43658 6.23819ZM2.32649 6.23819L2.49241 6.38454L2.32649 6.23819ZM2.21794 6.23819L2.38231 6.38454L2.21794 6.23819Z" fill="white"/>
<path d="M2.38231 5.41479L2.21639 5.55978M2.49241 5.41479L2.32649 5.55978M2.60095 5.41479L2.43658 5.55978M2.71104 5.41479L2.54668 5.55978M2.82114 5.41479L2.65677 5.55978M2.93123 5.41479L2.76687 5.55978M3.04133 5.41479L2.87696 5.55978M3.15142 5.41479L2.98706 5.55978L3.14987 5.41479M3.26152 5.41479L3.0956 5.55978M3.37161 5.41479L3.20414 5.55978M3.4786 5.41479L3.31424 5.55978M3.5887 5.41479L3.42433 5.55978M3.70034 5.41479L3.53598 5.55978M3.81044 5.41479L3.64607 5.55978M3.92053 5.41479L3.75616 5.55978M4.03063 5.41479L3.86626 5.55978M3.86626 5.41479L4.03063 5.55978M3.75616 5.41479L3.92053 5.55978M3.64607 5.41479L3.81044 5.55978M3.53598 5.41479L3.70034 5.55978M3.42588 5.41479L3.59025 5.55978M3.31579 5.41479L3.48015 5.55978M3.20569 5.41479L3.37161 5.55978M3.0956 5.41479L3.25996 5.55978M2.98395 5.41479L3.14987 5.55978M2.87541 5.41479L3.03978 5.55978M2.76532 5.41479L2.92968 5.55978M2.65522 5.41479L2.81959 5.55978M2.54668 5.41479L2.70949 5.55978M2.43503 5.41479L2.60095 5.55978M2.32494 5.41479L2.49086 5.55978M2.21484 5.41479L2.38231 5.55978M2.38231 6.23819L2.21794 6.38454M2.49086 6.23819L2.32494 6.38454M2.6025 6.23819L2.43658 6.38454M2.71104 6.23819L2.54668 6.38454M2.82114 6.23819L2.65677 6.38454M2.93123 6.23819L2.76687 6.38454M3.04133 6.23819L2.87851 6.38454M3.15142 6.23819L2.98706 6.38454M3.26152 6.23819L3.0956 6.38454M3.37006 6.23819L3.20414 6.38454M3.48326 6.23819L3.31734 6.38454M3.5918 6.23819L3.42743 6.38454M3.70034 6.23819L3.53598 6.38454M3.81044 6.23819L3.64607 6.38454M3.92053 6.23819L3.75616 6.38454M4.03063 6.23819L3.86626 6.38454M3.86626 6.23819L4.03063 6.38454M3.75616 6.23819L3.92053 6.38454M3.64607 6.23819L3.81044 6.38454M3.53598 6.23819L3.70034 6.38454M3.42588 6.23819L3.59025 6.38454M3.31579 6.23819L3.4817 6.38454M3.20414 6.23819L3.37006 6.38454M3.0956 6.23819L3.25996 6.38454M2.98706 6.23819L3.15142 6.38454M2.87696 6.23819L3.04133 6.38454M2.76687 6.23819L2.93123 6.38454M2.65677 6.23819L2.82114 6.38454M3.09715 6.23819L3.26152 6.38454M2.54823 6.23819L2.71104 6.38454M2.43658 6.23819L2.6025 6.38454M2.32649 6.23819L2.49241 6.38454M2.21794 6.23819L2.38231 6.38454" stroke="#EF2D28" stroke-width="0.0304956"/>
</g>
</g>
<path id="Vector_15" fill-rule="evenodd" clip-rule="evenodd" d="M5.41548 7.75125C2.74911 10.3314 1.61166 10.6574 2.14643 10.8656C2.68119 11.0739 4.39775 9.74194 6.18362 7.97437C7.96949 6.2068 9.06341 4.6324 8.52865 4.42415C7.99389 4.21589 8.25223 5.00937 5.41548 7.75125Z" fill="white" stroke="#EF2D28" stroke-width="0.0510375"/>
<path id="Vector_16" fill-rule="evenodd" clip-rule="evenodd" d="M3.17435 9.62866L4.10938 9.87076C3.23017 10.6955 2.24087 11.0334 1.96641 10.8884C1.69195 10.7434 2.46106 10.4042 3.1759 9.63003L3.17435 9.62866Z" fill="white" stroke="#EF2D28" stroke-width="0.0281498"/>
<path id="Vector_17" fill-rule="evenodd" clip-rule="evenodd" d="M3.17497 9.72437L3.94531 9.9177C3.08888 10.7108 2.2415 10.9357 2.02249 10.8383C1.80196 10.7423 2.48016 10.4701 3.17497 9.72437Z" fill="white" stroke="#EF2D28" stroke-width="0.0295141"/>
<path id="Vector_18" d="M6.03906 7.64136C6.03688 7.6538 6.03033 7.7093 6.02487 7.73131C6.02487 7.76193 6.02159 7.78489 6.01831 7.80882C6.00958 7.82987 6.01067 7.84901 5.98446 7.85666C5.97236 7.8758 5.95306 7.89068 5.92986 7.89877C5.90887 7.91351 5.88574 7.92574 5.86106 7.93513C5.83525 7.94496 5.80643 7.94698 5.77916 7.94087C5.75513 7.92652 5.73766 7.91121 5.71801 7.89877C5.71364 7.87963 5.70927 7.85188 5.70381 7.83274C5.71234 7.85826 5.71711 7.88463 5.71801 7.91121C5.71582 7.93991 5.70381 7.95331 5.6907 7.97628" stroke="#EF2D28" stroke-width="0.0296388"/>
<path id="Vector_19" d="M5.79107 8.04188L5.78451 8.03614C5.80089 8.05049 5.79434 8.04379 5.75721 8.0237C5.731 8.01222 5.70261 8.00647 5.66876 8.00073H5.57266C5.53553 8.00073 5.51041 8.00552 5.48421 8.01221C5.46455 8.02944 5.43616 8.03901 5.41541 8.05432C5.39697 8.06653 5.38294 8.08314 5.375 8.10216C5.35644 8.11843 5.34443 8.14331 5.32695 8.15575C5.31931 8.1835 5.30402 8.18255 5.2931 8.2036C5.32586 8.20551 5.35098 8.20934 5.36845 8.22752C5.39684 8.23996 5.34443 8.21508 5.33351 8.2036C5.31166 8.19786 5.3062 8.19211 5.27235 8.19211C5.24177 8.18255 5.22212 8.19881 5.19045 8.2036C5.17188 8.21317 5.16642 8.21604 5.1424 8.21604" stroke="#EF2D28" stroke-width="0.0296388"/>
<path id="Vector_20" d="M5.42188 8.33929C5.40768 8.33929 5.34434 8.34981 5.31922 8.33929C5.29083 8.33259 5.27554 8.32015 5.25807 8.29718C5.24933 8.28091 5.25807 8.32589 5.25807 8.34503C5.25479 8.38043 5.24278 8.38043 5.22313 8.40436C5.20347 8.41584 5.18272 8.43115 5.16197 8.44072C5.14377 8.45373 5.12306 8.46378 5.10082 8.47038C5.07898 8.47995 5.05604 8.48761 5.03966 8.50005C5.01673 8.5144 5.01782 8.53163 5.00472 8.55459C5.008 8.5833 5.01346 8.60052 5.03202 8.61392C5.04076 8.63401 5.05823 8.65411 5.07352 8.66751C5.0899 8.69621 5.10955 8.70865 5.06696 8.71535C5.04294 8.72492 5.02984 8.71727 5.00472 8.71535" stroke="#EF2D28" stroke-width="0.0296388"/>
<path id="Vector_21" d="M4.99023 8.75598C4.97276 8.75216 4.91379 8.73493 4.88758 8.72632H4.79148C4.75545 8.72919 4.7478 8.73876 4.71723 8.75024C4.69648 8.76842 4.68337 8.78086 4.65498 8.79235C4.64078 8.80861 4.6113 8.83732 4.60038 8.85837C4.59139 8.88312 4.58697 8.90896 4.58727 8.93493C4.58727 8.97033 4.5982 8.97703 4.60038 9.00765C4.60802 9.03396 4.62219 9.05846 4.64188 9.07942C4.64515 9.08707 4.64734 9.08899 4.65498 9.0909" stroke="#EF2D28" stroke-width="0.0296388"/>
<path id="Vector_22" d="M4.66797 9.16942C4.66487 9.16942 4.65866 9.18453 4.64859 9.19737C4.6261 9.22003 4.62378 9.22154 4.59044 9.22154C4.55943 9.22003 4.5633 9.20946 4.54159 9.20266C4.53151 9.18755 4.51911 9.17546 4.50748 9.15507C4.49973 9.14299 4.49275 9.1241 4.48422 9.11277C4.47492 9.09842 4.46406 9.08785 4.45476 9.075C4.44545 9.07123 4.44235 9.06745 4.42995 9.06519C4.45786 9.06972 4.46096 9.07954 4.47879 9.09389C4.48758 9.10755 4.49561 9.12167 4.50283 9.13619C4.50593 9.15658 4.51213 9.17244 4.51291 9.19737C4.51291 9.22381 4.51291 9.24193 4.50283 9.26384C4.4912 9.27517 4.48344 9.28726 4.46871 9.29707C4.45646 9.30866 4.4453 9.3213 4.43538 9.33484L4.39118 9.36279C4.37723 9.3711 4.36095 9.37941 4.33846 9.38167C4.30977 9.37941 4.30125 9.37185 4.28031 9.36279C4.26171 9.34995 4.24775 9.34164 4.23147 9.32955C4.21811 9.31881 4.20659 9.30606 4.19735 9.29179C4.17177 9.28574 4.15471 9.28801 4.13921 9.30161C4.12605 9.31055 4.11474 9.32183 4.10587 9.33484C4.09811 9.33862 4.08416 9.34995 4.0764 9.35373" stroke="#EF2D28" stroke-width="0.0283512"/>
<path id="Vector_23" d="M4.1319 9.3689C4.13961 9.37172 4.16853 9.39152 4.18009 9.39812C4.1878 9.42357 4.20033 9.43677 4.20419 9.4641C4.21094 9.48861 4.21094 9.51689 4.21094 9.54612C4.20419 9.57628 4.19166 9.59796 4.18009 9.62153C4.16081 9.63472 4.15118 9.64415 4.12611 9.65735C4.10202 9.66112 4.07792 9.66395 4.04804 9.66395C4.02876 9.6696 3.99406 9.67243 3.97574 9.66395C3.94876 9.66018 3.92851 9.64981 3.90923 9.64038C3.88706 9.62813 3.87357 9.61587 3.84947 9.60456C3.83694 9.58759 3.81863 9.57157 3.80128 9.55177C3.78586 9.53198 3.77525 9.52066 3.76465 9.49898C3.77429 9.52349 3.78682 9.54612 3.79453 9.56968C3.80899 9.59419 3.8167 9.60362 3.81863 9.63378C3.82827 9.65829 3.82538 9.68846 3.82538 9.71674C3.82248 9.73559 3.82152 9.77141 3.81284 9.78743V9.80534" stroke="#EF2D28" stroke-width="0.029173"/>
<path id="Vector_24" d="M3.24261 9.89847V9.90805C3.24261 9.88479 3.24261 9.89574 3.25347 9.94224C3.27052 9.96139 3.31549 9.96686 3.34961 9.95865C3.38062 9.9354 3.38062 9.91762 3.43644 9.90805C3.49226 9.91078 3.51397 9.92446 3.54498 9.94224C3.57796 9.95305 3.60546 9.97391 3.62252 10.0011C3.63337 10.0298 3.63957 10.0503 3.60236 10.0612C3.56994 10.0804 3.53265 10.0921 3.49381 10.0954C3.4504 10.0954 3.41783 10.0913 3.39768 10.1132C3.36666 10.1406 3.36976 10.157 3.36976 10.2062C3.35891 10.2213 3.35736 10.2664 3.34961 10.2842C3.32292 10.2966 3.29288 10.3023 3.26277 10.3006C3.25192 10.2732 3.24106 10.2267 3.23331 10.198C3.22556 10.1679 3.22401 10.1242 3.20385 10.1036C3.18607 10.0801 3.16345 10.0597 3.13717 10.0435C3.12149 10.0278 3.10104 10.0164 3.07825 10.0106C3.11701 10.027 3.12166 10.0462 3.12632 10.0872C3.09375 10.1009 3.08445 10.1118 3.03018 10.1132C2.97591 10.1091 2.9635 10.0968 2.94334 10.0694C2.93869 10.1132 2.92318 10.1269 2.91233 10.1652C2.89372 10.1898 2.88597 10.2158 2.86581 10.25C2.87356 10.291 2.89217 10.2924 2.89372 10.343C2.90613 10.3772 2.90613 10.4086 2.93249 10.4292C2.94489 10.4428 2.9542 10.4442 2.98211 10.4456C2.92629 10.4456 2.89217 10.4401 2.85496 10.421C2.82705 10.4045 2.80534 10.3854 2.77743 10.369C2.74245 10.3457 2.70307 10.3281 2.66113 10.317C2.61616 10.317 2.5836 10.3129 2.56499 10.3348C2.53708 10.3526 2.51847 10.3827 2.50607 10.421C2.49831 10.4647 2.49366 10.4948 2.51692 10.5235C2.53243 10.5564 2.53708 10.5687 2.51692 10.6083C2.49366 10.6357 2.4611 10.6398 2.40838 10.6507C2.37271 10.6494 2.33705 10.6425 2.31224 10.6343" stroke="#EF2D28" stroke-width="0.0281498"/>
<g id="Group_5">
<path id="Vector_25" fill-rule="evenodd" clip-rule="evenodd" d="M8.46046 5.42439C9.64293 3.40492 10.4272 1.68406 10.2133 1.58665C9.99731 1.48823 8.86259 3.04941 7.68011 5.06889L8.46046 5.42439Z" fill="white" stroke="#EF2D28" stroke-width="0.0387692"/>
<g id="Vector_26">
<path fill-rule="evenodd" clip-rule="evenodd" d="M8.38179 5.38996C9.52254 3.44175 10.3081 1.79486 10.1371 1.71693C9.96425 1.63819 8.89825 3.15735 7.7575 5.10555" fill="white"/>
<path d="M8.38179 5.38996C9.52254 3.44175 10.3081 1.79486 10.1371 1.71693C9.96425 1.63819 8.89825 3.15735 7.7575 5.10555" stroke="#EF2D28" stroke-width="0.0340592"/>
</g>
<path id="Vector_27" fill-rule="evenodd" clip-rule="evenodd" d="M8.18645 4.37393C8.04756 4.60161 7.9004 4.86246 7.75809 5.10551L8.38413 5.39072C8.52644 5.14767 8.68242 4.89083 8.81249 4.65914L8.18645 4.37393Z" fill="white" stroke="#EF2D28" stroke-width="0.0386549"/>
<path id="Vector_28" fill-rule="evenodd" clip-rule="evenodd" d="M8.24165 4.45295C8.10205 4.68184 8.00612 4.8552 7.8631 5.09946L8.33042 5.31237C8.47274 5.06932 8.5789 4.89755 8.70898 4.66586L8.24165 4.45295Z" fill="white" stroke="#EF2D28" stroke-width="0.0386549"/>
<g id="Vector_29">
<path fill-rule="evenodd" clip-rule="evenodd" d="M8.58056 4.71671L8.26754 4.57411L7.99003 5.04806L8.30305 5.19066L8.58056 4.71671ZM8.58056 4.71671L7.99003 5.04806L8.58056 4.71671ZM8.30305 5.19066L8.26754 4.57411L8.30305 5.19066ZM9.99231 2.30566L9.67929 2.16306L9.99231 2.30566Z" fill="white"/>
<path d="M8.58056 4.71671L8.26754 4.57411M8.58056 4.71671L8.30305 5.19066M8.58056 4.71671L7.99003 5.04806M8.26754 4.57411L7.99003 5.04806M8.26754 4.57411L8.30305 5.19066M7.99003 5.04806L8.30305 5.19066M9.99231 2.30566L9.67929 2.16306" stroke="#EF2D28" stroke-width="0.0386549"/>
</g>
<path id="Vector_30" d="M9.99129 2.08181C9.94319 2.0938 9.8954 2.06969 9.88455 2.02795C9.87369 1.98622 9.90388 1.94265 9.95198 1.93066C10.0001 1.91866 10.0479 1.94277 10.0587 1.98451C10.0696 2.02625 10.0394 2.06981 9.99129 2.08181Z" fill="#EF0000" stroke="#EF2D28" stroke-width="0.0500864"/>
</g>
<path id="Vector_31" fill-rule="evenodd" clip-rule="evenodd" d="M7.99858 7.70536C10.665 10.2855 11.8024 10.6115 11.2676 10.8197C10.7329 11.028 9.01632 9.69604 7.23044 7.92847C5.44457 6.16091 4.35065 4.5865 4.88541 4.37825C5.42018 4.16999 5.16183 4.96347 7.99858 7.70536Z" fill="white" stroke="#EF2D28" stroke-width="0.0510375"/>
<path id="Vector_32" fill-rule="evenodd" clip-rule="evenodd" d="M10.2397 9.58276L9.30469 9.82486C10.1839 10.6496 11.1732 10.9875 11.4477 10.8425C11.7221 10.6975 10.953 10.3583 10.2382 9.58413L10.2397 9.58276Z" fill="white" stroke="#EF2D28" stroke-width="0.0281498"/>
<path id="Vector_33" fill-rule="evenodd" clip-rule="evenodd" d="M10.2391 9.67065L9.46875 9.86399C10.3252 10.6571 11.1726 10.8819 11.3916 10.7846C11.6121 10.6886 10.9339 10.4164 10.2391 9.67065Z" fill="white" stroke="#EF2D28" stroke-width="0.0295141"/>
<path id="Vector_34" d="M7.375 7.58667C7.37718 7.59911 7.38374 7.65461 7.3892 7.67662C7.3892 7.70724 7.39247 7.73021 7.39575 7.75413C7.40448 7.77518 7.40339 7.79432 7.4296 7.80198C7.44171 7.82111 7.461 7.83599 7.4842 7.84408C7.50519 7.85883 7.52833 7.87106 7.553 7.88044C7.57882 7.89028 7.60763 7.8923 7.6349 7.88618C7.65893 7.87183 7.6764 7.85652 7.69606 7.84408C7.70043 7.82494 7.70479 7.79719 7.71025 7.77805C7.70172 7.80357 7.69695 7.82994 7.69606 7.85652C7.69824 7.88523 7.71025 7.89862 7.72336 7.92159" stroke="#EF2D28" stroke-width="0.0296388"/>
<path id="Vector_35" d="M7.623 7.98719L7.62955 7.98145C7.61317 7.9958 7.61972 7.98911 7.65685 7.96901C7.68306 7.95753 7.71145 7.95179 7.7453 7.94604H7.8414C7.87853 7.94604 7.90365 7.95083 7.92986 7.95753C7.94951 7.97475 7.97791 7.98432 7.99866 7.99963C8.0171 8.01184 8.03113 8.02845 8.03906 8.04748C8.05762 8.06374 8.06964 8.08862 8.08711 8.10106C8.09475 8.12881 8.11004 8.12786 8.12096 8.14891C8.0882 8.15082 8.06309 8.15465 8.04561 8.17283C8.01722 8.18527 8.06964 8.16039 8.08056 8.14891C8.1024 8.14317 8.10786 8.13743 8.14171 8.13743C8.17229 8.12786 8.19194 8.14413 8.22361 8.14891C8.24218 8.15848 8.24764 8.16135 8.27166 8.16135" stroke="#EF2D28" stroke-width="0.0296388"/>
<path id="Vector_36" d="M7.99023 8.29339C8.00443 8.29339 8.06777 8.30391 8.09289 8.29339C8.12128 8.28669 8.13657 8.27425 8.15404 8.25128C8.16278 8.23502 8.15404 8.27999 8.15404 8.29913C8.15732 8.33453 8.16933 8.33453 8.18898 8.35846C8.20864 8.36994 8.22939 8.38525 8.25014 8.39482C8.26834 8.40783 8.28905 8.41788 8.31129 8.42448C8.33313 8.43405 8.35606 8.44171 8.37245 8.45415C8.39538 8.4685 8.39429 8.48573 8.40739 8.50869C8.40411 8.5374 8.39865 8.55462 8.38009 8.56802C8.37135 8.58812 8.35388 8.60821 8.33859 8.62161C8.32221 8.65032 8.30256 8.66276 8.34514 8.66945C8.36917 8.67902 8.38227 8.67137 8.40739 8.66945" stroke="#EF2D28" stroke-width="0.0296388"/>
<path id="Vector_37" d="M8.42383 8.71008C8.4413 8.70626 8.50027 8.68903 8.52648 8.68042H8.62258C8.65861 8.68329 8.66626 8.69286 8.69684 8.70434C8.71758 8.72252 8.73069 8.73496 8.75908 8.74645C8.77328 8.76271 8.80276 8.79142 8.81368 8.81247C8.82267 8.83722 8.8271 8.86306 8.82679 8.88903C8.82679 8.92443 8.81587 8.93113 8.81368 8.96175C8.80604 8.98806 8.79187 9.01256 8.77219 9.03352C8.76891 9.04118 8.76673 9.04309 8.75908 9.045" stroke="#EF2D28" stroke-width="0.0296388"/>
<path id="Vector_38" d="M8.75391 9.12352C8.75701 9.12352 8.76321 9.13863 8.77329 9.15147C8.79577 9.17413 8.7981 9.17564 8.83144 9.17564C8.86245 9.17413 8.85857 9.16356 8.88028 9.15676C8.89036 9.14165 8.90277 9.12957 8.9144 9.10917C8.92215 9.09709 8.92913 9.0782 8.93766 9.06687C8.94696 9.05252 8.95781 9.04195 8.96712 9.02911C8.97642 9.02533 8.97952 9.02155 8.99193 9.01929C8.96402 9.02382 8.96091 9.03364 8.94308 9.04799C8.93429 9.06165 8.92627 9.07578 8.91905 9.09029C8.91595 9.11068 8.90974 9.12655 8.90897 9.15147C8.90897 9.17791 8.90897 9.19604 8.91905 9.21794C8.93068 9.22927 8.93843 9.24136 8.95316 9.25118C8.96542 9.26277 8.97657 9.27541 8.9865 9.28894L9.03069 9.31689C9.04465 9.3252 9.06093 9.33351 9.08341 9.33577C9.1121 9.33351 9.12063 9.32595 9.14156 9.31689C9.16017 9.30405 9.17413 9.29574 9.19041 9.28366C9.20377 9.27292 9.21528 9.26017 9.22452 9.24589C9.25011 9.23985 9.26716 9.24211 9.28267 9.25571C9.29582 9.26465 9.30713 9.27593 9.31601 9.28894C9.32376 9.29272 9.33772 9.30405 9.34547 9.30783" stroke="#EF2D28" stroke-width="0.0283512"/>
<path id="Vector_39" d="M9.28217 9.31519C9.27445 9.31801 9.24554 9.33781 9.23397 9.34441C9.22626 9.36986 9.21373 9.38306 9.20987 9.41039C9.20312 9.4349 9.20312 9.46318 9.20312 9.4924C9.20987 9.52257 9.2224 9.54425 9.23397 9.56782C9.25325 9.58101 9.26289 9.59044 9.28795 9.60364C9.31205 9.60741 9.33614 9.61024 9.36603 9.61024C9.3853 9.61589 9.42 9.61872 9.43832 9.61024C9.46531 9.60647 9.48555 9.5961 9.50483 9.58667C9.527 9.57442 9.54049 9.56216 9.56459 9.55085C9.57712 9.53388 9.59543 9.51786 9.61278 9.49806C9.62821 9.47826 9.63881 9.46695 9.64941 9.44527C9.63977 9.46978 9.62724 9.4924 9.61953 9.51597C9.60507 9.54048 9.59736 9.54991 9.59543 9.58007C9.5858 9.60458 9.58869 9.63474 9.58869 9.66302C9.59158 9.68188 9.59254 9.7177 9.60122 9.73372V9.75163" stroke="#EF2D28" stroke-width="0.029173"/>
<path id="Vector_40" d="M10.1714 9.8516V9.86117C10.1714 9.83792 10.1714 9.84886 10.1606 9.89536C10.1435 9.91451 10.0986 9.91998 10.0645 9.91178C10.0334 9.88853 10.0334 9.87074 9.97762 9.86117C9.9218 9.86391 9.90009 9.87758 9.86908 9.89536C9.8361 9.90617 9.8086 9.92704 9.79155 9.95418C9.78069 9.9829 9.77449 10.0034 9.8117 10.0144C9.84412 10.0335 9.88142 10.0453 9.92025 10.0486C9.96367 10.0486 9.99623 10.0445 10.0164 10.0663C10.0474 10.0937 10.0443 10.1101 10.0443 10.1593C10.0552 10.1744 10.0567 10.2195 10.0645 10.2373C10.0911 10.2497 10.1212 10.2554 10.1513 10.2537C10.1621 10.2264 10.173 10.1799 10.1808 10.1511C10.1885 10.121 10.1901 10.0773 10.2102 10.0568C10.228 10.0332 10.2506 10.0128 10.2769 9.99658C10.2926 9.9809 10.313 9.9695 10.3358 9.96375C10.2971 9.98017 10.2924 9.99931 10.2877 10.0403C10.3203 10.054 10.3296 10.065 10.3839 10.0663C10.4382 10.0622 10.4506 10.0499 10.4707 10.0226C10.4754 10.0663 10.4909 10.08 10.5017 10.1183C10.5203 10.1429 10.5281 10.1689 10.5483 10.2031C10.5405 10.2441 10.5219 10.2455 10.5203 10.2961C10.5079 10.3303 10.5079 10.3618 10.4816 10.3823C10.4692 10.396 10.4599 10.3973 10.432 10.3987C10.4878 10.3987 10.5219 10.3932 10.5591 10.3741C10.587 10.3577 10.6087 10.3385 10.6366 10.3221C10.6716 10.2989 10.711 10.2813 10.7529 10.2701C10.7979 10.2701 10.8305 10.266 10.8491 10.2879C10.877 10.3057 10.8956 10.3358 10.908 10.3741C10.9157 10.4179 10.9204 10.4479 10.8971 10.4767C10.8816 10.5095 10.877 10.5218 10.8971 10.5615C10.9204 10.5888 10.953 10.5929 11.0057 10.6039C11.0413 10.6025 11.077 10.5957 11.1018 10.5875" stroke="#EF2D28" stroke-width="0.0281498"/>
<g id="Group_6">
<path id="Vector_41" fill-rule="evenodd" clip-rule="evenodd" d="M4.95165 5.37849C3.76918 3.35902 2.98494 1.63817 3.19877 1.54075C3.4148 1.44234 4.54952 3.00352 5.732 5.02299L4.95165 5.37849Z" fill="white" stroke="#EF2D28" stroke-width="0.0387692"/>
<g id="Vector_42">
<path fill-rule="evenodd" clip-rule="evenodd" d="M5.03032 5.34406C3.88957 3.39586 3.10397 1.74896 3.27503 1.67103C3.44786 1.59229 4.51386 3.11145 5.65461 5.05965" fill="white"/>
<path d="M5.03032 5.34406C3.88957 3.39586 3.10397 1.74896 3.27503 1.67103C3.44786 1.59229 4.51386 3.11145 5.65461 5.05965" stroke="#EF2D28" stroke-width="0.0340592"/>
</g>
<path id="Vector_43" fill-rule="evenodd" clip-rule="evenodd" d="M5.22566 4.32803C5.36455 4.55571 5.51171 4.81656 5.65402 5.05961L5.02798 5.34482C4.88567 5.10177 4.72969 4.84493 4.59962 4.61324L5.22566 4.32803Z" fill="white" stroke="#EF2D28" stroke-width="0.0386549"/>
<path id="Vector_44" fill-rule="evenodd" clip-rule="evenodd" d="M5.17046 4.40705C5.31006 4.63594 5.40599 4.8093 5.54901 5.05357L5.08168 5.26647C4.93937 5.02342 4.83321 4.85165 4.70313 4.61996L5.17046 4.40705Z" fill="white" stroke="#EF2D28" stroke-width="0.0386549"/>
<g id="Vector_45">
<path fill-rule="evenodd" clip-rule="evenodd" d="M4.83155 4.67082L5.14457 4.52821L5.42208 5.00216L5.10906 5.14476L4.83155 4.67082ZM4.83155 4.67082L5.42208 5.00216L4.83155 4.67082ZM5.10906 5.14476L5.14457 4.52821L5.10906 5.14476ZM3.4198 2.25977L3.73282 2.11716L3.4198 2.25977Z" fill="white"/>
<path d="M4.83155 4.67082L5.14457 4.52821M4.83155 4.67082L5.10906 5.14476M4.83155 4.67082L5.42208 5.00216M5.14457 4.52821L5.42208 5.00216M5.14457 4.52821L5.10906 5.14476M5.42208 5.00216L5.10906 5.14476M3.4198 2.25977L3.73282 2.11716" stroke="#EF2D28" stroke-width="0.0386549"/>
</g>
<path id="Vector_46" d="M3.42082 2.03591C3.46892 2.04791 3.51671 2.0238 3.52756 1.98206C3.53842 1.94032 3.50823 1.89676 3.46013 1.88476C3.41204 1.87276 3.36425 1.89687 3.35339 1.93861C3.34254 1.98035 3.37273 2.02391 3.42082 2.03591Z" fill="#EF0000" stroke="#EF2D28" stroke-width="0.0500864"/>
</g>
<g id="Group_7">
<path id="Vector_47" fill-rule="evenodd" clip-rule="evenodd" d="M5.89861 4.34949C5.89861 6.04552 5.90895 6.68426 5.78283 6.7718C5.66292 6.86618 2.32812 6.7718 2.32812 7.25599C2.32812 7.74018 5.0737 8.22711 5.89861 8.22711C6.99849 8.22711 7.54636 7.74155 7.54636 6.7718V4.35086H5.89861V4.34949Z" fill="white" stroke="#EF2D28" stroke-width="0.0352129"/>
<path id="Vector_48" fill-rule="evenodd" clip-rule="evenodd" d="M5.89844 4.83374V5.07583C6.44355 5.15646 7.00009 5.15646 7.5452 5.07583V4.83374C7.00009 4.91436 6.44355 4.91436 5.89844 4.83374Z" fill="white" stroke="#EF2D28" stroke-width="0.0304956"/>
<path id="Vector_49" fill-rule="evenodd" clip-rule="evenodd" d="M5.89844 4.34937V4.59146C6.44355 4.67208 7.00009 4.67208 7.5452 4.59146V4.34937C7.00009 4.42999 6.44355 4.42999 5.89844 4.34937Z" fill="white" stroke="#EF2D28" stroke-width="0.0304956"/>
<path id="Vector_50" fill-rule="evenodd" clip-rule="evenodd" d="M5.89844 4.59155V4.83365C6.44355 4.91427 7.00009 4.91427 7.5452 4.83365V4.59155C7.00009 4.67218 6.44355 4.67218 5.89844 4.59155Z" fill="white" stroke="#EF2D28" stroke-width="0.0304956"/>
<path id="Vector_51" fill-rule="evenodd" clip-rule="evenodd" d="M5.89844 5.07593V5.31802C6.44355 5.39864 7.00009 5.39864 7.5452 5.31802V5.07593C7.00009 5.15655 6.44355 5.15655 5.89844 5.07593Z" fill="white" stroke="#EF2D28" stroke-width="0.0304956"/>
<path id="Vector_52" d="M5.97371 4.78117C6.01529 4.78117 6.04899 4.75774 6.04899 4.72884C6.04899 4.69994 6.01529 4.67651 5.97371 4.67651C5.93214 4.67651 5.89844 4.69994 5.89844 4.72884C5.89844 4.75774 5.93214 4.78117 5.97371 4.78117Z" fill="white" stroke="#EF2D28" stroke-width="0.0289101"/>
<path id="Vector_53" d="M6.27449 4.80656C6.31607 4.80656 6.34977 4.78313 6.34977 4.75423C6.34977 4.72533 6.31607 4.7019 6.27449 4.7019C6.23292 4.7019 6.19922 4.72533 6.19922 4.75423C6.19922 4.78313 6.23292 4.80656 6.27449 4.80656Z" fill="white" stroke="#EF2D28" stroke-width="0.0289101"/>
<path id="Vector_54" d="M6.57332 4.83391C6.6149 4.83391 6.6486 4.81048 6.6486 4.78158C6.6486 4.75268 6.6149 4.72925 6.57332 4.72925C6.53175 4.72925 6.49805 4.75268 6.49805 4.78158C6.49805 4.81048 6.53175 4.83391 6.57332 4.83391Z" fill="white" stroke="#EF2D28" stroke-width="0.0289101"/>
<path id="Vector_55" d="M6.8741 4.83391C6.91568 4.83391 6.94938 4.81048 6.94938 4.78158C6.94938 4.75268 6.91568 4.72925 6.8741 4.72925C6.83253 4.72925 6.79883 4.75268 6.79883 4.78158C6.79883 4.81048 6.83253 4.83391 6.8741 4.83391Z" fill="white" stroke="#EF2D28" stroke-width="0.0289101"/>
<path id="Vector_56" d="M7.17293 4.80656C7.2145 4.80656 7.24821 4.78313 7.24821 4.75423C7.24821 4.72533 7.2145 4.7019 7.17293 4.7019C7.13136 4.7019 7.09766 4.72533 7.09766 4.75423C7.09766 4.78313 7.13136 4.80656 7.17293 4.80656Z" fill="white" stroke="#EF2D28" stroke-width="0.0289101"/>
<path id="Vector_57" d="M7.47371 4.78117C7.51529 4.78117 7.54899 4.75774 7.54899 4.72884C7.54899 4.69994 7.51529 4.67651 7.47371 4.67651C7.43214 4.67651 7.39844 4.69994 7.39844 4.72884C7.39844 4.75774 7.43214 4.78117 7.47371 4.78117Z" fill="white" stroke="#EF2D28" stroke-width="0.0289101"/>
<g id="Vector_58">
<path fill-rule="evenodd" clip-rule="evenodd" d="M5.89989 5.5603L7.54665 6.86926L5.89989 5.5603ZM6.06426 5.5603L7.5482 6.7229L6.06426 5.5603ZM6.28289 5.60954L7.5482 6.57929L6.28289 5.60954ZM6.44726 5.60817L7.5482 6.43294L6.44726 5.60817ZM6.61318 5.60954L7.54665 6.28795L6.61318 5.60954ZM6.77754 5.60954L7.54665 6.14297L6.77754 5.60954ZM6.94191 5.60954L7.54665 5.99662L6.94191 5.60954ZM7.10938 5.60954L7.54975 5.89951L7.10938 5.60954ZM7.27219 5.60954L7.5482 5.80377L7.27219 5.60954ZM7.43811 5.60954L7.54665 5.70529L7.43811 5.60954ZM5.89989 5.70529L7.54665 7.01561L5.89989 5.70529ZM7.54665 5.56167L5.73242 7.01424L7.54665 5.56167ZM7.38074 5.5603L5.78824 6.82138L7.38074 5.5603ZM7.1621 5.60954L5.89834 6.57792L7.1621 5.60954ZM6.99618 5.60954L5.89834 6.43294L6.99618 5.60954ZM6.83337 5.60954L5.89989 6.28795L6.83337 5.60954ZM6.669 5.60954L5.89989 6.14297L6.669 5.60954ZM6.50463 5.60954L5.89989 5.99662L6.50463 5.60954ZM6.33717 5.60954L5.89834 5.89951L6.33717 5.60954ZM6.1728 5.60954L5.89834 5.80377L6.1728 5.60954ZM6.00688 5.60954L5.89834 5.70529L6.00688 5.60954ZM7.54665 5.70529L5.73242 7.16196L7.54665 5.70529ZM7.54665 5.853L5.73242 7.30557L7.54665 5.853ZM7.54665 5.99662L5.73242 7.45056L7.54665 5.99662ZM7.54665 6.1416L5.73242 7.59828L7.54665 6.1416ZM7.54665 6.28932L5.73242 7.74189L7.54665 6.28932ZM7.54665 6.43294L5.73242 7.88687L7.54665 6.43294ZM7.54665 6.57792L5.73242 8.03186L7.54665 6.57792ZM7.54665 6.72427L5.73242 8.17821L7.54665 6.72427ZM7.54665 6.86926L5.84252 8.22608L7.54665 6.86926ZM7.54665 7.01424L6.00843 8.22608L7.54665 7.01424ZM7.49083 7.20846L6.28134 8.17821L7.49083 7.20846ZM7.43811 7.40132L6.44881 8.17684L7.43811 7.40132ZM7.32801 7.64341L6.83181 8.03049L7.32801 7.64341ZM5.89989 5.85027L7.49238 7.10998L5.89989 5.85027ZM5.89989 5.99525L7.49238 7.25633L5.89989 5.99525ZM5.89989 6.14297L7.43811 7.35344L5.89989 6.14297ZM5.89989 6.28659L7.43811 7.4998L5.89989 6.28659ZM5.89989 6.43294L7.38229 7.59554L5.89989 6.43294ZM5.84407 6.53005L7.32801 7.69265L5.84407 6.53005ZM5.84407 6.6764L7.21792 7.74326L5.84407 6.6764ZM5.7898 6.77214L7.16365 7.839L5.7898 6.77214ZM5.73242 6.86789L7.05045 7.88551L5.73242 6.86789ZM5.73242 7.01287L6.99618 7.98262L5.73242 7.01287ZM5.73242 7.15922L6.83337 8.03049L5.73242 7.15922Z" fill="white"/>
<path d="M5.89989 5.5603L7.54665 6.86926L5.84252 8.22608M6.06426 5.5603L7.5482 6.7229M6.28289 5.60954L7.5482 6.57929M6.44726 5.60817L7.5482 6.43294M6.61318 5.60954L7.54665 6.28795M6.77754 5.60954L7.54665 6.14297M6.94191 5.60954L7.54665 5.99662L5.73242 7.45056M7.10938 5.60954L7.54975 5.89951M7.27219 5.60954L7.5482 5.80377M7.43811 5.60954L7.54665 5.70529L5.73242 7.16196M5.89989 5.70529L7.54665 7.01561M7.54665 5.56167L5.73242 7.01424M7.38074 5.5603L5.78824 6.82138M7.1621 5.60954L5.89834 6.57792M6.99618 5.60954L5.89834 6.43294M6.83337 5.60954L5.89989 6.28795M6.669 5.60954L5.89989 6.14297L7.43811 7.35344M6.50463 5.60954L5.89989 5.99662M6.33717 5.60954L5.89834 5.89951M6.1728 5.60954L5.89834 5.80377M6.00688 5.60954L5.89834 5.70529M7.54665 5.853L5.73242 7.30557M7.54665 6.1416L5.73242 7.59828M7.54665 6.28932L5.73242 7.74189M7.54665 6.43294L5.73242 7.88687M7.54665 6.57792L5.73242 8.03186M7.54665 6.72427L5.73242 8.17821M7.54665 7.01424L6.00843 8.22608M7.49083 7.20846L6.28134 8.17821M7.43811 7.40132L6.44881 8.17684M7.32801 7.64341L6.83181 8.03049M5.89989 5.85027L7.49238 7.10998M5.89989 5.99525L7.49238 7.25633M5.89989 6.28659L7.43811 7.4998M5.89989 6.43294L7.38229 7.59554M5.84407 6.53005L7.32801 7.69265M5.84407 6.6764L7.21792 7.74326M5.7898 6.77214L7.16365 7.839M5.73242 6.86789L7.05045 7.88551M5.73242 7.01287L6.99618 7.98262M5.73242 7.15922L6.83337 8.03049" stroke="#EF2D28" stroke-width="0.0304956"/>
</g>
<path id="Vector_59" fill-rule="evenodd" clip-rule="evenodd" d="M5.89844 5.31909V5.56118C6.44355 5.64181 7.00009 5.64181 7.5452 5.56118V5.31909C7.00009 5.39972 6.44355 5.39972 5.89844 5.31909Z" fill="white" stroke="#EF2D28" stroke-width="0.0304956"/>
<g id="Vector_60">
<path fill-rule="evenodd" clip-rule="evenodd" d="M5.73397 7.30542L6.72327 8.08094L5.73397 7.30542ZM5.73397 7.45177L6.61318 8.12882L5.73397 7.45177ZM5.73397 7.59539L6.50308 8.17805L5.73397 7.59539ZM5.73397 7.74037L6.28444 8.17805L5.73397 7.74037ZM5.73242 7.88672L6.1728 8.22593L5.73242 7.88672ZM5.73242 8.0317L6.00688 8.22593L5.73242 8.0317Z" fill="white"/>
<path d="M5.73397 7.30542L6.72327 8.08094M5.73397 7.45177L6.61318 8.12882M5.73397 7.59539L6.50308 8.17805M5.73397 7.74037L6.28444 8.17805M5.73242 7.88672L6.1728 8.22593M5.73242 8.0317L6.00688 8.22593" stroke="#EF2D28" stroke-width="0.0304956"/>
</g>
<path id="Vector_61" d="M5.97371 5.50871C6.01529 5.50871 6.04899 5.48528 6.04899 5.45638C6.04899 5.42748 6.01529 5.40405 5.97371 5.40405C5.93214 5.40405 5.89844 5.42748 5.89844 5.45638C5.89844 5.48528 5.93214 5.50871 5.97371 5.50871Z" fill="white" stroke="#EF2D28" stroke-width="0.0289101"/>
<path id="Vector_62" d="M6.27449 5.53508C6.31607 5.53508 6.34977 5.51165 6.34977 5.48275C6.34977 5.45385 6.31607 5.43042 6.27449 5.43042C6.23292 5.43042 6.19922 5.45385 6.19922 5.48275C6.19922 5.51165 6.23292 5.53508 6.27449 5.53508Z" fill="white" stroke="#EF2D28" stroke-width="0.0289101"/>
<path id="Vector_63" d="M6.57332 5.55949C6.6149 5.55949 6.6486 5.53606 6.6486 5.50716C6.6486 5.47826 6.6149 5.45483 6.57332 5.45483C6.53175 5.45483 6.49805 5.47826 6.49805 5.50716C6.49805 5.53606 6.53175 5.55949 6.57332 5.55949Z" fill="white" stroke="#EF2D28" stroke-width="0.0289101"/>
<path id="Vector_64" d="M6.8741 5.55949C6.91568 5.55949 6.94938 5.53606 6.94938 5.50716C6.94938 5.47826 6.91568 5.45483 6.8741 5.45483C6.83253 5.45483 6.79883 5.47826 6.79883 5.50716C6.79883 5.53606 6.83253 5.55949 6.8741 5.55949Z" fill="white" stroke="#EF2D28" stroke-width="0.0289101"/>
<path id="Vector_65" d="M7.17293 5.53508C7.2145 5.53508 7.24821 5.51165 7.24821 5.48275C7.24821 5.45385 7.2145 5.43042 7.17293 5.43042C7.13136 5.43042 7.09766 5.45385 7.09766 5.48275C7.09766 5.51165 7.13136 5.53508 7.17293 5.53508Z" fill="white" stroke="#EF2D28" stroke-width="0.0289101"/>
<path id="Vector_66" d="M7.47371 5.50871C7.51529 5.50871 7.54899 5.48528 7.54899 5.45638C7.54899 5.42748 7.51529 5.40405 7.47371 5.40405C7.43214 5.40405 7.39844 5.42748 7.39844 5.45638C7.39844 5.48528 7.43214 5.50871 7.47371 5.50871Z" fill="white" stroke="#EF2D28" stroke-width="0.0289101"/>
<g id="Vector_67">
<path fill-rule="evenodd" clip-rule="evenodd" d="M3.53691 7.83866L5.51396 6.82104L3.53691 7.83866ZM3.42682 7.78942L5.29532 6.82104L3.42682 7.78942ZM3.37255 7.69231L5.07513 6.82104L3.37255 7.69231ZM3.31672 7.59657L4.80067 6.82104L3.31672 7.59657ZM3.20508 7.49946L4.57893 6.82104L3.20508 7.49946ZM3.2609 7.35447L4.19438 6.86892L3.2609 7.35447ZM3.20508 7.256L3.91837 6.86892L3.20508 7.256ZM3.20508 7.11101L3.70128 6.86892L3.20508 7.11101ZM3.70128 7.88654L5.56823 6.91679L3.70128 7.88654ZM3.8672 7.93441L5.62405 7.0139L3.8672 7.93441ZM4.03156 7.98365L5.67988 7.11101L4.03156 7.98365ZM4.19593 8.03152L5.56978 7.30523L4.19593 8.03152ZM4.41457 8.03152L5.62405 7.40235L4.41457 8.03152ZM4.57893 8.08076L5.6225 7.54733L4.57893 8.08076ZM4.7433 8.12863L5.56823 7.69231L4.7433 8.12863ZM4.96349 8.13L5.6225 7.78942L4.96349 8.13ZM5.18368 8.17787L5.62405 7.93441L5.18368 8.17787ZM5.40697 8.17787L5.68143 8.03289L5.40697 8.17787Z" fill="white"/>
<path d="M3.53691 7.83866L5.51396 6.82104M3.42682 7.78942L5.29532 6.82104M3.37255 7.69231L5.07513 6.82104M3.31672 7.59657L4.80067 6.82104M3.20508 7.49946L4.57893 6.82104M3.2609 7.35447L4.19438 6.86892M3.20508 7.256L3.91837 6.86892M3.20508 7.11101L3.70128 6.86892M3.70128 7.88654L5.56823 6.91679M3.86719 7.93441L5.62405 7.0139M4.03156 7.98365L5.67988 7.11101M4.19593 8.03152L5.56978 7.30523M4.41457 8.03152L5.62405 7.40235M4.57893 8.08076L5.6225 7.54733M4.7433 8.12863L5.56823 7.69231M4.96349 8.13L5.6225 7.78942M5.18368 8.17787L5.62405 7.93441M5.40697 8.17787L5.68143 8.03289" stroke="#EF2D28" stroke-width="0.0304956"/>
</g>
<path id="Vector_68" fill-rule="evenodd" clip-rule="evenodd" d="M5.78711 6.77319H5.51265C5.42125 7.25403 5.42125 7.74493 5.51265 8.22576H5.78711C5.69571 7.74493 5.69571 7.25403 5.78711 6.77319Z" fill="white" stroke="#EF2D28" stroke-width="0.0304956"/>
<g id="Vector_69">
<path fill-rule="evenodd" clip-rule="evenodd" d="M2.54688 7.44977L3.20589 6.96558L2.54688 7.44977ZM2.54688 7.11056L3.20589 7.69186L2.54688 7.11056Z" fill="white"/>
<path d="M2.54688 7.44977L3.20589 6.96558M2.54688 7.11056L3.20589 7.69186" stroke="#EF2D28" stroke-width="0.0304956"/>
</g>
<path id="Vector_70" fill-rule="evenodd" clip-rule="evenodd" d="M3.53516 6.86792L3.20518 6.91643C3.13199 7.22395 3.13199 7.48209 3.20518 7.78961L3.53516 7.88576C3.46197 7.57911 3.46197 7.17544 3.53516 6.86792Z" fill="white" stroke="#EF2D28" stroke-width="0.0217069"/>
<path id="Vector_71" fill-rule="evenodd" clip-rule="evenodd" d="M7.54566 4.44471V4.19988C7.29707 4.20261 7.13211 4.05626 7.13211 3.90991L6.30966 3.91128C6.30966 4.05626 6.14703 4.20261 5.89844 4.20261V4.44471H7.54566Z" fill="white" stroke="#EF2D28" stroke-width="0.0373282"/>
<g id="Vector_72">
<path fill-rule="evenodd" clip-rule="evenodd" d="M6.36719 3.62219H7.07427V3.91352H6.36719V3.62219ZM6.42766 3.33085H7.01535V3.62219H6.42611L6.42766 3.33085ZM6.42766 3.04088H7.01535V3.33085H6.42611L6.42766 3.04088ZM6.48659 2.65244H6.95643V3.04088H6.48659V2.65244ZM6.46643 2.31323H6.97813V2.65244H6.46643V2.31323Z" fill="white"/>
<path d="M7.01535 3.33085H6.42766L6.42611 3.62219H7.01535V3.33085ZM7.01535 3.33085V3.04088H6.42766L6.42611 3.33085H7.01535ZM6.36719 3.62219H7.07427V3.91352H6.36719V3.62219ZM6.48659 2.65244H6.95642V3.04088H6.48659V2.65244ZM6.46643 2.31323H6.97813V2.65244H6.46643V2.31323Z" stroke="#EF2D28" stroke-width="0.0328414"/>
</g>
<path id="Vector_73" d="M6.74932 2.45874C7.1254 2.45874 7.43028 2.25237 7.43028 1.9978C7.43028 1.74323 7.1254 1.53687 6.74932 1.53687C6.37324 1.53687 6.06836 1.74323 6.06836 1.9978C6.06836 2.25237 6.37324 2.45874 6.74932 2.45874Z" fill="white" stroke="#EF2D28" stroke-width="0.0309992"/>
<path id="Vector_74" fill-rule="evenodd" clip-rule="evenodd" d="M7.09068 1.97377C7.09068 2.10097 7.26052 2.31297 7.26052 2.31297C7.13715 2.39778 6.93687 2.45933 6.7494 2.45933C6.56194 2.45933 6.32801 2.42376 6.23828 2.31297C6.23828 2.31297 6.40812 2.10234 6.40812 1.97514C6.40812 1.84793 6.23828 1.6838 6.23828 1.6838C6.387 1.59052 6.56646 1.53977 6.751 1.53882C6.93687 1.53882 7.13555 1.60037 7.26052 1.6838C7.26052 1.6838 7.09068 1.84793 7.09068 1.97514V1.97377Z" fill="white" stroke="#EF2D28" stroke-width="0.0309992"/>
<path id="Vector_75" fill-rule="evenodd" clip-rule="evenodd" d="M6.97669 1.97365C6.97669 2.10085 7.14653 2.36209 7.14653 2.36209C7.02315 2.44416 6.93823 2.45784 6.74917 2.45784C6.5601 2.45784 6.44153 2.47288 6.35181 2.36209C6.35181 2.36209 6.52165 2.10222 6.52165 1.97365C6.52165 1.84508 6.35181 1.63444 6.35181 1.63444C6.47518 1.55237 6.5601 1.5387 6.74917 1.5387C6.93663 1.5387 7.02315 1.55237 7.14653 1.63444C7.14653 1.63444 6.97669 1.84644 6.97669 1.97365Z" fill="white" stroke="#EF2D28" stroke-width="0.0309992"/>
<path id="Vector_76" d="M6.06815 2.16643C6.16195 2.16643 6.23799 2.10152 6.23799 2.02145C6.23799 1.94138 6.16195 1.87646 6.06815 1.87646C5.97436 1.87646 5.89832 1.94138 5.89832 2.02145C5.89832 2.10152 5.97436 2.16643 6.06815 2.16643Z" fill="white" stroke="#EF2D28" stroke-width="0.0309992"/>
<path id="Vector_77" d="M7.43156 2.16668C7.52536 2.16668 7.6014 2.10176 7.6014 2.02169C7.6014 1.94162 7.52536 1.87671 7.43156 1.87671C7.33776 1.87671 7.26172 1.94162 7.26172 2.02169C7.26172 2.10176 7.33776 2.16668 7.43156 2.16668Z" fill="white" stroke="#EF2D28" stroke-width="0.0309992"/>
<path id="Vector_78" d="M6.74992 2.16668C6.84372 2.16668 6.91976 2.10176 6.91976 2.02169C6.91976 1.94162 6.84372 1.87671 6.74992 1.87671C6.65612 1.87671 6.58008 1.94162 6.58008 2.02169C6.58008 2.10176 6.65612 2.16668 6.74992 2.16668Z" fill="white" stroke="#EF2D28" stroke-width="0.0309992"/>
<path id="Vector_79" d="M6.74992 1.6823C6.84372 1.6823 6.91976 1.61739 6.91976 1.53732C6.91976 1.45725 6.84372 1.39233 6.74992 1.39233C6.65612 1.39233 6.58008 1.45725 6.58008 1.53732C6.58008 1.61739 6.65612 1.6823 6.74992 1.6823Z" fill="white" stroke="#EF2D28" stroke-width="0.0309992"/>
<path id="Vector_80" d="M6.25208 4.445C6.34923 4.445 6.42798 4.38008 6.42798 4.30001C6.42798 4.21994 6.34923 4.15503 6.25208 4.15503C6.15493 4.15503 6.07617 4.21994 6.07617 4.30001C6.07617 4.38008 6.15493 4.445 6.25208 4.445Z" fill="white" stroke="#EF2D28" stroke-width="0.0315479"/>
<path id="Vector_81" d="M7.19153 4.445C7.28868 4.445 7.36743 4.38008 7.36743 4.30001C7.36743 4.21994 7.28868 4.15503 7.19153 4.15503C7.09438 4.15503 7.01562 4.21994 7.01562 4.30001C7.01562 4.38008 7.09438 4.445 7.19153 4.445Z" fill="white" stroke="#EF2D28" stroke-width="0.0315479"/>
<path id="Vector_82" fill-rule="evenodd" clip-rule="evenodd" d="M6.31055 3.91174H7.13365L6.7221 4.34806L6.31055 3.91174Z" fill="white" stroke="#EF2D28" stroke-width="0.0315479"/>
<path id="Vector_83" d="M6.72088 4.44399C6.85042 4.44399 6.95543 4.35744 6.95543 4.25068C6.95543 4.14392 6.85042 4.05737 6.72088 4.05737C6.59134 4.05737 6.48633 4.14392 6.48633 4.25068C6.48633 4.35744 6.59134 4.44399 6.72088 4.44399Z" fill="white" stroke="#EF2D28" stroke-width="0.0420643"/>
</g>
<g id="Group_8">
<path id="Vector_84" d="M7.01739 5.70093H5.88699C5.85016 5.70093 5.82031 5.72358 5.82031 5.75153V5.94165C5.82031 5.9696 5.85016 5.99226 5.88699 5.99226H7.01739C7.05422 5.99226 7.08407 5.9696 7.08407 5.94165V5.75153C7.08407 5.72358 7.05422 5.70093 7.01739 5.70093Z" fill="white" stroke="#EF2D28" stroke-width="0.0281498"/>
<path id="Vector_85" fill-rule="evenodd" clip-rule="evenodd" d="M7.46832 5.45818C7.31636 5.45818 7.19386 5.5717 7.19386 5.71121V5.93142C7.19283 5.96398 7.19913 5.9964 7.21241 6.02679C7.22568 6.05719 7.24566 6.08496 7.27119 6.10849C7.29672 6.13203 7.32729 6.15086 7.36112 6.1639C7.39496 6.17694 7.4314 6.18393 7.46832 6.18446C7.50524 6.18393 7.54168 6.17694 7.57552 6.1639C7.60935 6.15086 7.63992 6.13203 7.66545 6.10849C7.69098 6.08496 7.71096 6.05719 7.72423 6.02679C7.73751 5.9964 7.74381 5.96398 7.74278 5.93142V5.71258C7.74402 5.67991 7.73787 5.64734 7.72469 5.61679C7.71151 5.58624 7.69157 5.5583 7.66602 5.53462C7.64047 5.51094 7.60983 5.49198 7.57589 5.47886C7.54194 5.46573 7.50538 5.4587 7.46832 5.45818ZM7.46832 5.55392C7.37683 5.55392 7.30395 5.64556 7.30395 5.75772V5.88492C7.30395 5.99708 7.37683 6.08735 7.46832 6.08735C7.55981 6.08735 7.63269 5.99708 7.63269 5.88492V5.75772C7.63269 5.64556 7.55981 5.55529 7.46832 5.55529V5.55392ZM6.04019 5.50605C5.94716 5.50605 5.87583 5.59632 5.87583 5.70984V5.93416C5.87583 6.04631 5.94871 6.13659 6.04019 6.13659C6.13168 6.13659 6.20456 6.04631 6.20456 5.93416V5.70848C6.20456 5.59495 6.13168 5.50468 6.04019 5.50468V5.50605ZM6.04019 5.4103C6.00327 5.41083 5.96684 5.41782 5.933 5.43086C5.89916 5.4439 5.86859 5.46273 5.84306 5.48627C5.81753 5.5098 5.79755 5.53757 5.78428 5.56797C5.77101 5.59836 5.7647 5.63078 5.76573 5.66334V5.98066C5.7647 6.01322 5.77101 6.04564 5.78428 6.07603C5.79755 6.10643 5.81753 6.1342 5.84306 6.15773C5.86859 6.18127 5.89916 6.2001 5.933 6.21314C5.96684 6.22618 6.00327 6.23317 6.04019 6.2337C6.19216 6.2337 6.31465 6.12017 6.31465 5.98066V5.66334C6.3159 5.63067 6.30975 5.5981 6.29657 5.56755C6.28339 5.537 6.26344 5.50906 6.23789 5.48538C6.21234 5.4617 6.1817 5.44274 6.14776 5.42962C6.11382 5.41649 6.07725 5.40946 6.04019 5.40894V5.4103Z" fill="white" stroke="#EF2D28" stroke-width="0.0281498"/>
<path id="Vector_86" fill-rule="evenodd" clip-rule="evenodd" d="M5.59879 5.6037C5.5073 5.6037 5.43442 5.69398 5.43442 5.80613V5.85948C5.43442 5.97163 5.5073 6.0619 5.59879 6.0619C5.69183 6.0619 5.76471 5.97163 5.76471 5.85948V5.80613C5.76471 5.69398 5.69027 5.6037 5.59879 5.6037ZM5.59879 5.50796C5.56187 5.50849 5.52543 5.51548 5.49159 5.52852C5.45775 5.54156 5.42718 5.56039 5.40166 5.58393C5.37613 5.60746 5.35615 5.63523 5.34287 5.66563C5.3296 5.69602 5.3233 5.72844 5.32433 5.761V5.90598C5.3233 5.93854 5.3296 5.97096 5.34287 6.00135C5.35615 6.03175 5.37613 6.05952 5.40166 6.08305C5.42718 6.10659 5.45775 6.12542 5.49159 6.13846C5.52543 6.1515 5.56187 6.15849 5.59879 6.15902C5.75075 6.15902 5.8748 6.04549 5.8748 5.90598V5.761C5.87604 5.72821 5.86984 5.69554 5.85657 5.66489C5.84329 5.63425 5.82321 5.60626 5.79749 5.58256C5.77178 5.55885 5.74096 5.53993 5.70683 5.52688C5.67271 5.51384 5.63598 5.50694 5.59879 5.50659V5.50796Z" fill="white" stroke="#EF2D28" stroke-width="0.0281498"/>
<path id="Vector_87" fill-rule="evenodd" clip-rule="evenodd" d="M4.94229 5.46962C4.77482 5.46962 4.64364 5.5705 4.64364 5.69585V5.94807C4.64364 6.07189 4.77762 6.17431 4.94229 6.17431C5.10418 6.17431 5.23815 6.07342 5.23815 5.94654V5.69585C5.23815 5.5705 5.10418 5.46962 4.94229 5.46962ZM4.94229 5.36261C4.87584 5.36301 4.81019 5.37062 4.74914 5.38501C4.68809 5.3994 4.63287 5.42028 4.58666 5.44644C4.54045 5.4726 4.50418 5.50352 4.47994 5.53741C4.45571 5.5713 4.44399 5.60749 4.44547 5.64388V5.99852C4.44324 6.03503 4.45431 6.07142 4.47803 6.10557C4.50175 6.13972 4.53766 6.17094 4.58364 6.1974C4.62963 6.22387 4.68478 6.24506 4.74588 6.25972C4.80698 6.27439 4.8728 6.28225 4.9395 6.28284C5.21582 6.28284 5.43632 6.15596 5.43632 5.99852V5.64388C5.43818 5.60749 5.42683 5.57126 5.40294 5.53729C5.37904 5.50332 5.34308 5.47229 5.29713 5.44598C5.25118 5.41968 5.19615 5.39863 5.13525 5.38406C5.07434 5.36949 5.00875 5.36168 4.94229 5.36108V5.36261Z" fill="white" stroke="#EF2D28" stroke-width="0.0299444"/>
<path id="Vector_88" fill-rule="evenodd" clip-rule="evenodd" d="M8.51273 5.51747C8.34526 5.51747 8.21408 5.61836 8.21408 5.7437V5.99592C8.21408 6.11974 8.34805 6.22216 8.51273 6.22216C8.67461 6.22216 8.80859 6.12127 8.80859 5.9944V5.7437C8.80859 5.61836 8.67461 5.51747 8.51273 5.51747ZM8.51273 5.41046C8.44627 5.41086 8.38062 5.41847 8.31957 5.43286C8.25853 5.44725 8.2033 5.46813 8.15709 5.49429C8.11088 5.52045 8.07461 5.55137 8.05038 5.58526C8.02614 5.61915 8.01443 5.65534 8.01591 5.69173V6.04637C8.01367 6.08288 8.02474 6.11928 8.04846 6.15342C8.07219 6.18757 8.10809 6.21879 8.15408 6.24525C8.20007 6.27172 8.25522 6.29291 8.31632 6.30758C8.37741 6.32224 8.44323 6.3301 8.50994 6.33069C8.78626 6.33069 9.00676 6.20382 9.00676 6.04637V5.69173C9.00861 5.65534 8.99726 5.61911 8.97337 5.58514C8.94948 5.55117 8.91351 5.52014 8.86756 5.49384C8.82161 5.46753 8.76659 5.44648 8.70568 5.43191C8.64477 5.41734 8.57919 5.40953 8.51273 5.40894V5.41046Z" fill="white" stroke="#EF2D28" stroke-width="0.0299444"/>
<path id="Vector_89" d="M8.20148 5.70093H7.61379C7.59409 5.70093 7.57812 5.72358 7.57812 5.75153V5.94165C7.57812 5.9696 7.59409 5.99226 7.61379 5.99226H8.20148C8.22117 5.99226 8.23714 5.9696 8.23714 5.94165V5.75153C8.23714 5.72358 8.22117 5.70093 8.20148 5.70093Z" fill="white" stroke="#EF2D28" stroke-width="0.0281498"/>
<path id="Vector_90" d="M7.33705 5.65308H6.99281C6.98168 5.65308 6.97266 5.68308 6.97266 5.7201V5.9745C6.97266 6.01152 6.98168 6.04152 6.99281 6.04152H7.33705C7.34819 6.04152 7.35721 6.01152 7.35721 5.9745V5.7201C7.35721 5.68308 7.34819 5.65308 7.33705 5.65308Z" fill="white" stroke="#EF2D28" stroke-width="0.0281498"/>
<path id="Vector_91" d="M5.52455 5.65308H5.18031C5.16918 5.65308 5.16016 5.68308 5.16016 5.7201V5.9745C5.16016 6.01152 5.16918 6.04152 5.18031 6.04152H5.52455C5.53569 6.04152 5.54471 6.01152 5.54471 5.9745V5.7201C5.54471 5.68308 5.53569 5.65308 5.52455 5.65308Z" fill="white" stroke="#EF2D28" stroke-width="0.0281498"/>
<path id="Vector_92" d="M4.67997 5.60339H3.99149C3.96922 5.60339 3.95117 5.64075 3.95117 5.68683V6.00415C3.95117 6.05023 3.96922 6.08758 3.99149 6.08758H4.67997C4.70223 6.08758 4.72028 6.05023 4.72028 6.00415V5.68683C4.72028 5.64075 4.70223 5.60339 4.67997 5.60339Z" fill="white" stroke="#EF2D28" stroke-width="0.0281498"/>
<path id="Vector_93" d="M9.40849 5.65308H8.77119C8.74978 5.65308 8.73242 5.69043 8.73242 5.73651V6.05383C8.73242 6.09991 8.74978 6.13727 8.77119 6.13727H9.40849C9.4299 6.13727 9.44726 6.09991 9.44726 6.05383V5.73651C9.44726 5.69043 9.4299 5.65308 9.40849 5.65308Z" fill="white" stroke="#EF2D28" stroke-width="0.0281498"/>
</g>
</g>
</g>
</g>
</g>
</g>
<defs>
<clipPath id="clip0_1_565">
<rect width="50" height="37" fill="white" transform="translate(0.285156)"/>
</clipPath>
</defs>
</svg>
