<svg width="51" height="37" viewBox="0 0 51 37" fill="none" xmlns="http://www.w3.org/2000/svg">
<g id="Saudi Arabia (SA)" clip-path="url(#clip0_1_420)">
<g id="Clip path group">
<mask id="mask0_1_420" style="mask-type:luminance" maskUnits="userSpaceOnUse" x="0" y="0" width="51" height="37">
<g id="a">
<path id="Vector" d="M0.588135 0H50.5833V37H0.588135V0Z" fill="white"/>
</g>
</mask>
<g mask="url(#mask0_1_420)">
<g id="Group">
<path id="Vector_2" fill-rule="evenodd" clip-rule="evenodd" d="M-2.53882 0H53.7112V37H-2.53882V0Z" fill="#199D00"/>
<path id="Vector_3" fill-rule="evenodd" clip-rule="evenodd" d="M11.6331 10.4856C11.5745 11.3528 11.4866 12.8704 12.241 13.0293C13.1419 13.1161 12.6438 11.5262 12.9734 11.2372C13.032 11.0926 13.1419 11.0926 13.1492 11.2733V12.6247C13.1492 13.0583 13.4422 13.1883 13.6619 13.275C13.8963 13.2606 14.0574 13.275 14.1453 13.4918L14.2625 15.826C14.2625 15.826 14.8045 15.985 14.8338 14.518C14.8557 13.6508 14.658 12.9354 14.7752 12.7692C14.7752 12.603 14.9949 12.5958 15.1414 12.6752C15.3758 12.8342 15.4783 13.0366 15.8445 12.9643C16.4011 12.8053 16.7381 12.5379 16.7454 12.1188C16.7344 11.7069 16.6475 11.3004 16.489 10.9192C16.5183 10.8469 16.3865 10.6518 16.4158 10.5795C16.511 10.7385 16.6648 10.7241 16.6941 10.5795C16.5989 10.276 16.4524 9.97974 16.218 9.85688C16.0203 9.68345 15.7273 9.71235 15.6321 10.0737C15.5735 10.4856 15.7786 10.9698 16.0789 11.3745C16.1448 11.5262 16.2327 11.7864 16.1961 12.0176C16.0349 12.1116 15.8738 12.0682 15.7346 11.9309C15.7346 11.9309 15.2952 11.6057 15.2952 11.5262C15.4124 10.7891 15.3172 10.7024 15.2512 10.4928C15.2073 10.211 15.0681 10.117 14.9583 9.92915C14.8484 9.81353 14.7019 9.81353 14.6287 9.92915C14.4309 10.2616 14.5261 10.977 14.6653 11.3022C14.7678 11.5985 14.9217 11.7864 14.8484 11.7864C14.7898 11.9526 14.6653 11.9092 14.5701 11.7141C14.4629 11.3035 14.4112 10.8807 14.4163 10.4567C14.3797 10.1243 14.3357 9.41606 14.1087 9.22817C13.9768 9.05474 13.7791 9.14146 13.7058 9.30044C13.6865 9.62328 13.6938 9.94714 13.7278 10.2688C13.8743 10.8036 13.9256 11.2805 13.9988 11.8225C14.0208 12.5524 13.574 12.1405 13.596 11.7719C13.6921 11.3086 13.6846 10.8302 13.574 10.37C13.5008 10.1821 13.4202 10.1387 13.2371 10.1676C13.0979 10.1676 12.739 10.5506 12.6365 11.201C12.6365 11.201 12.5486 11.5334 12.512 11.8297C12.4607 12.1622 12.241 12.4079 12.0799 11.7864C11.948 11.3311 11.8601 10.2254 11.6404 10.4856H11.6331Z" fill="white"/>
<path id="Vector_4" fill-rule="evenodd" clip-rule="evenodd" d="M14.0862 14.0336L11.7424 15.1465C11.7644 14.6189 12.8484 13.6723 13.5955 13.665C14.0715 13.6723 13.9543 13.8457 14.0789 14.0336H14.0862Z" fill="white"/>
<path id="Vector_5" fill-rule="evenodd" clip-rule="evenodd" d="M13.6702 14.7567C12.4397 17.9003 16.5632 18.3411 17.0246 14.8868C17.0686 14.7423 17.2444 14.605 17.2737 14.8362C17.1785 17.9653 14.0803 18.1749 13.553 17.1921C13.4289 16.8539 13.3669 16.4966 13.3699 16.137C13.2966 15.5227 12.967 15.7612 12.9158 16.3682C12.8645 16.7079 12.8791 16.8018 12.8791 17.127C13.0403 19.5985 17.032 18.5362 17.6838 16.4983C18.0281 15.371 17.6252 14.5399 17.8083 14.5399C18.2038 14.9591 18.7605 14.5977 18.885 14.4532C18.9363 14.3809 19.0681 14.3304 19.156 14.4243C19.4636 14.6411 20.0056 14.5399 20.1228 14.1569C20.1887 13.7739 20.24 13.3837 20.2546 12.9862C19.9983 13.0585 19.8152 13.1091 19.7932 13.2175L19.7419 13.5499C19.72 13.6583 19.5076 13.6583 19.4929 13.521C19.3977 13.0874 19.0022 13.0368 18.7605 13.7016C18.6067 13.8317 18.3137 13.8606 18.2844 13.6655C18.321 13.2175 18.1379 13.1597 17.7717 13.3692L17.4201 10.7532C17.5666 10.7532 17.7131 10.8616 17.8523 10.6882C17.7058 10.2184 17.3762 9.26454 17.1931 9.19227C17.1125 9.0911 17.0393 9.15614 16.9221 9.18505C16.7317 9.24286 16.5559 9.40184 16.6145 9.71981C16.8342 11.0784 16.9807 12.1118 17.2077 13.4776C17.2444 13.6294 17.1125 13.839 16.9368 13.8173C16.6438 13.6222 16.5705 13.2247 16.0578 13.2391C15.6916 13.2391 15.2815 13.6366 15.2302 14.0124C15.1643 14.3159 15.1423 14.6411 15.2302 14.9013C15.4866 15.2048 15.7942 15.1759 16.0652 15.1108C16.2849 15.0169 16.468 14.8001 16.5486 14.8507C16.5998 14.9157 16.5559 15.6384 15.5012 16.1876C14.864 16.4766 14.3513 16.5345 14.0803 16.0214C13.9118 15.6962 14.095 14.4749 13.6702 14.7567Z" fill="white"/>
<path id="Vector_6" fill-rule="evenodd" clip-rule="evenodd" d="M18.9212 11.5628C19.1629 11.4761 20.3348 10.1464 20.3348 10.1464L20.159 10.0019C20.0931 9.9513 20.1004 9.89349 20.159 9.84291C20.4519 9.66947 20.3567 9.30814 20.2102 9.1347C20.1108 9.08687 20.0014 9.06262 19.8908 9.06387C19.7801 9.06513 19.6713 9.09186 19.573 9.14193C19.368 9.33705 19.324 9.64779 19.4851 9.83568C19.639 9.90795 19.7928 10.0669 19.6902 10.1536C19.2068 10.6595 17.8958 11.5339 18.0496 11.5628C18.0789 11.6062 18.8919 11.6062 18.9139 11.5628H18.9212ZM11.8167 16.2601C11.3772 16.9538 11.3406 17.9872 11.5823 18.298C11.7142 18.4425 11.9266 18.5076 12.0804 18.457C12.3587 18.3413 12.4832 17.7849 12.4173 17.5898C12.3221 17.4452 12.2488 17.4236 12.1536 17.5392C11.9632 17.9294 11.8826 17.662 11.8606 17.4452C11.8396 17.0781 11.8593 16.7098 11.9192 16.3468C11.9705 16.0433 11.9192 16.13 11.8167 16.2601ZM30.6473 15.1544C30.2225 14.2439 29.6292 13.3478 29.4461 13.0081C28.8753 12.1179 28.2694 11.25 27.6297 10.4066C27.1756 9.87181 28.3767 10.6306 27.4832 9.56107L26.8313 9.01908C26.6849 8.91791 26.3333 8.73002 26.2747 9.03353C26.2454 9.30814 26.26 9.45267 26.304 9.6767C26.3406 9.82123 26.5603 10.0742 26.6702 10.2187C28.1718 12.181 29.4906 14.2732 30.6106 16.4697C30.8011 16.3757 30.7571 15.3062 30.6473 15.1544Z" fill="white"/>
<path id="Vector_7" fill-rule="evenodd" clip-rule="evenodd" d="M28.7796 18.1749C28.6917 18.2688 28.9847 18.6663 29.3655 18.6663C29.9954 18.594 30.5521 18.2471 31.0648 17.3221C31.2731 17.0144 31.406 16.6631 31.453 16.2959C31.515 14.5416 31.3724 12.7861 31.0281 11.0639C31.0062 10.9194 31.0281 10.7459 31.0428 10.7026C31.0867 10.652 31.2259 10.7026 31.2991 10.5797C31.409 10.4713 31.0062 9.56802 30.7864 9.22837C30.7132 9.06939 30.6766 8.96821 30.5447 9.24282C30.3857 9.54583 30.3099 9.88471 30.325 10.2256C30.6253 12.2852 30.7205 14.0846 30.911 16.1442C30.9329 16.3465 30.9036 16.6356 30.7645 16.7512C30.2118 17.3583 29.5354 17.8435 28.7796 18.1749ZM37.3123 18.1676C36.8582 18.4278 36.8582 18.7241 37.2244 18.7313C37.8543 18.659 38.6014 18.6084 39.1141 17.8424C39.2952 17.4816 39.3998 17.0882 39.4217 16.6862C39.5139 14.9589 39.3984 13.2269 39.0775 11.5264C39.0628 11.3819 38.9969 11.0422 39.0189 10.9989C39.0628 10.8977 39.2679 11.0061 39.3411 10.8905C39.4437 10.7821 38.8065 9.97271 38.5794 9.62583C38.5062 9.46685 38.4769 9.36567 38.3377 9.64028C38.1902 9.94608 38.1441 10.29 38.2059 10.6231C38.5428 12.8633 38.7918 14.5399 38.8431 16.52C38.8138 16.7079 38.8065 16.809 38.7186 17.0475C38.5208 17.2932 38.3011 17.6112 38.096 17.7629C37.8909 17.9075 37.4515 18.052 37.3123 18.1676Z" fill="white"/>
<path id="Vector_8" fill-rule="evenodd" clip-rule="evenodd" d="M37.6499 16.1659C37.6499 15.6384 37.6572 15.1903 37.6425 14.7929C37.6378 14.4562 37.563 14.1242 37.4228 13.8173C37.291 13.521 37.3715 13.2825 37.3056 12.9645C37.247 12.6466 37.2617 12.1696 37.1738 11.8011C37.1445 11.6565 37.0712 11.1868 37.0932 11.1362C37.1298 11.035 37.269 11.1362 37.3422 11.0206C37.4448 10.9122 36.976 9.71981 36.7416 9.38016C36.6611 9.2284 36.5 9.27899 36.3168 9.52469C36.1337 9.6909 36.1997 10.0595 36.2729 10.4136C36.7197 12.7477 37.0639 14.8651 36.9907 17.0837C36.9614 17.2716 37.6499 16.52 37.6499 16.1659ZM34.3027 13.2753C34.017 13.2608 33.4238 12.7188 33.248 12.4081C33.2192 12.3321 33.207 12.2511 33.212 12.1702C33.2171 12.0892 33.2393 12.0103 33.2773 11.9384C33.3872 11.8661 33.5483 11.7938 33.6728 11.8661C33.6728 11.8661 33.7973 12.0395 33.7753 12.0612C33.9218 12.1335 33.9951 12.0973 34.0097 12.0323C34.017 11.9239 33.9658 11.8589 33.9658 11.7432C34.0317 11.4108 34.4052 11.3602 34.5517 11.5698C34.6542 11.6999 34.6982 11.9673 34.7055 12.1479C34.7055 12.2419 34.559 12.1335 34.4638 12.1479C34.3833 12.1768 34.3613 12.278 34.354 12.3647C34.3393 12.6032 34.31 12.9862 34.3027 13.2681V13.2753ZM29.0439 16.744C29.1171 16.0358 29.0146 14.7712 29.0073 14.352C28.9681 13.2741 28.8777 12.1986 28.7363 11.129C28.6484 10.522 28.9853 11.194 28.9414 10.8399C28.8315 10.2401 28.4946 9.82821 28.0917 9.28622C27.9672 9.10555 27.9672 9.06942 27.7695 9.32958C27.5498 9.81376 27.7402 10.1534 27.7988 10.5364C28.0844 11.7794 28.2529 12.9212 28.3334 14.0557C28.4178 15.2343 28.4276 16.417 28.3627 17.5968C28.5825 17.604 28.9194 17.2571 29.0439 16.744Z" fill="white"/>
<path id="Vector_9" fill-rule="evenodd" clip-rule="evenodd" d="M38.6232 15.6093C38.1179 14.7711 37.3635 13.875 37.1584 13.5353C36.4792 12.5995 35.7659 11.6884 35.0197 10.8037C34.3971 10.1533 35.3127 10.6953 34.9025 10.1894C34.5583 9.82087 34.4631 9.69802 34.1628 9.474C34.0163 9.38005 33.9284 9.19939 33.8698 9.51013C33.8465 9.77929 33.8416 10.0497 33.8552 10.3195C33.8552 10.4424 33.987 10.6808 34.1042 10.8254C35.6203 12.6681 37.2829 14.547 38.6159 16.9101C38.8063 16.8162 38.7404 15.7539 38.6159 15.6093H38.6232Z" fill="white"/>
<path id="Vector_10" fill-rule="evenodd" clip-rule="evenodd" d="M15.8151 14.07C15.7785 14.135 15.6979 14.2145 15.7272 14.294C15.7785 14.3663 15.8298 14.388 15.9177 14.388C15.9982 14.388 16.1154 14.4096 16.1374 14.3663C16.1813 14.3157 16.2106 14.2218 16.1813 14.1278C16.0934 13.911 15.8591 13.9977 15.8151 14.07Z" fill="#1BA400"/>
<path id="Vector_11" fill-rule="evenodd" clip-rule="evenodd" d="M32.7795 26.1966C33.4534 26.2255 33.8928 26.2327 34.4861 26.2978L35.1892 26.2255C35.9656 26.1532 35.9949 27.3167 35.9949 27.3167C35.9949 28.0032 35.7239 28.0394 35.3796 28.1116C35.1819 28.1406 35.0867 27.996 34.9768 27.8515C34.8112 27.9039 34.6347 27.9138 34.4641 27.8804C34.1785 27.8659 33.9001 27.8659 33.6218 27.8443C33.3289 27.8226 33.1677 27.8804 32.8674 27.8515C32.8088 27.9454 32.7209 28.0755 32.5452 28.0394C32.3987 28.0177 32.2156 27.6058 32.2668 27.2806C32.3767 27.0493 32.3401 27.1288 32.3401 27.0277C29.5862 26.9554 26.8103 26.8325 24.115 26.8687C22.0056 26.8759 19.9255 26.9626 17.8381 27.0493C16.7249 27.0349 15.8752 26.8615 15.2893 26.0159C15.3479 26.0159 18.1311 26.1677 18.9441 26.1171C20.4456 26.1027 21.8225 25.9798 23.3533 25.9364C26.3708 25.987 29.3665 25.987 32.384 26.1966C32.0911 26.0015 32.0911 25.5462 32.5305 25.4306C32.5671 25.4017 32.5891 25.6546 32.655 25.6474C33.0139 25.6257 32.8528 26.1027 32.7795 26.1966ZM20.6506 9.77786C20.1965 11.0642 20.9143 12.4806 21.4124 12.3433C21.7786 12.4878 21.9983 11.8085 22.1448 11.0714C22.2546 10.8618 22.3279 10.8402 22.3791 10.9486C22.3645 11.9314 22.4524 12.1554 22.7087 12.4517C23.28 12.8853 23.7561 12.5095 23.7927 12.4734L24.2322 12.0325C24.3347 11.9241 24.4666 11.9241 24.6057 12.0109C24.7449 12.1337 24.7229 12.3433 25.0159 12.4878C25.2649 12.589 25.7849 12.5167 25.9094 12.3072C26.0706 12.0253 26.1145 11.9314 26.1877 11.8302C26.3049 11.6784 26.5027 11.7435 26.5027 11.7941C26.4807 11.8808 26.3635 11.9603 26.4441 12.1193C26.5906 12.2204 26.6199 12.1554 26.7004 12.1337C26.9934 11.9892 27.2131 11.3677 27.2131 11.3677C27.2205 11.1364 27.0886 11.1509 27.0007 11.2087L26.7737 11.3605C26.6272 11.3822 26.3562 11.4761 26.217 11.2665C26.0779 11.0208 26.0779 10.6667 25.9753 10.4138C25.9753 10.3993 25.7849 10.0163 25.9607 9.99465C26.0486 10.0091 26.2317 10.0597 26.261 9.90793C26.3489 9.75618 26.0706 9.32981 25.8728 9.11301C25.7043 8.93235 25.47 8.91067 25.2429 9.09856C25.0818 9.24309 25.1038 9.40207 25.0745 9.55383C25.0467 9.66259 25.0455 9.7763 25.0709 9.8856C25.0964 9.9949 25.1478 10.0967 25.2209 10.1825C25.3821 10.4861 25.6677 10.8835 25.5725 11.4472C25.5725 11.4472 25.4041 11.7073 25.1111 11.6712C24.9866 11.6495 24.7888 11.5989 24.6863 10.8185C24.6057 10.2404 24.7009 9.41653 24.4519 9.03352C24.3567 8.79504 24.2908 8.57102 24.071 8.96848C24.0125 9.12746 23.7561 9.36594 23.9392 9.85012C24.1125 10.2864 24.1631 10.7608 24.0857 11.2232C23.9758 11.3822 23.9539 11.4327 23.8147 11.5845C23.6243 11.8013 23.4119 11.7435 23.2507 11.664C23.1042 11.57 22.9871 11.5195 22.9138 11.1943C22.9285 10.6884 22.9578 9.85735 22.8625 9.68391C22.7234 9.4093 22.4963 9.51047 22.4011 9.59719C21.9654 10.0748 21.6737 10.663 21.5588 11.2954C21.427 11.7146 21.2878 11.5917 21.1926 11.4255C20.9583 11.2087 20.9363 9.49602 20.6506 9.77786Z" fill="white"/>
<path id="Vector_12" fill-rule="evenodd" clip-rule="evenodd" d="M22.0269 12.5819C22.2393 12.4373 22.1441 12.3361 22.4517 12.6397C22.8488 13.3328 23.0793 14.1067 23.1256 14.9016C23.1109 15.0895 23.2428 15.2051 23.3087 15.1617C23.338 14.7281 24.4146 14.1211 25.4034 14.0344C25.5499 13.9983 25.4766 13.7164 25.4986 13.5719C25.44 13.0299 25.8062 12.5385 26.3189 12.5024C27.0221 12.6035 27.2564 12.9721 27.2711 13.5285C27.1905 14.6125 26.0479 14.7932 25.4107 14.8799C25.3155 14.916 25.2716 14.9594 25.4107 15.01L28.0914 15.0244L28.2306 15.0967C28.2452 15.169 28.1866 15.1112 28.0841 15.2846C27.9366 15.5402 27.8443 15.8231 27.8131 16.1156C27.0147 16.3758 26.1871 16.477 25.3521 16.5854C25.0592 16.7299 24.9127 16.925 24.9713 17.1418C25.0738 17.3803 25.7183 17.626 25.7183 17.6332C25.8429 17.7055 25.982 17.8862 25.6817 18.2547C24.378 18.1969 23.3599 17.6477 23.0084 16.8744C22.9058 16.7949 22.7887 16.8744 22.7154 16.9756C22.2027 17.626 21.7047 18.2041 20.8331 18.5221C20.3204 18.6522 19.7857 18.4426 19.5367 18.1102C19.3682 17.9151 19.3756 17.7055 19.317 17.6621C19.0313 17.785 16.6143 18.7967 16.922 18.3197C17.5079 17.7055 18.5333 17.243 19.4268 16.636C19.4928 16.4264 19.6099 15.7326 19.9615 15.5086C19.9835 15.5086 19.9102 15.9133 19.9176 16.0867C19.9176 16.2313 19.9029 16.2819 19.9322 16.2457C19.9981 16.2096 21.0821 15.3641 21.1773 15.1039C21.2799 14.9594 21.1993 14.5836 21.1993 14.5692C20.9942 14.0488 20.7086 14.0055 20.606 13.7453C20.5108 13.4057 20.5548 13.0154 20.7525 12.8998C20.9283 12.7481 21.1334 12.7625 21.3311 12.936C21.5509 13.1311 21.7413 13.5141 21.7999 13.7959C21.7633 13.9043 21.5069 13.7237 21.4337 13.7742C21.5747 13.9341 21.6684 14.1291 21.7047 14.3379C21.8512 14.9305 21.8072 15.1617 21.6607 15.5447C21.1773 16.5492 20.5621 16.8455 20.0201 17.2213C20.0055 17.2213 19.9981 17.4742 20.1959 17.6115C20.2691 17.6838 20.5548 17.7199 20.8844 17.6115C21.5885 17.2257 22.1579 16.6387 22.5177 15.9278C22.5799 15.3867 22.5199 14.8388 22.3419 14.3235C22.1295 13.8393 21.8805 13.1528 21.8805 13.1383C21.8731 12.8348 21.8951 12.7336 22.0269 12.5819ZM15.0103 9.7924C15.318 9.93693 15.9039 9.87189 15.8746 9.38049L15.8599 9.15646C15.8014 9.01193 15.6256 9.04806 15.589 9.19259C15.5743 9.24318 15.6109 9.32267 15.567 9.34435C15.5377 9.37326 15.4425 9.35881 15.4425 9.2215C15.4425 9.17814 15.4132 9.13478 15.3912 9.10588C15.3766 9.09142 15.3619 9.09142 15.3253 9.09142C15.2813 9.09142 15.2813 9.09865 15.2594 9.13478C15.252 9.17092 15.2374 9.20705 15.2374 9.25041C15.2374 9.30099 15.2081 9.31545 15.1788 9.32267C15.1349 9.32267 15.1422 9.32267 15.1056 9.30822C15.0909 9.28654 15.0689 9.27931 15.0689 9.23595L15.047 9.12033C15.0323 9.09865 15.003 9.0842 14.9737 9.07697C14.8053 9.07697 14.7906 9.27209 14.8053 9.34435C14.7906 9.35881 14.7833 9.69845 15.0103 9.7924Z" fill="white"/>
<path id="Vector_13" fill-rule="evenodd" clip-rule="evenodd" d="M24.055 13.5642C24.3627 13.7087 25.1024 13.6292 24.9193 13.1595L24.9046 12.9283C24.8387 12.7837 24.6703 12.8199 24.6337 12.9716C24.619 13.015 24.6556 13.0945 24.6044 13.1161C24.5824 13.1451 24.4798 13.1306 24.4872 13.0005C24.4872 12.9572 24.4579 12.9066 24.4359 12.8777C24.4139 12.8704 24.4066 12.8632 24.3627 12.8632C24.326 12.8632 24.326 12.8777 24.3041 12.9138C24.2894 12.9499 24.2821 12.9861 24.2821 13.0294C24.2748 13.0728 24.2528 13.0872 24.2162 13.1017C24.1796 13.1017 24.1869 13.1017 24.1576 13.08C24.1356 13.0583 24.1136 13.0511 24.1136 13.015L24.0917 12.8994C24.077 12.8777 24.0477 12.8632 24.0184 12.856C23.85 12.856 23.8353 13.0439 23.8426 13.1161C23.8353 13.1306 23.828 13.4775 24.0624 13.5642H24.055ZM29.3285 12.0033C29.6361 12.1478 30.2147 12.0828 30.1927 11.5986L30.1781 11.3673C30.1122 11.2228 29.9437 11.2589 29.9071 11.4035C29.8924 11.454 29.9291 11.5335 29.8778 11.5624C29.8558 11.5841 29.7533 11.5697 29.7606 11.4324C29.7606 11.389 29.7313 11.3456 29.7093 11.3167C29.6874 11.3023 29.68 11.3023 29.6361 11.3023C29.5995 11.3023 29.5995 11.3167 29.5775 11.3529L29.5555 11.4613C29.5482 11.5119 29.5262 11.5335 29.4896 11.5335C29.453 11.5335 29.4603 11.5335 29.431 11.5191C29.409 11.4974 29.3871 11.4902 29.3871 11.454C29.3871 11.4179 29.3797 11.3601 29.3651 11.3312C29.3505 11.3095 29.3212 11.3023 29.2919 11.2951C29.1234 11.2951 29.1088 11.4829 29.1161 11.5552C29.1088 11.5697 29.1014 11.9093 29.3358 12.0033H29.3285ZM32.0604 15.9273C31.5257 16.5271 31.7601 17.5171 31.8846 17.7339C32.0604 18.0808 32.1996 18.3048 32.5438 18.4783C32.8588 18.7023 33.1078 18.565 33.2396 18.406C33.5546 18.0808 33.5619 17.2497 33.7084 17.0908C33.8109 16.7872 34.0746 16.8378 34.1991 16.9751C34.3156 17.1383 34.4717 17.27 34.6532 17.3581C34.9462 17.6111 35.2977 17.6617 35.6493 17.4304C35.8837 17.2931 36.0375 17.1269 36.1766 16.7872C36.3231 16.3826 36.2499 14.5036 36.2132 13.3908L35.9056 11.837C35.9056 11.8226 35.869 11.0999 35.8324 10.9337C35.8324 10.8615 35.8104 10.8398 35.8837 10.847C35.9642 10.9193 35.9715 10.9193 36.0301 10.941C36.1034 10.9554 36.1766 10.8181 36.1254 10.7025L35.3929 9.35834C35.3343 9.30052 35.2538 9.24271 35.1586 9.37279C35.1024 9.42297 35.0577 9.48435 35.0274 9.55287C34.9971 9.6214 34.9819 9.69549 34.9828 9.77025C35.0047 10.0882 35.056 10.4134 35.078 10.7314L35.371 12.3646C35.4662 13.5208 35.4881 14.4747 35.5834 15.6382C35.5687 16.1296 35.4149 16.556 35.2684 16.621C35.2684 16.621 35.0487 16.7439 34.9022 16.6066C34.7923 16.5632 34.3602 15.8911 34.3602 15.8911C34.1405 15.696 33.994 15.7466 33.8402 15.8911C33.4007 16.3103 33.2103 17.0763 32.91 17.6111C32.8368 17.7339 32.6171 17.8279 32.3827 17.6038C31.7821 16.7872 32.1337 15.631 32.0604 15.9273ZM29.4676 9.15599C29.746 9.26439 29.9364 9.82084 29.8778 10.0954C29.8192 10.4206 29.6727 10.782 29.5702 10.7386C29.453 10.6953 29.6434 10.4062 29.5336 10.1027C29.475 9.90033 29.0941 9.539 29.138 9.43783C29.0648 9.21381 29.2992 9.11263 29.4676 9.14877V9.15599Z" fill="white"/>
<path id="Vector_14" fill-rule="evenodd" clip-rule="evenodd" d="M32.9539 16.2601C33.0051 15.5952 32.9099 15.1905 32.8953 14.8003C32.8806 14.4101 32.4485 11.4327 32.3606 11.1436C32.2507 10.58 32.7781 11.0714 32.7195 10.739C32.5364 10.3343 32.0896 9.73447 31.9504 9.38037C31.8626 9.23583 31.8992 9.0913 31.7087 9.34423C31.5448 9.7877 31.4871 10.2626 31.5403 10.7317C31.9944 13.0659 32.4558 15.0026 32.3826 17.2212C32.6023 17.2212 32.844 16.737 32.9539 16.2601ZM37.6707 10.0958C37.927 10.2186 38.0735 10.9124 38.0442 11.1075C37.9929 11.4688 37.8611 11.8591 37.7659 11.8085C37.656 11.7651 37.7878 11.2737 37.7366 11.122C37.678 10.9052 37.3337 10.5149 37.3704 10.3993C37.2971 10.1536 37.5169 10.0524 37.6707 10.0958ZM18.9426 15.0026C19.1843 15.0966 19.3308 15.6024 19.3088 15.747C19.2503 16.0143 19.1257 16.3034 19.0305 16.2601C18.9353 16.2311 19.0525 15.8698 19.0086 15.7542C18.9866 15.4868 18.6497 15.3423 18.657 15.2267C18.5984 15.0099 18.8035 14.9737 18.95 15.0026H18.9426Z" fill="white"/>
<path id="Vector_15" fill-rule="evenodd" clip-rule="evenodd" d="M24.774 15.7688C25.0816 15.7832 25.2354 16.0289 24.9498 16.1301C24.6568 16.224 24.3858 16.3035 24.3785 16.7082C24.4883 17.2863 24.232 17.084 24.0855 17.0117C23.9097 16.8816 23.4117 16.5781 23.3384 15.9277C23.3311 15.776 23.4556 15.6387 23.6534 15.6387C23.9464 15.7182 24.3858 15.7254 24.774 15.7688Z" fill="#1B9D00"/>
<path id="Vector_16" fill-rule="evenodd" clip-rule="evenodd" d="M12.505 8.98985C12.8566 9.09102 12.8786 9.61133 12.8566 9.76309C12.8053 10.0377 12.6808 10.334 12.5929 10.2979C12.4904 10.2617 12.5929 9.88594 12.5417 9.77032C12.4904 9.61133 12.1901 9.30782 12.2194 9.2211C12.1535 9.04043 12.3659 8.95371 12.505 8.98985ZM19.529 11.418C19.2507 11.5625 19.1481 11.9961 19.3166 12.2563C19.4777 12.4731 19.7267 12.3936 19.756 12.3936C20.027 12.4225 20.1882 11.8949 20.1882 11.8949C20.1882 11.8949 20.1955 11.7504 19.8805 12.0322C19.7414 12.0539 19.7341 12.0033 19.6974 11.9311C19.6639 11.7935 19.6768 11.6489 19.7341 11.5191C19.7853 11.3891 19.6828 11.3313 19.529 11.418ZM21.5798 8.7875C21.4333 8.88145 21.1623 9.16328 21.1549 9.48125C21.1476 9.66192 21.111 9.66192 21.2282 9.77032C21.3234 9.90039 21.404 9.89317 21.5798 9.79922C21.6236 9.77202 21.6611 9.73613 21.6901 9.69383C21.7191 9.65154 21.7389 9.60375 21.7482 9.55352C21.7922 9.35118 21.5285 9.65469 21.4992 9.42344C21.4406 9.20664 21.609 9.11993 21.7702 8.91758C21.7702 8.77305 21.7702 8.67911 21.5724 8.7875H21.5798ZM23.2204 9.07657C23.1558 9.33971 23.1166 9.60829 23.1032 9.87871C23.0592 10.0811 23.3229 10.1678 23.4328 9.90762C23.6086 9.43789 23.6086 9.23555 23.6232 9.04043C23.5719 8.72969 23.3595 8.73692 23.2204 9.07657ZM33.6208 14.3014C33.6501 14.2652 35.0856 13.2607 35.0856 13.2607C35.2321 13.2102 35.1955 13.7811 35.1296 13.7738C34.6844 14.1972 34.1723 14.5462 33.6134 14.8072C33.5402 14.8578 33.4743 14.4242 33.6134 14.3014H33.6208ZM34.9172 14.2869C35.1735 14.4098 35.276 15.1397 35.2467 15.3348C35.2467 15.725 35.005 16.0285 34.9025 15.9852C34.8 15.9346 34.9172 15.501 34.8659 15.3492C34.8073 15.1324 34.5949 14.735 34.6315 14.6193C34.5583 14.3736 34.7633 14.2436 34.9245 14.2869H34.9172ZM26.4211 17.4232C26.5399 17.2864 26.678 17.1672 26.8312 17.0691C26.9777 16.9969 27.1095 17.127 27.1022 17.1197C27.1242 17.2643 27.0143 17.3871 27.0509 17.575C27.0802 17.6473 27.1022 17.734 27.2414 17.7051C27.4684 17.5244 27.6808 17.51 27.9006 17.5027C28.0837 17.51 28.091 17.8063 27.9738 17.8063C27.5563 17.893 27.3732 18.0086 27.0729 18.117C26.9264 18.2037 26.8092 18.0953 26.8092 18.0881C26.8092 18.0809 26.7287 18.0086 26.7799 17.8207C26.7946 17.6762 26.736 17.5895 26.6042 17.6039C26.5163 17.6617 26.4284 17.6906 26.3844 17.5822C26.3625 17.51 26.3551 17.4666 26.4211 17.4232ZM36.4259 17.8135C36.4845 17.8857 36.5285 17.958 36.4186 18.0881L36.1476 18.3193C36.1037 18.3916 36.0744 18.5217 36.2209 18.5578C36.4845 18.6301 37.0998 18.2326 37.0998 18.2254C37.2023 18.1531 37.173 18.0086 37.1584 18.0086C37.0998 17.9436 36.9679 17.9869 36.88 17.9725C36.8361 17.9725 36.6969 17.958 36.7629 17.8279C36.8121 17.7641 36.8515 17.6935 36.88 17.6184C36.9167 17.5316 36.88 17.4738 36.7336 17.4232C36.5798 17.3943 36.5138 17.4088 36.3454 17.4232C36.2575 17.4377 36.2282 17.4811 36.2062 17.5895C36.2135 17.7557 36.3161 17.7484 36.4259 17.8063V17.8135Z" fill="white"/>
<path id="Vector_17" fill-rule="evenodd" clip-rule="evenodd" d="M26.472 13.7089C26.4354 13.7812 26.3036 13.7812 26.179 13.7089C26.0545 13.6367 25.9813 13.5211 26.0252 13.456C26.0692 13.391 26.1937 13.391 26.3182 13.456C26.4427 13.5211 26.5086 13.6439 26.472 13.7089ZM19.9535 9.83551C19.8802 9.85719 19.7777 9.79215 19.7337 9.69098C19.6898 9.58981 19.7118 9.50309 19.785 9.48141C19.8582 9.45973 19.9535 9.532 20.0047 9.62594C20.056 9.71989 20.0267 9.82106 19.9461 9.84274L19.9535 9.83551Z" fill="#259F00"/>
<path id="Vector_18" fill-rule="evenodd" clip-rule="evenodd" d="M32.8509 27.0996C33.5394 27.1285 34.1839 27.0996 34.8651 27.1357C34.9896 27.2441 34.9017 27.4971 34.8211 27.4826L34.2498 27.4609C34.2425 27.2441 33.6859 27.2803 33.7005 27.4682C33.4002 27.5043 33.1292 27.4609 32.8216 27.4465C32.7337 27.3381 32.7484 27.143 32.8509 27.0996Z" fill="#209000"/>
</g>
</g>
</g>
</g>
<defs>
<clipPath id="clip0_1_420">
<rect width="50" height="37" fill="white" transform="translate(0.586182)"/>
</clipPath>
</defs>
</svg>
