<svg width="51" height="37" viewBox="0 0 51 37" fill="none" xmlns="http://www.w3.org/2000/svg">
<g id="Taiwan (TW)" clip-path="url(#clip0_1_466)">
<g id="Clip path group">
<mask id="mask0_1_466" style="mask-type:luminance" maskUnits="userSpaceOnUse" x="0" y="0" width="51" height="37">
<g id="a">
<path id="Vector" d="M0.200684 0H50.2007V37H0.200684V0Z" fill="white"/>
</g>
</mask>
<g mask="url(#mask0_1_466)">
<g id="Group">
<path id="Vector_2" d="M0.200684 0H56.4507V37H0.200684V0Z" fill="#FF0000"/>
<path id="Vector_3" d="M0.200684 0H28.3257V18.5H0.200684V0Z" fill="#000095"/>
<g id="Group_2">
<path id="Vector_4" d="M12.2319 9.78183L12.0366 10.5218L12.771 10.7222L12.6304 10.175L12.2319 9.78183ZM15.896 10.175L15.7554 10.7222L16.4897 10.5218L16.2944 9.78183L15.896 10.175ZM12.6304 8.32495L12.2319 8.71808L12.3804 9.24995L12.6304 8.32495Z" fill="white"/>
<path id="Vector_5" d="M12.3804 9.25L12.2319 9.78188L12.6304 10.175L12.3804 9.25Z" fill="white"/>
<path id="Vector_6" d="M12.2319 8.71777L11.6929 9.24965L12.2319 9.78152L12.3804 9.24965L12.2319 8.71777ZM13.3257 10.8607L13.7241 11.2538L14.2632 11.1074L13.3257 10.8607ZM14.8022 11.2538L15.5522 11.4465L15.7554 10.7219L15.2007 10.8607L14.8022 11.2538Z" fill="white"/>
<path id="Vector_7" d="M15.2007 10.8611L15.7554 10.7223L15.896 10.175L15.2007 10.8611ZM12.771 10.7223L12.9741 11.4469L13.7241 11.2542L13.3257 10.8611L12.771 10.7223ZM14.2632 11.1078L14.8022 11.2542L15.2007 10.8611L14.2632 11.1078Z" fill="white"/>
<path id="Vector_8" d="M13.7241 11.2538L14.2632 11.7857L14.8022 11.2538L14.2632 11.1073L13.7241 11.2538ZM12.771 7.77734L12.0366 7.97776L12.2319 8.71776L12.6304 8.32464L12.771 7.77734ZM12.6304 10.1746L12.771 10.7219L13.3257 10.8607L12.6304 10.1746ZM16.146 9.24964L16.2944 8.71776L15.896 8.32464L16.146 9.24964Z" fill="white"/>
<path id="Vector_9" d="M13.3257 7.63867L12.771 7.77742L12.6304 8.32471L13.3257 7.63867ZM15.896 8.32471L15.7554 7.77742L15.2007 7.63867L15.896 8.32471ZM16.2944 9.78159L16.8335 9.24971L16.2944 8.71784L16.146 9.24971L16.2944 9.78159Z" fill="white"/>
<path id="Vector_10" d="M15.896 8.32529L15.2007 7.63924L14.2632 7.39258L13.3257 7.63924L12.6304 8.32529L12.3804 9.25029L12.6304 10.1753L13.3257 10.8613L14.2632 11.108L15.2007 10.8613L15.896 10.1753L16.146 9.25029L15.896 8.32529Z" fill="white"/>
<path id="Vector_11" d="M15.896 10.1746L16.2944 9.78148L16.146 9.24961L15.896 10.1746ZM16.2944 8.71773L16.4897 7.97773L15.7554 7.77732L15.896 8.32461L16.2944 8.71773ZM15.7554 7.77732L15.5522 7.05273L14.8022 7.24544L15.2007 7.63857L15.7554 7.77732ZM13.7241 7.24544L12.9741 7.05273L12.771 7.77732L13.3257 7.63857L13.7241 7.24544ZM14.2632 7.3919L13.7241 7.24544L13.3257 7.63857L14.2632 7.3919Z" fill="white"/>
<path id="Vector_12" d="M14.8022 7.24586L14.2632 6.71399L13.7241 7.24586L14.2632 7.39232L14.8022 7.24586Z" fill="white"/>
<path id="Vector_13" d="M15.2007 7.63922L14.8022 7.24609L14.2632 7.39255L15.2007 7.63922ZM13.7241 11.2544L12.9741 11.4471L13.3257 12.7267L14.2632 11.7863L13.7241 11.2544ZM13.3257 12.7267L14.2632 16.1878L15.2007 12.7267L14.2632 11.7863L13.3257 12.7267ZM12.771 10.7226L12.0366 10.5221L11.6929 11.7863L12.9741 11.4471L12.771 10.7226Z" fill="white"/>
<path id="Vector_14" d="M11.6929 11.7861L10.7554 15.2625L13.3257 12.7265L12.9741 11.4469L11.6929 11.7861ZM10.7554 10.175L8.16943 12.7265L11.6929 11.7861L12.0366 10.5219L10.7554 10.175Z" fill="white"/>
<path id="Vector_15" d="M12.2319 9.78227L11.6929 9.25039L10.7554 10.1754L12.0366 10.5223L12.2319 9.78227ZM12.2319 8.71852L12.0366 7.97852L10.7554 8.32539L11.6929 9.25039L12.2319 8.71852Z" fill="white"/>
<path id="Vector_16" d="M10.7554 8.32495L7.23193 9.24995L10.7554 10.175L11.6929 9.24995L10.7554 8.32495ZM17.7866 10.175L16.4897 10.5218L16.8335 11.786L20.3569 12.7264L17.7866 10.175Z" fill="white"/>
<path id="Vector_17" d="M15.7554 10.7223L15.5522 11.4469L16.8335 11.786L16.4897 10.5219L15.7554 10.7223ZM14.8022 11.2542L14.2632 11.786L15.2007 12.7265L15.5522 11.4469L14.8022 11.2542ZM16.2944 9.78188L16.4897 10.5219L17.7866 10.175L16.8335 9.25L16.2944 9.78188Z" fill="white"/>
<path id="Vector_18" d="M15.2007 12.7265L17.7866 15.2625L16.8335 11.7861L15.5522 11.4469L15.2007 12.7265ZM15.7554 7.77774L16.4897 7.97816L16.8335 6.71399L15.5522 7.05316L15.7554 7.77774Z" fill="white"/>
<path id="Vector_19" d="M17.7866 8.32505L20.3569 5.78901L16.8335 6.71401L16.4897 7.97817L17.7866 8.32505ZM16.8335 6.71401L17.7866 3.23755L15.2007 5.78901L15.5522 7.05317L16.8335 6.71401ZM17.7866 10.175L21.2944 9.25005L17.7866 8.32505L16.8335 9.25005L17.7866 10.175Z" fill="white"/>
<path id="Vector_20" d="M16.2944 8.71817L16.8335 9.25005L17.7866 8.32505L16.4897 7.97817L16.2944 8.71817ZM13.3257 5.78901L10.7554 3.23755L11.6929 6.71401L12.9741 7.05317L13.3257 5.78901Z" fill="white"/>
<path id="Vector_21" d="M12.771 7.77774L12.9741 7.05316L11.6929 6.71399L12.0366 7.97816L12.771 7.77774Z" fill="white"/>
<path id="Vector_22" d="M11.6929 6.71394L8.16943 5.78894L10.7554 8.32498L12.0366 7.97811L11.6929 6.71394ZM14.8022 7.24582L15.5522 7.05311L15.2007 5.78894L14.2632 6.71394L14.8022 7.24582Z" fill="white"/>
<path id="Vector_23" d="M15.2007 5.78896L14.2632 2.3125L13.3257 5.78896L14.2632 6.71396L15.2007 5.78896Z" fill="white"/>
<path id="Vector_24" d="M13.7241 7.24582L14.2632 6.71394L13.3257 5.78894L12.9741 7.05311L13.7241 7.24582Z" fill="white"/>
</g>
<path id="Vector_25" d="M14.2632 13.1894C16.468 13.1894 18.2554 11.4259 18.2554 9.25048C18.2554 7.07506 16.468 5.31152 14.2632 5.31152C12.0584 5.31152 10.271 7.07506 10.271 9.25048C10.271 11.4259 12.0584 13.1894 14.2632 13.1894Z" fill="#000095"/>
<path id="Vector_26" d="M14.2632 12.7265C16.2091 12.7265 17.7866 11.17 17.7866 9.25002C17.7866 7.33002 16.2091 5.77356 14.2632 5.77356C12.3172 5.77356 10.7397 7.33002 10.7397 9.25002C10.7397 11.17 12.3172 12.7265 14.2632 12.7265Z" fill="white"/>
</g>
</g>
</g>
</g>
<defs>
<clipPath id="clip0_1_466">
<rect width="50" height="37" fill="white" transform="translate(0.200684)"/>
</clipPath>
</defs>
</svg>
